<svg xmlns="http://www.w3.org/2000/svg" fill="none" viewBox="0 0 376 255"><defs/><path fill="#0F96A0" fill-rule="evenodd" d="M0 90.1c0 92 126.8 126.2 189.4 32.6C254.4 219.7 376 179 376 90S254.9-42 189.4 57.5C127.4-40.8 0-1.9 0 90.1zm33.3 0c0-66.3 94-87.3 137.8 0-44.6 84-137.8 66.4-137.8 0zm174.4 0c39.4-89 136-64.5 135.7.2-.3 64.6-97.4 84.7-135.7-.2z" clip-rule="evenodd"/><path fill="#0F96A0" fill-rule="evenodd" d="M68.6 99.2h55.8V80.8H68.6v18.4zM271.1 98.9h-18.4V79.4h18.4V61h19.6v18.4H309v19.5h-18.4v18.3H271V99z" clip-rule="evenodd"/><path fill="#0F96A0" d="M358 17.3V9.1h-2.3V7.4h6.1v1.7h-2.3v8.2H358zm4.8 0V7.4h2.3l1.4 6.8 1.4-6.8h2.3v10h-1.4V9.4l-1.5 7.8h-1.5l-1.5-7.8v7.8h-1.5z"/><path fill="#0F96A0" fill-rule="evenodd" d="M159.3 228.6c.1 18-9.2 26.8-27.2 26.2h-15.4v-52.4h15.4c18-.5 27.3 8.2 27.2 26.2zm-12.9 0c.1-10.3-5.3-15.2-16.2-14.7v29.5c10.9.5 16.3-4.4 16.2-14.8zM189.5 254.8c-14.8 0-20.6-4.9-21.2-17.3v-35.1h13.5v34.5c-.3 5.5 2.3 7.9 7.7 7.9 5.3 0 7.8-2.4 7.5-7.9v-34.5h13.5v35c-.6 12.5-6.2 17.4-21 17.4zM240.7 202.4H221v11.2h13v30h-13v11.2h39.3v-11.2h-13v-30h13v-11.2h-19.6zM299 228.6l-14.5-26.2h-14.4v52.4h12.7v-31.5l3 5.5 14.4 26.2h14.4v-52.4h-12.7V234l-3-5.5zM343.2 213.3c-7.6 0-8.2 6.7-8.2 15.3 0 8.6.6 15.3 8.2 15.3 7.5 0 8.1-6.7 8.1-15.3 0-8.6-.6-15.3-8.1-15.3zm0 41.5c-15.2 0-22.2-8.3-22.2-26.2s7-26.2 22.2-26.2c15.1 0 22 8.3 22 26.2s-6.9 26.2-22 26.2zM59 254.8l-17.7-52.4h-14L9.5 254.8h15.2l2.8-11h14.2l3.3 11h14zm-20-21.3h-9l4.4-16.4 4.5 16.4zM66.3 202.4v52.4h13v-16.5H85l9.5 16.5h15.4l-12-19.3c13.8-5.9 14.2-33.1-11-33.1H66.4zm13.2 25.8V214h6.3c12 .2 8 14.4.2 14.2h-6.5z" clip-rule="evenodd"/></svg>