<svg xmlns="http://www.w3.org/2000/svg" fill="none" viewBox="0 0 343 372"><defs/><path fill="#656565" d="M37.4 316.4c0-15.2-4.3-22.8-13-23.1-3.5-.3-6.8.5-10 1.6-2.7.8-4.4 2-5.2 2.8v35.8a24.6 24.6 0 0014.7 4.8c9-.8 13.5-8.1 13.5-22zm10.6.5c0 7.6-1.6 13.8-5.4 19-4 5.7-9.5 8.7-16.8 8.7a29 29 0 01-16.6-5.2V372L0 368.7v-72.4c1.6-2 3.5-3.5 5.7-4.9a38.4 38.4 0 0119.8-4.9c7 0 12.8 3 16.6 8.7 4 6.2 6 13 6 21.7zm56.2 21.4c0 10.4-1 17.4-3 21.2-2.2 3.8-6 7-11.7 9.5a41 41 0 01-15.2 3l-1.6-5.7c5.7-.8 9.5-1.6 11.7-2.2 4.3-1.6 7.6-3.8 9.2-7 1.4-2.5 1.9-7.4 1.9-14.4v-2.5c-6.2 3-13 4.4-19.8 4.4a17 17 0 01-12-4.4c-3.7-3-5.7-7-5.7-11.9v-38.2l9.3-3.3v38.5c0 4.1 1.3 7.4 4 9.5 2.8 2.2 6 3.3 10.3 3.3 4.4 0 8.7-1.6 13.6-4.9v-45h9.2l-.2 50.1zm35.8 6h-3c-5.1 0-9.2-1.3-12.2-3.8-3-2.4-4.3-6-4.3-10.3V294h-6.3V288h6.3v-15.4l9.2-3.3v18.7H140v5.7h-10.3v35.9c0 3.5.8 6 2.7 7.3 1.7 1 4 1.9 7.6 2.2v5.1zm56-.8h-9.3v-35.6c0-3.5-.8-6.7-2.4-9.2a9 9 0 00-8.2-4.3c-4.3 0-9.5 2.2-15.7 6.8v42.6h-9.2v-85l9.2-3v38.6c6-4.3 12.2-6.5 19.2-6.5a16 16 0 0112 4.9c3 3.2 4.6 7.3 4.6 12.2l-.3 38.5zm48.8-28.8a29 29 0 00-3.3-14.3c-2.7-4.7-6.5-7.1-12.2-7.4-10 .6-15.2 7.9-15.2 21.7 0 6.5 1 11.7 3.2 16 2.8 5.5 6.8 8.2 12.3 8.2 10-.3 15.2-8.2 15.2-24.2zm10 0a34 34 0 01-6.2 20.7c-4.6 6-11.2 9.2-19 9.2-8.2 0-14.4-3-19-9.2-4-5.5-6.3-12.3-6.3-20.7 0-7.8 2.2-14.3 6.8-19.5a22.9 22.9 0 0118.5-8.4c7.6 0 13.8 2.7 18.7 8.4 4.3 5.4 6.5 12 6.5 19.5zm53 28.8h-9.3V306c0-4-1.3-7.3-3.8-9.5a13.2 13.2 0 00-10-3.2c-4.4 0-8.7 1.6-12.5 4.3V344H263v-47.5a42.4 42.4 0 0125.8-9.2c2.1 0 4.3.3 6.2.6 3.5.8 6.5 2.4 8.7 4.6a13 13 0 013.8 9.2l.2 41.8z"/><path fill="url(#paint0_linear)" d="M149.8 0c-8.7 0-17.1.9-24.4 2.2C103.7 6 99.9 14 99.9 28.8v19.6h51v6.5h-70c-14.7 0-27.7 9-31.8 25.7a96 96 0 000 51.9c3.6 15.2 12.2 25.7 27.2 25.7h17.6V135a32.5 32.5 0 0131.8-31.7h50.7a25.8 25.8 0 0025.5-26V28.4c0-13.8-11.7-24.1-25.5-26.6-9-1.3-18-2.1-26.6-1.9zm-27.7 15.5c5.2 0 9.5 4.4 9.5 9.8s-4.3 9.7-9.5 9.7a9.7 9.7 0 01-9.5-9.7c0-5.4 4-9.8 9.5-9.8z"/><path fill="url(#paint1_linear)" d="M208.1 54.3v22.5c0 17.7-14.9 32.3-32 32.3h-50.7c-13.9 0-25.5 12-25.5 26v48.6c0 13.9 12 22 25.5 26.1 16 4.9 31.5 5.7 51 0 12.7-3.8 25.5-11.1 25.5-26v-19.6h-51v-6.5h76.5c14.7 0 20.4-10.3 25.5-25.8 5.4-16 5.2-31.2 0-51.8-3.5-14.7-10.6-25.8-25.5-25.8h-19.3zm-28.7 123c5.1 0 9.5 4.3 9.5 9.7 0 5.4-4.4 9.8-9.5 9.8a9.7 9.7 0 01-9.5-9.8c0-5.4 4.3-9.8 9.5-9.8z"/><path fill="#656565" d="M325.4 280h1.6v-10h3.8v-1.4h-9.2v1.4h3.8v10zm7 0h1.4v-9.2l3 9.2h1.6l3-9.2v9.2h1.6v-11.4h-1.9l-3.5 9.8-3-9.8h-2.2V280z"/><path fill="url(#paint2_radial)" d="M219.8 235.6c0 7.3-30.7 13.3-68.4 13.3S83 243 83 235.6c0-7.3 30.7-13.3 68.4-13.3s68.4 6 68.4 13.3z" opacity=".4"/><defs><linearGradient id="paint0_linear" x1="39.9" x2="157.5" y1="5.8" y2="106" gradientUnits="userSpaceOnUse"><stop stop-color="#5CA0D5"/><stop offset="1" stop-color="#316A99"/></linearGradient><linearGradient id="paint1_linear" x1="201.8" x2="159.7" y1="168.3" y2="109.3" gradientUnits="userSpaceOnUse"><stop stop-color="#FFD43E"/><stop offset="1" stop-color="#FFE975"/></linearGradient><radialGradient id="paint2_radial" cx="0" cy="0" r="1" gradientTransform="matrix(0 -13.2394 58.2127 0 151.4 233.4)" gradientUnits="userSpaceOnUse"><stop stop-color="#B8B8B8" stop-opacity=".5"/><stop offset="1" stop-color="#7F8080" stop-opacity="0"/></radialGradient></defs></svg>