<svg xmlns="http://www.w3.org/2000/svg" fill="none" viewBox="0 0 220 311"><defs/><path fill="#DF4724" d="M20 286L0 61.1h220L200 286l-90.1 25L20 286z"/><path fill="#EA5E29" d="M110 291.9l72.8-20.2 17.1-192.2H110V292z"/><path fill="#EFEFF0" d="M110 163H73.5L71 134.6h39V107H41l.6 7.4 6.8 76H110V163zM110 234.6h-.1l-30.7-8.3-2-22H49.6l3.9 43.3 56.4 15.7h.1v-28.7z"/><path fill="#252422" d="M20.5 0h14v13.8h12.8V0h14v42h-14V27.8H34.5v14h-14V0zM79.7 14H67.4V0H106v14H93.7v28h-14V14zM112.1 0h14.6l9 14.7 9-14.7h14.6v42h-14V21.1L135.7 36h-.2l-9.7-15V42h-13.7V0zM166.2 0h14v28H200v14h-33.7V0z"/><path fill="#FEFEFE" d="M109.9 163v27.5h34l-3.3 35.8-30.7 8.3v28.7l56.5-15.7.4-4.6 6.5-72.7.6-7.4h-64zM109.9 107v27.7h66.5l.6-6.2 1.2-14 .7-7.4h-69z"/></svg>