<svg xmlns="http://www.w3.org/2000/svg" fill="none" viewBox="0 0 220 311"><defs/><path fill="#4B58A1" d="M109.9 311L20 286 0 61.1h220L200 286l-90.1 25z"/><path fill="#4D64AB" d="M182.8 271.7L200 79.5H110V292l72.8-20.2z"/><path fill="#EFEFF0" d="M110 234.6h-.1l-30.7-8.3-2-22H49.6l3.9 43.3 56.4 15.7h.1v-28.7zM41 107l2.4 27.6H110V107H41zm4.9 55.8l2.5 27.6H110V163H45.9z"/><path fill="#252422" d="M165.2 0v12.1h-19.4v2.5h19.4v28h-33.4V29.7h19.4v-2.5h-19.4V0h33.4zm-40 0H91.8v27.3h19.4v2.5H91.8v12.7h33.4v-28h-19.4v-2.4h19.4V0zm-40 0H51.7v42H85V28H65.7V14h19.4V0z"/><path fill="#FEFEFE" d="M174 163l4.9-56h-69v27.7h38.8l-2.5 28.2H110v27.6h34l-3.3 35.8-30.7 8.3v28.7l56.5-15.7.4-4.7 6.5-72.6.6-7.4z"/></svg>