<svg xmlns="http://www.w3.org/2000/svg" fill="none" viewBox="0 0 290 326"><defs/><path fill="#A179DC" d="M290 95.8c0-5.4-1.2-10.3-3.6-14.4-2.3-4.1-5.8-7.6-10.5-10.3L160.1 4.4a28.4 28.4 0 00-30.8.3C113.9 13.7 37 57.8 14 71A26.8 26.8 0 000 95.8L0 230.2c0 5.3 1.1 10 3.4 14.2 2.3 4.2 5.9 7.7 10.6 10.5 23 13.3 100 57.3 115.3 66.4a28.4 28.4 0 0030.8.3L276 255c4.7-2.8 8.3-6.3 10.6-10.5a29 29 0 003.4-14.2V95.8z"/><path fill="#280068" d="M145.4 162.6l-142 81.8c2.3 4.2 5.9 7.7 10.6 10.5 23 13.3 100 57.3 115.3 66.4a28.4 28.4 0 0030.8.3L276 255c4.7-2.8 8.3-6.3 10.6-10.5l-141.2-81.8z"/><path fill="#390091" d="M290 95.8c0-5.4-1.2-10.3-3.6-14.4l-141 81.2 141.2 81.8a29 29 0 003.4-14.2V95.8z"/><path fill="#fff" d="M229 132v15.3h15.4V132h7.6v15.3h15.3v7.6H252v15.3h15.3v7.7H252V193h-7.6V178H229V193h-7.7V178h-15.3v-7.7h15.3V155h-15.3v-7.6h15.3V132h7.7zm15.4 23H229v15.2h15.3V155z"/><path fill="#fff" d="M145.8 55.2c39.8 0 74.6 21.6 93.3 53.8l-.2-.3-46.9 27a53.6 53.6 0 00-45.6-26.4h-.6a53.7 53.7 0 1046.7 80l-.2.4 46.9 27.2a107.8 107.8 0 01-92.2 54h-1.2a107.7 107.7 0 110-215.7z"/></svg>