<svg xmlns="http://www.w3.org/2000/svg" fill="none" viewBox="0 0 567 212"><defs/><path fill="#000" d="M206.2 84L183.6 0 99.4 22.6 87 44.5l-25.3.1L0 106l61.3 61.4h25.3L99 189.6l84 22.4 23.1-84.7-12.8-21.4L206.2 84zM88.7 48l64.7-16.5-36.7 64-74.6.2L88.7 48zm.1 116.3l-46.7-47.8h74.4l37 64-64.7-16.2zm82.7 6.5L134.2 106l37.3-64.3 17.9 64.6-17.9 64.5z"/><path fill="url(#paint0_linear)" d="M182.7 1.6L197 54.8 182 2.8l-44.2 11.4 44.9-12.6z"/><path fill="#000" d="M229.7 88h21.6v60.7s-1 14.7 29.5 0V88.1h21.4v86H286l-2.3-6.6S259 179.3 244 176c-15-3.4-14.4-16.5-14.4-18V88zM386.2 174.5h-21.6v-60.7s1-14.6-29.6 0v60.7h-21.3v-86h16.2l2.3 6.6s24.7-11.8 39.6-8.5c14.9 3.4 14.4 16.5 14.4 18v70zM415.8 75.5h-21.4V50.3h21.4v25.2zM415.8 174.5h-21.4V88.1h21.4v86.4zM434.5 88V66.6l21.7-3.2.2 24.8h22l-1.4 17h-20.8l.2 47.2s0 9.9 18.5 4l2.5 17s-38.4 13.6-42.9-15.7V105h-13v-17h13zM482.8 88h22.1l20 65.2L544.2 88H567l-39.3 121.2H507l11-34.8h-8l-27.2-86.4z"/><defs><linearGradient id="paint0_linear" x1="176.6" x2="163.5" y1="-4.2" y2="42.1" gradientUnits="userSpaceOnUse"><stop stop-color="#E9E9E9"/><stop offset="0" stop-color="#E9E9E9"/><stop offset=".6"/><stop offset="1"/></linearGradient></defs></svg>