<svg xmlns="http://www.w3.org/2000/svg" fill="none" viewBox="0 0 216 401"><defs/><path fill="#EA232D" d="M135.5 1a31.4 31.4 0 016.6 26.5 60 60 0 01-14.4 27.3 133 133 0 01-18 17.2C102 78 94.6 84.6 90 93c-4 7-5 15.5-2.2 23 4.4 13 14.8 22.5 20.5 34.7a278.1 278.1 0 01-18.1-17.3 83 83 0 01-15.4-21.2 25.4 25.4 0 01-1.8-18c2-6.1 6.3-11 10.6-15.5 12-12 27-21 38.7-33.2 6.6-6.7 12-14.8 13.8-24 1.6-6.9.8-13.9-.6-20.6z"/><path stroke="#EA232D" stroke-miterlimit="10" stroke-width=".9" d="M135.5 1a31.4 31.4 0 016.6 26.5 60 60 0 01-14.4 27.3 133 133 0 01-18 17.2C102 78 94.6 84.6 90 93c-4 7-5 15.5-2.2 23 4.4 13 14.8 22.5 20.5 34.7a278.1 278.1 0 01-18.1-17.3 83 83 0 01-15.4-21.2 25.4 25.4 0 01-1.8-18c2-6.1 6.3-11 10.6-15.5 12-12 27-21 38.7-33.2 6.6-6.7 12-14.8 13.8-24 1.6-6.9.8-13.9-.6-20.6z"/><path fill="#EA232D" d="M125.7 77c12.9-9.6 28-15.7 43.4-20-12.2 7.6-24.8 14.7-35.3 24.6a32.8 32.8 0 00-9 13c-1.3 3.8-.8 8 .7 11.6 2.8 6.4 7.6 11.6 11.2 17.5 3 5 3.6 11.4 1.2 16.8a44.5 44.5 0 01-17.6 18.3c-1 .5-1.8 1.5-2.9 1.7a23.2 23.2 0 008.4-17c-.1-5-2.9-9.3-6-12.9-6.7-7.8-12.2-17.8-11-28.4 1-10.6 8.7-19.2 16.9-25.3z"/><path stroke="#EA232D" stroke-miterlimit="10" stroke-width=".9" d="M125.7 77c12.9-9.6 28-15.7 43.4-20-12.2 7.6-24.8 14.7-35.3 24.6a32.8 32.8 0 00-9 13c-1.3 3.8-.8 8 .7 11.6 2.8 6.4 7.6 11.6 11.2 17.5 3 5 3.6 11.4 1.2 16.8a44.5 44.5 0 01-17.6 18.3c-1 .5-1.8 1.5-2.9 1.7a23.2 23.2 0 008.4-17c-.1-5-2.9-9.3-6-12.9-6.7-7.8-12.2-17.8-11-28.4 1-10.6 8.7-19.2 16.9-25.3v0z"/><path fill="#3471C1" d="M171.5 154c2.8-3.4 7.3-4.3 11.3-4.8 7.1-1 14.6.8 20 5.7 4.4 4 6.8 10 5.9 16-1 6.8-5.6 12.6-10.8 17-9.4 7.4-21 11.8-32.6 14.8.7-.8 1.4-1.4 2.3-2a79.7 79.7 0 0024-18c4-4.8 7-11 5.7-17.4-1.3-7.3-8.5-12.6-15.7-13-3.5-.4-6.8 1-10 1.6z"/><path stroke="#3471C1" stroke-miterlimit="10" stroke-width=".9" d="M171.5 154c2.8-3.4 7.3-4.3 11.3-4.8 7.1-1 14.6.8 20 5.7 4.4 4 6.8 10 5.9 16-1 6.8-5.6 12.6-10.8 17-9.4 7.4-21 11.8-32.6 14.8.7-.8 1.4-1.4 2.3-2a79.7 79.7 0 0024-18c4-4.8 7-11 5.7-17.4-1.3-7.3-8.5-12.6-15.7-13-3.5-.4-6.8 1-10 1.6v0z"/><path fill="#3471C1" d="M37.6 160a96 96 0 0139-8.4c-7.8 2.2-15.8 4.1-23.2 7.6-1.7 1-3.7 1.8-4.7 3.6-.5 1.4 1 2.3 2 2.8 4.5 1.9 9.5 2.1 14.4 2.6 17 1.1 34.2.5 51.2-.6 16.8-1 33.4-3.3 50-6-3.6 1.7-7.4 3.5-10.8 5.7-1.7 1.2-3.8 1.5-5.8 2-20.4 4.5-41.3 6-62 6.2-8.1.1-16.1 0-24.1-.6-9-.6-18-1.2-26.7-3.6-2.5-.7-5.2-1.5-7.2-3.3-1-.8-1-2.4-.1-3.3 2.2-2.3 5.3-3.4 8-4.7z"/><path stroke="#3471C1" stroke-miterlimit="10" stroke-width=".9" d="M37.6 160a96 96 0 0139-8.4c-7.8 2.2-15.8 4.1-23.2 7.6-1.7 1-3.7 1.8-4.7 3.6-.5 1.4 1 2.3 2 2.8 4.5 1.9 9.5 2.1 14.4 2.6 17 1.1 34.2.5 51.2-.6 16.8-1 33.4-3.3 50-6-3.6 1.7-7.4 3.5-10.8 5.7-1.7 1.2-3.8 1.5-5.8 2-20.4 4.5-41.3 6-62 6.2-8.1.1-16.1 0-24.1-.6-9-.6-18-1.2-26.7-3.6-2.5-.7-5.2-1.5-7.2-3.3-1-.8-1-2.4-.1-3.3 2.2-2.3 5.3-3.4 8-4.7z"/><path fill="#3471C1" d="M53.3 188.5a40 40 0 0111.7-5.8c-1.3 1.6-3.2 3.2-3.3 5.4 0 1.4 1 2.4 2.2 3.1 2.2 1.1 4.7 1.5 7.1 1.9a226.6 226.6 0 0073.9-3.4c3.2 3 7 5 11 6.8-14.1 4.2-28.6 6.6-43 7.7-13.8 1-27.7.9-41.4-1.3-5.4-1-11-2.2-15.9-4.7-2-1-4.2-2.5-4.8-4.8-.4-2 1-3.8 2.5-5z"/><path stroke="#3471C1" stroke-miterlimit="10" stroke-width=".9" d="M53.3 188.5a40 40 0 0111.7-5.8c-1.3 1.6-3.2 3.2-3.3 5.4 0 1.4 1 2.4 2.2 3.1 2.2 1.1 4.7 1.5 7.1 1.9a226.6 226.6 0 0073.9-3.4c3.2 3 7 5 11 6.8-14.1 4.2-28.6 6.6-43 7.7-13.8 1-27.7.9-41.4-1.3-5.4-1-11-2.2-15.9-4.7-2-1-4.2-2.5-4.8-4.8-.4-2 1-3.8 2.5-5z"/><path fill="#3471C1" d="M61 217.5c3.1-2.4 6.9-3.7 10.6-4.8-1.2 1.2-3.3 2.6-2.4 4.5 1.8 2.3 5.2 2.6 7.8 3.2 11.3 1.4 22.7 2.3 34 1.5 8.5-.6 16.9-2.1 25.2-3.6a124 124 0 0015 7.4c-8 3.5-16.4 5.8-24.9 7.4-14.2 2.5-29 2.8-43.3.6a60.5 60.5 0 01-18.5-5.8c-2.2-1.2-4.5-2.7-5.5-5.2-.7-2 .5-4 2-5.2z"/><path stroke="#3471C1" stroke-miterlimit="10" stroke-width=".9" d="M61 217.5c3.1-2.4 6.9-3.7 10.6-4.8-1.2 1.2-3.3 2.6-2.4 4.5 1.8 2.3 5.2 2.6 7.8 3.2 11.3 1.4 22.7 2.3 34 1.5 8.5-.6 16.9-2.1 25.2-3.6a124 124 0 0015 7.4c-8 3.5-16.4 5.8-24.9 7.4-14.2 2.5-29 2.8-43.3.6a60.5 60.5 0 01-18.5-5.8c-2.2-1.2-4.5-2.7-5.5-5.2-.7-2 .5-4 2-5.2z"/><path fill="#3471C1" d="M24 236.4a66 66 0 0119-4c2.6 0 5.2.1 7.5 1.5a57 57 0 00-22.4 5.9c-1.5.9-3.2 1.9-3.8 3.7 0 2 2.3 2.7 3.8 3.3 9.7 3.6 20 4.8 30.1 5.8 30.2 2.6 60.6 2 90.8-.8 11.4-1.3 22.9-2.6 34-5.7 3.4-1.2 7.4-2.4 9.8-5.5 1.4-1.9.4-4.2-1-5.8 2.3 1.3 5.5 2.9 5 6-.8 3.1-4 4.8-6.8 6.3-8.5 4.3-17.9 6.5-27.2 8.5a372 372 0 01-82.5 5.7c-20.8-.7-41.6-2.7-62.1-6.3-3.7-.8-7.8-1.6-10.5-4.4-1.7-2-.2-4.8 1.5-6.3 4.2-3.8 9.6-6 14.9-8z"/><path stroke="#3471C1" stroke-miterlimit="10" stroke-width=".9" d="M24 236.4a66 66 0 0119-4c2.6 0 5.2.1 7.5 1.5a57 57 0 00-22.4 5.9c-1.5.9-3.2 1.9-3.8 3.7 0 2 2.3 2.7 3.8 3.3 9.7 3.6 20 4.8 30.1 5.8 30.2 2.6 60.6 2 90.8-.8 11.4-1.3 22.9-2.6 34-5.7 3.4-1.2 7.4-2.4 9.8-5.5 1.4-1.9.4-4.2-1-5.8 2.3 1.3 5.5 2.9 5 6-.8 3.1-4 4.8-6.8 6.3-8.5 4.3-17.9 6.5-27.2 8.5a372 372 0 01-82.5 5.7c-20.8-.7-41.6-2.7-62.1-6.3-3.7-.8-7.8-1.6-10.5-4.4-1.7-2-.2-4.8 1.5-6.3 4.2-3.8 9.6-6 14.9-8v0z"/><path fill="#3471C1" d="M190.1 259.2c6.7-2.4 14-4.8 19-10.1-1 5.7-6 9.7-10.9 12.3-9.4 5-20 7.2-30.5 9.1a386.2 386.2 0 01-113.5-.3c-3.6-1-7.5-1.6-10.6-3.8 13.4 2.3 27.1 3.2 40.8 3.8 22.4.6 45-.2 67.3-3 12.9-1.8 25.9-4 38.4-8z"/><path stroke="#3471C1" stroke-miterlimit="10" stroke-width=".9" d="M190.1 259.2c6.7-2.4 14-4.8 19-10.1-1 5.7-6 9.7-10.9 12.3-9.4 5-20 7.2-30.5 9.1a386.2 386.2 0 01-113.5-.3c-3.6-1-7.5-1.6-10.6-3.8 13.4 2.3 27.1 3.2 40.8 3.8 22.4.6 45-.2 67.3-3 12.9-1.8 25.9-4 38.4-8v0z"/><path fill="#EA232D" d="M14.5 358v-65.6l13.7.1V366c-.2 6.9-.3 14-3.7 20.2A32.8 32.8 0 017.4 400c-2.2-2.4-4.2-5-6.4-7.3 5.6-3.3 11.2-8 12.5-14.7 1.3-6.6.9-13.3 1-20z"/><path stroke="#EA232D" stroke-miterlimit="10" stroke-width=".9" d="M14.5 358v-65.6l13.7.1V366c-.2 6.9-.3 14-3.7 20.2A32.8 32.8 0 017.4 400c-2.2-2.4-4.2-5-6.4-7.3 5.6-3.3 11.2-8 12.5-14.7 1.3-6.6.9-13.3 1-20z"/><path fill="#EA232D" d="M57.3 349.6c-3 1-5.7 3-6.5 6.1-.9 3.4-.6 7.4 1.6 10.3 2.1 2.8 6 3.5 9.3 3a25 25 0 0012.3-6v-15c-5.6 0-11.3-.2-16.7 1.6zm-16.5-31c9-3.8 19-5.8 28.8-4.7 5 .6 10.3 2.5 13.6 6.5 2.7 3.5 3.7 8 3.6 12.3v44.7h-10l-1-6.7c-3.8 3-7.8 5.8-12.6 7a27.2 27.2 0 01-16.6-.8c-4-1.6-7.2-5.3-8.4-9.6a20.2 20.2 0 013.6-18.4c4-4.6 10-6.9 15.8-8 5.4-1 10.9-1 16.4-1-.1-4.2.7-8.8-1.7-12.5-2-3-5.5-4-8.7-4.2a51.3 51.3 0 00-21 3.5l-1.8-8z"/><path stroke="#EA232D" stroke-miterlimit="10" stroke-width=".9" d="M57.3 349.6c-3 1-5.7 3-6.5 6.1-.9 3.4-.6 7.4 1.6 10.3 2.1 2.8 6 3.5 9.3 3a25 25 0 0012.3-6v-15c-5.6 0-11.3-.2-16.7 1.6zm-16.5-31c9-3.8 19-5.8 28.8-4.7 5 .6 10.3 2.5 13.6 6.5 2.7 3.5 3.7 8 3.6 12.3v44.7h-10l-1-6.7c-3.8 3-7.8 5.8-12.6 7a27.2 27.2 0 01-16.6-.8c-4-1.6-7.2-5.3-8.4-9.6a20.2 20.2 0 013.6-18.4c4-4.6 10-6.9 15.8-8 5.4-1 10.9-1 16.4-1-.1-4.2.7-8.8-1.7-12.5-2-3-5.5-4-8.7-4.2a51.3 51.3 0 00-21 3.5l-1.8-8z"/><path fill="#EA232D" d="M174.3 349.7c-2.8 1-5.4 3-6.3 6-1 3.4-.7 7.4 1.5 10.3 2.2 2.9 6 3.5 9.5 3 4.6-.6 8.8-3.1 12.2-6.2v-14.7c-5.7 0-11.5-.3-17 1.6zm-16.4-31c9-3.9 19-6 29-4.8 4.9.6 10 2.4 13.2 6.3 3 3.6 4 8.5 4 13.2-.1 14.7 0 29.3-.2 44h-10l-1-6.7c-4.7 4-10.3 7.2-16.6 7.8-5.8.5-12.3-.2-16.8-4.4-4.8-4.4-5.6-11.5-4.4-17.6a18.7 18.7 0 0110.4-12.6c8-3.9 17-4 25.7-4-.2-4 .6-8.4-1.5-12-1.6-3-5-4.3-8.2-4.7-7.4-.8-14.8 1-21.7 3.5l-1.9-8z"/><path stroke="#EA232D" stroke-miterlimit="10" stroke-width=".9" d="M158 318.7c9-3.9 19-6 28.8-4.8 5 .6 10 2.4 13.3 6.3 3 3.6 4 8.5 4 13.2-.1 14.7 0 29.3-.2 44h-10l-1-6.7c-4.7 4-10.3 7.2-16.6 7.8-5.8.5-12.3-.2-16.8-4.4-4.8-4.4-5.6-11.5-4.4-17.6a18.7 18.7 0 0110.4-12.6c8-3.9 17-4 25.7-4-.2-4 .6-8.4-1.5-12-1.6-3-5-4.3-8.2-4.7-7.4-.8-14.8 1-21.7 3.5l-1.9-8m16.3 31c-2.7 1-5.3 3-6.2 6-1 3.4-.7 7.4 1.5 10.3 2.2 2.9 6 3.5 9.5 3 4.6-.6 8.8-3.1 12.2-6.2v-14.7c-5.7 0-11.5-.3-17 1.6z"/><path fill="#EA232D" d="M94.4 314.7h14l8.1 26.3c1.6 5.4 3.6 10.8 4.8 16.3.6 2.4 1.1 5 1.8 7.4 5.8-16.2 10.2-33 12.4-50h13.6c-3.9 21.6-10.1 42.8-19.4 62.7h-16l-19.3-62.7z"/><path stroke="#EA232D" stroke-miterlimit="10" stroke-width=".9" d="M94.4 314.7h14l8.1 26.3c1.6 5.4 3.6 10.8 4.8 16.3.6 2.4 1.1 5 1.8 7.4 5.8-16.2 10.2-33 12.4-50h13.6c-3.9 21.6-10.1 42.8-19.4 62.7h-16l-19.3-62.7z"/><path fill="#EA232D" d="M206.7 313.5H205v-.6h4v.6h-1.7v4.8h-.7v-4.8z"/><path stroke="#EA232D" stroke-miterlimit="10" stroke-width=".9" d="M206.7 313.5H205v-.6h4v.6h-1.7v4.8h-.7v-4.8z"/><path fill="#EA232D" d="M214.2 316l-.1-2.4-.7 2-1 2.6h-.5l-.9-2.5a25 25 0 01-.6-2.1v2.4l-.2 2.3h-.7l.4-5.4h.9l.9 2.6.5 1.8.6-1.8 1-2.6h.9l.3 5.4h-.7l-.1-2.4z"/><path stroke="#EA232D" stroke-miterlimit="10" stroke-width=".9" d="M214.2 316l-.1-2.4h0l-.7 2-1 2.6h-.5l-.9-2.5a25 25 0 01-.6-2.1h0v2.4l-.2 2.3h-.7l.4-5.4h.9l.9 2.6.5 1.8h0l.6-1.8 1-2.6h.9l.3 5.4h-.7l-.1-2.4z"/></svg>