<svg xmlns="http://www.w3.org/2000/svg" fill="none" viewBox="0 0 308 308"><defs/><path fill="#00007D" d="M271.8 154.02C271.8 88.98 219 36.2 153.96 36.2S36.15 88.98 36.15 154.02c0 65.04 52.79 117.82 117.82 117.82 65.04 0 117.82-52.78 117.82-117.82z"/><path fill="#fff" d="M237.3 105.2a34.52 34.52 0 00-34.51-34.5 34.52 34.52 0 000 69.02 34.52 34.52 0 0034.5-34.51z"/><path fill="#00007D" d="M306.3 36.2a34.52 34.52 0 00-34.5-34.5 34.52 34.52 0 00-34.52 34.5 34.52 34.52 0 0034.51 34.5 34.52 34.52 0 0034.51-34.5z"/><path fill="#fff" d="M73.64 136.84h10.3v67h38.16v9.06H73.64v-76.06zM140.69 157.45v36.81c0 2.84.44 5.15 1.31 6.94 1.61 3.32 4.62 4.97 9.03 4.97 6.31 0 10.62-2.9 12.9-8.7 1.25-3.1 1.87-7.36 1.87-12.78v-27.24h9.32v55.45h-8.8l.1-8.18a18.76 18.76 0 01-4.42 5.34c-3.49 2.9-7.72 4.35-12.7 4.35-7.76 0-13.04-2.65-15.85-7.93-1.53-2.83-2.29-6.6-2.29-11.33v-37.7h9.53zM220.06 179.34c2.14-.27 3.57-1.17 4.3-2.68.41-.83.62-2.03.62-3.59 0-3.19-1.13-5.5-3.38-6.94-2.26-1.44-5.5-2.16-9.7-2.16-4.85 0-8.3 1.32-10.33 3.96-1.13 1.46-1.87 3.63-2.22 6.5h-8.7c.17-6.85 2.39-11.62 6.65-14.3 4.25-2.68 9.2-4.03 14.81-4.03 6.52 0 11.81 1.25 15.88 3.73 4.03 2.49 6.05 6.35 6.05 11.6v31.95c0 .97.2 1.74.6 2.33.4.58 1.23.88 2.5.88a22.32 22.32 0 003.05-.31v6.88c-1.44.42-2.54.68-3.3.78-.76.1-1.8.16-3.1.16-3.22 0-5.55-1.14-7-3.42-.76-1.2-1.3-2.92-1.6-5.13-1.9 2.49-4.63 4.64-8.18 6.47a25.32 25.32 0 01-11.76 2.75c-5.14 0-9.34-1.56-12.6-4.68a15.54 15.54 0 01-4.9-11.72c0-5.13 1.6-9.11 4.82-11.94 3.2-2.83 7.42-4.57 12.63-5.22l14.86-1.87zm-19.62 25.18a10.96 10.96 0 006.99 2.33c3.28 0 6.45-.76 9.53-2.28 5.17-2.51 7.76-6.63 7.76-12.35v-7.5c-1.14.73-2.6 1.34-4.4 1.82-1.78.49-3.54.83-5.26 1.04l-5.63.72c-3.38.45-5.92 1.16-7.62 2.12-2.88 1.62-4.32 4.2-4.32 7.75 0 2.68.98 4.8 2.95 6.35z"/><path fill="#929292" d="M159.45 308l-.12-3.54c4.37-.15 8.77-.5 13.09-1.02l.43 3.5c-4.42.55-8.93.9-13.4 1.06zm-13.44-.11c-4.46-.23-8.96-.66-13.37-1.27l.48-3.5c4.32.6 8.71 1.01 13.07 1.24l-.18 3.53zm40.1-3.15l-.74-3.46c4.27-.9 8.54-2.01 12.7-3.29l1.04 3.38c-4.26 1.3-8.64 2.44-13 3.37zm-66.69-.55c-4.35-1-8.7-2.2-12.95-3.58l1.09-3.36c4.14 1.34 8.4 2.52 12.65 3.5l-.79 3.44zm92.36-7.31l-1.33-3.28c4.04-1.63 8.06-3.47 11.94-5.46l1.6 3.15a154.5 154.5 0 01-12.21 5.59zm-117.91-.98c-4.1-1.74-8.19-3.69-12.13-5.79L83.4 287c3.85 2.05 7.84 3.96 11.85 5.66l-1.38 3.25zm141.81-11.24l-1.87-3c3.7-2.31 7.33-4.82 10.81-7.45l2.13 2.82a155.53 155.53 0 01-11.06 7.63zm-165.52-1.38a155.47 155.47 0 01-10.95-7.8l2.18-2.8c3.44 2.7 7.04 5.26 10.7 7.64l-1.93 2.96zm186.95-14.8l-2.36-2.63c3.24-2.92 6.39-6.02 9.36-9.2l2.59 2.4a156.03 156.03 0 01-9.59 9.43zM49 266.74a156.13 156.13 0 01-9.42-9.57l2.62-2.37a152.2 152.2 0 009.21 9.36l-2.4 2.58zm226.44-17.9l-2.78-2.18c2.69-3.44 5.25-7.03 7.63-10.69l2.97 1.93a155.5 155.5 0 01-7.82 10.94zM31 246.8a155.1 155.1 0 01-7.63-11.06l3-1.88c2.31 3.69 4.82 7.32 7.45 10.8L31 246.81zm259.08-20.49l-3.12-1.66c2.05-3.85 3.96-7.84 5.67-11.85l3.25 1.38c-1.75 4.11-3.7 8.2-5.8 12.13zm-273.34-2.26a154.2 154.2 0 01-5.6-12.21l3.28-1.33c1.64 4.03 3.47 8.05 5.46 11.93l-3.14 1.61zm283.85-22.46l-3.36-1.1c1.34-4.14 2.52-8.4 3.5-12.65l3.45.8c-1 4.35-2.21 8.7-3.59 12.95zM6.64 199.18c-1.3-4.27-2.44-8.64-3.37-13l3.46-.74c.9 4.26 2.01 8.54 3.3 12.7l-3.39 1.04zm299.97-23.75l-3.5-.49c.6-4.3 1.02-8.7 1.25-13.07l3.53.18a155.5 155.5 0 01-1.28 13.38zM1.05 172.92c-.54-4.42-.9-8.93-1.05-13.4l3.53-.12c.16 4.36.5 8.77 1.03 13.09l-3.5.43zm303.42-24.18c-.16-4.36-.5-8.76-1.03-13.1l3.5-.42c.55 4.43.9 8.94 1.06 13.4l-3.53.12zM3.63 146.26L.1 146.1c.23-4.47.65-8.97 1.26-13.38l3.5.48c-.6 4.31-1 8.71-1.23 13.07zm297.64-23.57c-.9-4.27-2.01-8.54-3.29-12.72l3.38-1.03a154.6 154.6 0 013.37 13.02l-3.46.73zM7.23 120.28l-3.44-.79c1-4.35 2.2-8.7 3.57-12.95l3.36 1.08c-1.34 4.15-2.52 8.4-3.49 12.66zM293.6 97.59a151.57 151.57 0 00-5.45-11.95l3.15-1.6c2.02 3.97 3.9 8.09 5.57 12.23l-3.27 1.32zM15.3 95.32l-3.25-1.38c1.74-4.11 3.69-8.2 5.79-12.14l3.12 1.66a150.53 150.53 0 00-5.66 11.86zm12.32-23.18l-2.96-1.92c2.43-3.75 5.05-7.43 7.8-10.95l2.79 2.18a152 152 0 00-7.63 10.7zm16.15-20.69l-2.58-2.4c3.04-3.27 6.26-6.44 9.57-9.44l2.37 2.63a152.32 152.32 0 00-9.36 9.21zm19.48-17.58l-2.13-2.82c3.56-2.7 7.28-5.27 11.05-7.64l1.88 3a151.6 151.6 0 00-10.8 7.46zM236 27.73l-.19-.13 1.92-2.96.19.12-1.92 2.97zm-11.51-6.78a151.14 151.14 0 00-11.87-5.63l1.38-3.26c4.11 1.74 8.2 3.68 12.14 5.77l-1.65 3.12zM85.48 19.91l-1.62-3.14a153.9 153.9 0 0112.22-5.6l1.33 3.27a150.55 150.55 0 00-11.93 5.47zm114.83-9.17a151.1 151.1 0 00-12.66-3.5l.8-3.44c4.34 1 8.7 2.2 12.95 3.57l-1.09 3.37zm-90.53-.7l-1.04-3.38a153.7 153.7 0 0113-3.38l.75 3.46c-4.27.91-8.55 2.02-12.71 3.3zm64.95-5.17c-4.32-.6-8.72-1.02-13.07-1.24l.18-3.53c4.46.23 8.96.65 13.38 1.27l-.49 3.5zm-39.3-.3l-.43-3.5c4.42-.55 8.93-.91 13.4-1.07l.12 3.53c-4.37.16-8.77.5-13.09 1.04z"/></svg>