<svg xmlns="http://www.w3.org/2000/svg" fill="none" viewBox="0 0 308 321"><defs/><path fill="#4D514E" d="M197.44 144.72s1.63 2.44 5.69 2.44c4.6 0 12.3-2.98 24.63-16.1 0 0-13.13 29.92-40.19 46.03l-14.9-12.6-.4-.27-16.24 17.33s-36.8-3.25-52.23-25.58c0 0 2.43.94 5 .94 3.12.13 6.5-1.08 6.5-6.22V98.02a5.6 5.6 0 00-5.95-5.7c-3.66.15-8.93 2.58-16.11 9.9-15.02 15.56-21.11 30.45-21.11 30.45S67.8 111.3 90.4 85.3c22.6-25.99 39.65-35.47 57.92-40.34 0 0-14.48 8.52-14.48 21.25 0 3.79.54 6.23 1.35 8 1.09 2.15 2.71 2.97 4.2 2.97 1.22 0 2.44-.54 3.38-1.22v69.18s.4 1.09 1.35 2.44a10.3 10.3 0 008.4 4.2c7.17 0 16.5-8.27 16.5-8.27V87.47c0-5.69-4.19-12.6-8.52-14.9 0 0 9.2-.53 13.67 2.98 0 0 15.15-18.28 43.03-23.82 0 0-14.88 17.73-19.62 26.53-.81.13-.95 16.65-.81 33.3.13 15.98.4 32.1.67 33.17z"/><path fill="#4D514E" d="M41.28 113.45C41.28 50.83 91.53.09 153.7 0h.35c62.02.1 112.27 50.83 112.14 113.45 0 62.7-50.34 113.46-112.46 113.46-62.11 0-112.45-50.77-112.45-113.46zm188.64-76.63a106.1 106.1 0 00-76.05-31.8 105.89 105.89 0 00-76.06 31.8 108.64 108.64 0 00-31.52 76.77c0 28.97 11.22 56.32 31.52 76.77a106.14 106.14 0 0076.06 31.81c28.7 0 55.75-11.37 76.05-31.81a108.65 108.65 0 0031.54-76.77 108.4 108.4 0 00-31.54-76.77zM96.63 298.53H72.95v22.06h24.08v-5.01H79.44v-3.78h16.23v-4.6H79.44v-3.8h17.19v-4.87zM129.65 298.53h-6.36v16.65h-.14l-12.58-16.65h-9.89v22.06h6.36v-16.52h.14l12.86 16.52h9.6v-22.06zM148.45 321h.79c1.65 0 3.06-.01 4.35-.13 1.36-.14 2.44-.28 3.4-.55a7.47 7.47 0 002.29-.94 5.32 5.32 0 002.3-3.52c.14-.81.27-1.77.27-2.84v-4.88h-14.61v4.2h8.38v.68c0 .26-.13.67-.13.94 0 .41-.13.54-.27.8-.13.29-.4.42-.67.55-.28.14-.68.14-1.22.27-.41 0-1.09.14-1.76.14h-6.23c-.8 0-1.62-.14-2.16-.27-.54-.14-1.09-.27-1.35-.54a2.16 2.16 0 01-.82-1.08 5.12 5.12 0 01-.27-1.62c-.13-.54-.13-1.36-.13-2.3v-.42c0-.94.13-1.76.13-2.44 0-.67.13-1.22.27-1.62.27-.4.54-.82.82-1.08.26-.14.8-.41 1.35-.55a9.56 9.56 0 012.16-.26H149c1.35 0 2.43 0 3.24.13.81 0 1.49.13 1.9.4.54.14.8.41.95.82.13.27.27.68.27 1.22v.27h6.22v-.81c0-.96 0-1.9-.13-2.57a4.13 4.13 0 00-.67-1.9c-.28-.4-.82-.94-1.37-1.22a5.86 5.86 0 00-2.3-.81c-.8-.13-2.02-.28-3.24-.4-1.22-.14-2.71-.14-4.46-.14h-.96c-2.02 0-3.79 0-5.27.13-1.49.13-2.7.28-3.8.54-1.08.27-1.89.68-2.56 1.22a4.25 4.25 0 00-1.49 1.9c-.27.8-.54 1.75-.68 2.97-.14 1.09-.14 2.44-.14 4.07v.54c0 1.49 0 2.98.14 4.06.14 1.22.27 2.16.68 2.98.27.81.81 1.49 1.49 2.03.67.54 1.48.95 2.57 1.22 1.09.27 2.3.4 3.79.54 1.48.14 3.25.14 5.27.14v.13zM197.04 320.59h9.61v-21.8h-6.23v16.39h-.13l-12.59-16.39h-9.74v21.8h6.22v-16.38h.13l12.73 16.38zM235.6 320.59v-4.87h-17.45v-3.79h16.24v-4.6h-16.24v-3.8h17.05v-4.74h-23.4v21.8h23.8zM0 247.75v24.91c0 1.9.13 3.53.41 5.01.27 1.5.68 2.72 1.35 3.8a9.7 9.7 0 002.7 2.57c1.1.67 2.44 1.22 4.2 1.63 1.76.4 3.8.67 6.09.8 2.44.14 5.14.28 8.25.28h1.5c3.1 0 5.82-.14 8.26-.27 2.29-.14 4.32-.4 6.08-.81 1.63-.41 3.11-.96 4.2-1.63a7.11 7.11 0 002.7-2.57c.68-1.08 1.08-2.3 1.35-3.8.27-1.48.41-3.1.41-5v-24.92H36.14v21.26c0 1.36 0 2.43-.15 3.39-.13.95-.26 1.76-.53 2.44a3.68 3.68 0 01-1.22 1.62c-.54.4-1.35.68-2.17.95-.94.13-2.03.26-3.25.4-1.35.14-2.84.14-4.6.14h-.94c-1.76 0-3.39 0-4.6-.13-1.36 0-2.44-.15-3.25-.41a6.36 6.36 0 01-2.17-.96 3.6 3.6 0 01-1.21-1.61 10.4 10.4 0 01-.55-2.44c-.13-.96-.13-2.03-.13-3.38v-21.27H0zM55.07 286.34h11.1v-28.83h.27l22.33 28.83h16.92v-38.59H94.6v28.85h-.13l-22.2-28.85H55.07v38.6zM148.05 286.34h10.96v-6.08c0-1.77-.14-3.12-.27-4.2a5.42 5.42 0 00-.95-2.71 5.64 5.64 0 00-2.02-1.5c-.96-.26-2.04-.54-3.4-.8v-.28a9.4 9.4 0 003.12-1.21 7.08 7.08 0 002.03-2.03c.54-.82.95-1.9 1.22-2.98.27-1.09.4-2.44.4-3.93v-1.36c0-2.16-.27-4.06-.67-5.54a6.8 6.8 0 00-2.44-3.66c-1.08-.81-2.7-1.49-4.73-1.9-2.04-.4-4.6-.54-7.71-.54h-30.05v38.59h11.23v-10.7h11.37c1.76 0 3.38.13 4.6.13 1.35.14 2.44.28 3.25.42.95.26 1.63.4 2.16.8.54.28.95.81 1.23 1.36.27.54.4 1.22.53 2.04.14.94.14 1.88.14 2.97v3.11zm-4.33-19.22c-1.22.13-2.85.13-4.74.13H124.9V256.3h14.21c1.89 0 3.38 0 4.6.13a6.6 6.6 0 012.7.68c.68.27 1.1.8 1.23 1.48.13.68.26 1.63.26 2.72v.68c0 1.08-.13 2.02-.26 2.7a3.7 3.7 0 01-1.22 1.63c-.68.4-1.49.68-2.7.8zM166.6 247.75v38.6h42.08v-8.8h-30.72v-6.64h28.41v-8.13h-28.4v-6.5H208v-8.53h-41.4zM210.98 286.34h12.17l3.53-6.9h24.08l3.53 6.9h12.31l-20.98-38.59h-13.94l-20.7 38.6zm27.87-30.6l7.85 15.57h-15.96l7.85-15.56h.26zM270.79 247.75v38.6H308v-8.94h-25.84v-29.66h-11.37zM166.6 298.8h6.49v21.93h-6.5V298.8z"/></svg>