<svg xmlns="http://www.w3.org/2000/svg" fill="none" viewBox="0 0 1366 385"><defs/><g clip-path="url(#clip0)"><rect width="16.8" height="2.6" x="1307.5" y="119.4" fill="#B191FF" rx="1.3" transform="rotate(-43.4 1307.5 119.4)"/><rect width="16.8" height="2.6" x="1319.3" y="121.5" fill="#B191FF" rx="1.3" transform="rotate(-133.4 1319.3 121.5)"/><rect width="16.8" height="2.6" x="1088.8" y="313.4" fill="#B191FF" rx="1.3" transform="rotate(-43.4 1088.8 313.4)"/><rect width="16.8" height="2.6" x="1100.6" y="315.5" fill="#B191FF" rx="1.3" transform="rotate(-133.4 1100.6 315.5)"/><rect width="16.8" height="2.6" x="186" y="351" fill="#AE8DFF" rx="1.3" transform="rotate(-43.4 186 351)"/><rect width="16.8" height="2.6" x="197.8" y="353.1" fill="#AE8DFF" rx="1.3" transform="rotate(-133.4 197.8 353.1)"/><rect width="16.8" height="2.6" x="832.8" y="219.4" fill="#9A71FF" rx="1.3" transform="rotate(-43.4 832.8 219.4)"/><rect width="16.8" height="2.6" x="844.6" y="221.5" fill="#9A71FF" rx="1.3" transform="rotate(-133.4 844.6 221.5)"/><rect width="16.8" height="2.6" x="384.8" y="16.8" fill="#A27CFF" rx="1.3" transform="rotate(-43.4 384.8 16.8)"/><rect width="16.8" height="2.6" x="396.6" y="19" fill="#A27CFF" rx="1.3" transform="rotate(-133.4 396.6 19)"/><path stroke="#B587FD" stroke-width="2" d="M688 29.2h16.3v16.3H688z"/><path stroke="#54DEFF" stroke-width="2" d="M134 30.8h16.3v16.3H134z"/><path stroke="#A164FF" stroke-width="2" d="M126.4 140.9l6.7-6.6 6.6 6.6-6.6 6.7zM1256.4 165.9l6.7-6.6 6.6 6.6-6.6 6.6z"/><path stroke="#FFC43F" stroke-width="2" d="M428.4 236.9l6.7-6.6 6.6 6.6-6.6 6.7z"/><path stroke="#43DAFF" stroke-width="2" d="M930.4 37.9l6.7-6.6 6.6 6.6-6.6 6.7z"/><path stroke="#9C70FF" stroke-width="2" d="M1126.2 179.2l15.6 14.8-14.7 15.6-15.6-14.7z"/><path stroke="#A47BFF" stroke-width="2" d="M311.2 150.6l15.7 14.8L312 181l-15.6-14.7z"/><path stroke="#FF6D79" stroke-width="2" d="M1035 113.3V91.8h21.5v21.5z"/><path stroke="#FF5160" stroke-width="2" d="M37.9 340v-11.2H49V340z"/><path stroke="#FFBD29" stroke-width="2" d="M1258.7 248.7l32.6 15.3-29.6 20.6-3-36z"/><path stroke="#FFB91B" stroke-width="2" d="M523 346.9l11 .2-5.7 9.5-5.4-9.7z"/><path fill="#FFC124" d="M217.8 85.7l20 12.2-20.5 11.2.5-23.4z"/><path stroke="#41DBFF" stroke-width="2" d="M754.3 367l.5-20 17 10.4-17.5 9.5z"/><path stroke="#FFC648" stroke-width="2" d="M997 225.5l10-7.1 1.2 12.2-11.2-5z"/><path stroke="#FFC33C" stroke-width="2" d="M55.6 215.2l9.7 11.4-14.8 2.7 5-14.1z"/><circle cx="1204" cy="65.2" r="12.5" stroke="#BF97FF" stroke-width="2"/><circle cx="386.9" cy="359.6" r="12.5" stroke="#F1EDF7" stroke-width="2"/><circle cx="13.5" cy="61.3" r="12.5" stroke="#B282FF" stroke-width="2"/><circle cx="558.7" cy="3.9" r="18.7" fill="#FF6DBC"/><circle cx="878.6" cy="52.4" r="4.6" stroke="#B180FF" stroke-width="2"/><circle cx="895.6" cy="326.2" r="6.4" stroke="#BA8FFF" stroke-width="2"/><circle cx="192" cy="237.8" r="13" fill="#00CFFF"/><circle cx="1122.5" cy="382.3" r="20.5" fill="#FFC124"/><path stroke="#46DBFF" stroke-width="2" d="M1309.4 346.9l6.7-6.6 6.6 6.6-6.6 6.6z"/></g><defs><clipPath id="clip0"><path fill="#fff" d="M0 .8h1366v384H0z"/></clipPath></defs></svg>