<svg xmlns="http://www.w3.org/2000/svg" fill="none" viewBox="0 0 1348 465"><defs/><path fill="#fff" fill-opacity=".06" d="M732.87 544.5l665.03-378v168l-214.5 210H732.87z"/><path fill="#fff" fill-opacity=".06" d="M1397-71L981 465h416V-71z"/><path fill="#fff" fill-opacity=".06" d="M632 476l765-550v364.34L996.98 476H632z"/><path fill="#fff" fill-opacity=".1" fill-rule="evenodd" d="M234 299a80 80 0 100 160 80 80 0 000-160zm-120 80c0-66.27 53.73-120 120-120 66.27 0 120 53.73 120 120 0 66.27-53.73 120-120 120-66.27 0-120-53.73-120-120z" clip-rule="evenodd"/><path fill="#fff" fill-opacity=".05" fill-rule="evenodd" d="M234 205c-96.1 0-174 77.9-174 174s77.9 174 174 174 174-77.9 174-174-77.9-174-174-174zM0 379c0-129.24 104.77-234 234-234 129.24 0 234 104.76 234 234S363.24 613 234 613 0 508.24 0 379z" clip-rule="evenodd"/><path stroke="#fff" stroke-opacity=".04" stroke-width="6" d="M493.64 444.6l1.91-78.77 67.27 41.04-69.18 37.73z"/><path stroke="#fff" stroke-opacity=".04" stroke-width="5" d="M448.38 126.3l7.96 23.8-24.57-5 16.61-18.8zM923.22 109.53l13.48 12.7-12.7 13.46L910.53 123z"/><path stroke="#fff" stroke-opacity=".05" stroke-width="4" d="M312 207.83L322.8 218l-10.18 10.8-10.8-10.17z"/><path stroke="#fff" stroke-opacity=".05" stroke-width="5" d="M505.32-5.47l18.88 17.78-17.78 18.88-18.88-17.78z"/><path stroke="#fff" stroke-opacity=".04" stroke-width="5" d="M1070.59 259.32l-27.54-32.01 41.15-9.46-13.61 41.47z"/><path stroke="#fff" stroke-opacity=".07" stroke-width="5" d="M13.43 41.24l24.01-7.27-5.71 24.42-18.3-17.15z"/></svg>