<svg xmlns="http://www.w3.org/2000/svg" fill="none" viewBox="0 0 1210 645"><defs/><path fill="#fff" fill-opacity=".06" fill-rule="evenodd" d="M887.5 40C731.48 40 605 166.48 605 322.5 605 478.52 731.48 605 887.5 605c156.02 0 282.5-126.48 282.5-282.5C1170 166.48 1043.52 40 887.5 40zM565 322.5C565 144.39 709.39 0 887.5 0S1210 144.39 1210 322.5 1065.61 645 887.5 645 565 500.61 565 322.5z" clip-rule="evenodd"/><circle cx="886.5" cy="323.5" r="209.5" fill="#fff" fill-opacity=".12"/><path stroke="#fff" stroke-opacity=".2" d="M68.87 552.84a5 5 0 00-5.08-.13l-8.1 4.5c-1.8 1.02-4.03.83-5.62-.5a129.3 129.3 0 01-11.03-10.2 129.36 129.36 0 01-9.53-11.6 4.98 4.98 0 01-.17-5.64l4.97-7.82a5.01 5.01 0 00.17-5.1L23.4 496.07a5.03 5.03 0 00-5.48-2.5c-2.13.45-4.9 1.62-7.86 4.41-9.26 8.73-14.48 23.76 18.34 58.57 32.82 34.82 48.14 30.49 57.4 21.76 2.96-2.8 4.29-5.5 4.87-7.6a5 5 0 00-2.17-5.6l-19.63-12.27h0zM336.14 79.57l2.6-5.91 70.81 31.2L456 125.32l-2.6 5.9-16.33 4.93h0-.01l-15.88 5.1s0 0 0 0l-38.4 11.93c-4.45 1.38-7.76.28-8.95-.25-1.19-.52-4.23-2.22-6.21-6.43L341 89.92l-4.87-10.35zm48.46 79.5h0l11.7-3.65 25.4 47.73-2.79 6.34-117.25-51.67 2.75-6.23 52.4-13.57 2.39 5.07 2.83 6.02h0a19.08 19.08 0 009.3 9.46c1.87.82 6.85 2.49 13.27.5zm-51.75-72.03l8.19 17.43 13.1 27.87-46.57 12.06 25.28-57.36zm92.02 108.93l-22.57-42.4 47.8-14.86-25.23 57.26zM455.94 495.52l.1-.3-.25-.22c-10.03-8.72-16.29-20.95-16.29-34.54 0-26.44 23.6-47.96 52.8-47.96 26.58 0 48.47 17.83 52.2 40.96a53.37 53.37 0 00-18.27-3.2c-26.95 0-48.96 19.75-48.96 44.13 0 4.34.71 8.55 2.02 12.52a56.66 56.66 0 01-8.54-2.74l-.26-.1-.23.17c-6.33 5-14.25 8.94-23.5 8.97h-.05l-.06.01c-.12.03-.25.05-.38.05a1.92 1.92 0 01-.68-3.72l.1-.04.06-.06c5.62-4.27 8.7-9.07 10.19-13.93zm70.3-34.56h.02c21.19.02 38.24 15.04 38.24 33.42-.02 8.5-3.73 16.67-10.41 22.87l-.27.24.15.33c1.74 3.85 4.64 7.62 9.14 11.04l.06.04.07.03a1.92 1.92 0 01-1.07 3.68l-.05-.01h-.05c-8.11-.03-15.2-3.06-21.09-7.17l-.21-.15-.24.09a43.15 43.15 0 01-14.3 2.44c-21.2 0-38.27-15.03-38.27-33.42 0-18.4 17.07-33.43 38.27-33.43z"/></svg>