<svg xmlns="http://www.w3.org/2000/svg" fill="none" viewBox="0 0 1086 906"><defs/><path fill="#fff" fill-opacity=".08" fill-rule="evenodd" d="M635 259c-108.25 0-196 87.75-196 196s87.75 196 196 196 196-87.75 196-196-87.75-196-196-196zM399 455c0-130.34 105.66-236 236-236s236 105.66 236 236-105.66 236-236 236-236-105.66-236-236z" clip-rule="evenodd"/><circle cx="634.5" cy="455.5" r="149.5" fill="#fff" fill-opacity=".12"/><path fill="#fff" fill-opacity=".05" fill-rule="evenodd" d="M635 150c-168.45 0-305 136.55-305 305s136.55 305 305 305 305-136.55 305-305-136.55-305-305-305zM270 455c0-201.58 163.42-365 365-365s365 163.42 365 365-163.42 365-365 365-365-163.42-365-365z" clip-rule="evenodd"/><circle cx="635" cy="453" r="450" stroke="#fff" stroke-opacity=".05" stroke-width="6"/><path fill="#fff" fill-opacity=".05" fill-rule="evenodd" d="M113.4 96.57C43.14 198.42 2 321.9 2 455c0 110.4 28.31 214.2 78.07 304.52l-1.75.96C28.4 669.88 0 565.75 0 455 0 321.49 41.27 197.6 111.75 95.43l1.65 1.14z" clip-rule="evenodd"/></svg>