<svg xmlns="http://www.w3.org/2000/svg" fill="none" viewBox="0 0 1366 584"><defs/><path stroke="#fff" stroke-opacity=".1" stroke-width="2" d="M1437 524.5l-60-5.3c-60-5.7-180-15.7-300-10.7s-240 27-360 16-240-53-360-85.3c-120-31.7-240-53.7-300-64l-60-10.7"/><path stroke="#fff" stroke-opacity=".2" d="M-3 566.79l60-5.3c60-5.7 180-15.7 300-42.7 120-27 240-69 360-85.3 120-15.7 240-5.7 360 0 120 5.3 240 5.3 300 5.3h60"/><path stroke="#fff" stroke-opacity=".05" stroke-width="2" d="M1446 224.5l-60-10.7c-60-10.3-180-32.3-300-58.6-120-26.7-240-58.7-360-69.4-120-10.3-240-.3-360 21.4-145.92 26.39-240 53.3-300 69.3l-78.5 21.62"/><path stroke="#fff" stroke-opacity=".1" stroke-width="2" d="M-3 67.63l60-5.3c60-5.7 180-15.7 300 16 120 32.3 240 106.3 360 101.3s240-91 360-122.7c120-32.3 240-10.3 300 0l60 10.7"/><path stroke="#fff" stroke-opacity=".4" d="M-3 400.9l60 42.7c60 42.3 180 128.3 300 138.6 120 10.7 240-53.3 360-96 120-42.3 240-64.3 360-74.6 120-10.7 240-10.7 300-10.7h60"/><path stroke="#fff" stroke-opacity=".3" d="M-3 183.72l60-42.7c60-42.3 180-128.3 300-138.6 120-10.7 240 53.3 360 58.6 120 5.7 240-48.3 360-53.3s240 37 300 58.7l60 21.3"/></svg>