<svg xmlns="http://www.w3.org/2000/svg" fill="none" viewBox="0 0 1366 550"><defs/><path fill="url(#paint0_linear)" d="M-18 262l30 26.7C42 315 102 369 162 374s120-37 180-21.3c60 16.3 120 90.3 180 80C582 422 642 326 702 310s120 48 180 69.3c60 21.7 120-.3 180-32 60-32.3 120-74.3 180-80 60-5.3 120 26.7 150 42.7l30 16v224H-18V262z"/><path fill="url(#paint1_linear)" d="M1422 221.7l-26.7-42.7C1368.7 136.7 1315 50.7 1262 40.4c-53.3-10.7-107 53.3-160 80-53.3 26.3-107 16.3-160-10.7-53.3-27-107-69-160-85.3-53.3-15.7-107-5.7-160 21.3-53.3 27-107 69-160 96-53.3 27-107 37-160 0-53.3-37-107-123-160-138.7C88.7-13.3 35 40.7 9 67l-27 26.7v326h1440v-198z"/><defs><linearGradient id="paint0_linear" x1="702" x2="702" y1="262" y2="550" gradientUnits="userSpaceOnUse"><stop stop-color="#fff" stop-opacity=".15"/><stop offset="1" stop-color="#fff" stop-opacity="0"/></linearGradient><linearGradient id="paint1_linear" x1="702" x2="702" y1="0" y2="419.71" gradientUnits="userSpaceOnUse"><stop stop-color="#fff" stop-opacity=".07"/><stop offset="1" stop-color="#fff" stop-opacity="0"/></linearGradient></defs></svg>