<?xml version="1.0" encoding="utf-8"?><svg xmlns="http://www.w3.org/2000/svg" xmlns:xlink="http://www.w3.org/1999/xlink"><symbol viewBox="0 0 20 23" id="icon-active-session" xmlns="http://www.w3.org/2000/svg"><path d="M3 0l-.15.01H1.01A1 1 0 00.14.5a.92.92 0 000 .96 1 1 0 00.87.48h1v1.91c0 4.42 3.1 6.75 4.46 7.66-1.35.9-4.46 3.24-4.46 7.66v1.91h-1a1 1 0 00-.87.48.92.92 0 000 .96A1 1 0 001 23h18a1 1 0 00.87-.48.92.92 0 000-.96 1 1 0 00-.87-.48h-1v-1.91c0-4.42-3.1-6.75-4.46-7.66 1.35-.9 4.46-3.24 4.46-7.66V1.93h1a1 1 0 00.87-.48.92.92 0 000-.96A1 1 0 0019 0h-1.85a1.04 1.04 0 00-.31 0H3zm1.1 4.8h11.8c-.6 3.6-4.42 5.88-4.42 5.88a.95.95 0 00-.48.82c0 .34.18.65.48.82 0 0 3.81 2.28 4.42 5.88h-2.05A3.96 3.96 0 0010 15.33a3.96 3.96 0 00-3.85 2.87H4.1c.6-3.6 4.42-5.88 4.42-5.88.3-.17.48-.48.48-.82a.95.95 0 00-.48-.82S4.7 8.4 4.1 4.8z"/></symbol><symbol viewBox="0 0 64 65" id="icon-arrow-next" xmlns="http://www.w3.org/2000/svg"><path fill-rule="evenodd" d="M62 32.5a30 30 0 11-60 0 30 30 0 0160 0zm2 0a32 32 0 11-64 0 32 32 0 0164 0zM25.5 21.3L45 32.5 25.5 43.7V21.3zm2 3.5L41 32.5l-13.4 7.7V24.8z" clip-rule="evenodd"/></symbol><symbol viewBox="0 0 64 65" id="icon-arrow-previous" xmlns="http://www.w3.org/2000/svg"><path fill-rule="evenodd" d="M62 32.5a30 30 0 11-60 0 30 30 0 0160 0zm2 0a32 32 0 11-64 0 32 32 0 0164 0zM37.6 21.3L18.3 32.5l19.3 11.2V21.3zm-2 3.5l-13.3 7.7 13.3 7.7V24.8z" clip-rule="evenodd"/></symbol><symbol viewBox="0 0 38 38" id="icon-arrow-right" xmlns="http://www.w3.org/2000/svg"><path fill-rule="evenodd" d="M21.05 29.62a1.58 1.58 0 010-2.24l6.8-6.8H6.32a1.58 1.58 0 010-3.16h21.51l-6.8-6.8a1.58 1.58 0 012.25-2.24l9.5 9.5c.3.3.46.7.46 1.11v.02a1.58 1.58 0 01-.47 1.11l-9.5 9.5c-.61.62-1.61.62-2.23 0z" clip-rule="evenodd"/><mask id="ada" width="30" height="24" x="4" y="7" maskUnits="userSpaceOnUse"><path fill-rule="evenodd" d="M21.05 29.62a1.58 1.58 0 010-2.24l6.8-6.8H6.32a1.58 1.58 0 010-3.16h21.51l-6.8-6.8a1.58 1.58 0 012.25-2.24l9.5 9.5c.3.3.46.7.46 1.11v.02a1.58 1.58 0 01-.47 1.11l-9.5 9.5c-.61.62-1.61.62-2.23 0z" clip-rule="evenodd"/></mask><g mask="url(#ada)"><path d="M0 0h38v38H0z"/></g></symbol><symbol viewBox="0 0 22 28" id="icon-arrow-up" xmlns="http://www.w3.org/2000/svg"><path d="M10.55 0c-.4 0-.8.16-1.12.47L.46 9.44a1.58 1.58 0 000 2.24l.14.14c.62.62 1.62.62 2.24 0l6.13-6.13V26.4a1.59 1.59 0 003.17 0V5.7l6.13 6.13c.62.62 1.62.62 2.24 0l.14-.14c.62-.62.62-1.62 0-2.24L11.68.47C11.37.16 10.96 0 10.55 0z"/></symbol><symbol viewBox="0 0 22 24" id="icon-billing" xmlns="http://www.w3.org/2000/svg"><path d="M19.56 0c0 .66-.55 1.2-1.23 1.2-.67 0-1.22-.54-1.22-1.2h-2.44c0 .66-.55 1.2-1.23 1.2-.67 0-1.22-.54-1.22-1.2H9.78c0 .66-.55 1.2-1.22 1.2-.68 0-1.23-.54-1.23-1.2H4.9c0 .66-.55 1.2-1.22 1.2C3 1.2 2.45.66 2.45 0H1.22C.55 0 0 .54 0 1.2v20.4C0 22.93 1.1 24 2.44 24h17.12A2.42 2.42 0 0022 21.6V1.2c0-.66-.55-1.2-1.22-1.2h-1.22zm-7.34 19.2H4.9c-.68 0-1.22-.54-1.22-1.2 0-.66.54-1.2 1.22-1.2h7.33c.68 0 1.22.54 1.22 1.2 0 .66-.54 1.2-1.22 1.2zm0-4.8H4.9c-.68 0-1.22-.54-1.22-1.2 0-.66.54-1.2 1.22-1.2h7.33c.68 0 1.22.54 1.22 1.2 0 .66-.54 1.2-1.22 1.2zm5.5 4.8H16.5a.6.6 0 01-.61-.6v-1.2c0-.33.27-.6.61-.6h1.22a.6.6 0 01.61.6v1.2a.6.6 0 01-.6.6zm0-4.8H16.5a.6.6 0 01-.61-.6v-1.2c0-.33.27-.6.61-.6h1.22a.6.6 0 01.61.6v1.2a.6.6 0 01-.6.6zm-.6-6H4.88c-.68 0-1.22-.54-1.22-1.2 0-.66.54-1.2 1.22-1.2H17.1c.68 0 1.22.54 1.22 1.2 0 .66-.54 1.2-1.22 1.2z"/></symbol><symbol viewBox="0 0 18 19" id="icon-calendar" xmlns="http://www.w3.org/2000/svg"><path d="M15.43 18.4H1.92A1.91 1.91 0 010 16.5V3.17c0-1.04.86-1.9 1.92-1.9h13.51c1.06 0 1.92.86 1.92 1.9V16.5a1.9 1.9 0 01-1.92 1.9zM1.92 2.32a.85.85 0 00-.86.84V16.5c0 .47.39.85.86.85h13.51c.47 0 .86-.38.86-.85V3.16a.85.85 0 00-.86-.84H1.92z"/><path d="M12.55 4.1a.4.4 0 01-.4-.4V.9c0-.22.17-.4.4-.4s.4.18.4.4v2.8a.4.4 0 01-.4.4zm-7.8 0a.4.4 0 01-.4-.4V.9a.4.4 0 01.82 0v2.8a.4.4 0 01-.41.4zm4.42 9.02A3.05 3.05 0 016.1 10.1a3.07 3.07 0 015.13-2.24c.07.06.07.17 0 .23a.16.16 0 01-.23.01 2.73 2.73 0 00-4.56 2 2.73 2.73 0 004.56 2 .17.17 0 01.24 0c.06.07.05.18-.01.24-.57.51-1.3.8-2.06.8z"/><path fill-rule="evenodd" d="M3.85.9a.9.9 0 011.82 0v2.8a.9.9 0 01-.91.91.9.9 0 01-.9-.9V.9zm7.8 0a.9.9 0 011.82 0v2.8a.9.9 0 01-1.83 0V.9zm-1 7.56a2.23 2.23 0 00-3.71 1.63 2.24 2.24 0 003.73 1.62v-.01a.67.67 0 01.93.05l.01.01c.23.27.23.68-.05.93a3.55 3.55 0 01-5.96-2.6 3.57 3.57 0 015.96-2.62c.27.25.3.68.04.96a.66.66 0 01-.94.03z" clip-rule="evenodd"/></symbol><symbol viewBox="0 0 22 22" id="icon-check-in-out" xmlns="http://www.w3.org/2000/svg"><path d="M9.8 16.4L4 10.6 5.8 9l4 4L21.6 1.1a2.4 2.4 0 00-2-1.1H2.4C1.1 0 0 1 0 2.4v17.2C0 20.9 1 22 2.4 22h17.2c1.3 0 2.4-1 2.4-2.4V4.2L9.8 16.4z"/></symbol><symbol viewBox="0 0 98 80" id="icon-comprehensive-curricula" xmlns="http://www.w3.org/2000/svg"><path d="M97.8 22.9L88 1c-.3-.6-1-1-1.7-1H62.2c-.8 0-1.5.5-1.7 1.3L58 9h-5.9c-.8 0-1.5.6-1.7 1.4l-.1.4L42.9.7C42.6.3 42 0 41.5 0H20c-.8 0-1.5.5-1.7 1.3L0 59.3v.7c0 .6.3 1.1.8 1.5l13 17.8c.3.4.8.7 1.4.7h22.1l.2-.1.3-.2.1-.1.4-.4V79l6.1-12 1 1.2c.1.3.3.5.6.6l.7.2h4.6l7.3 10.2c.3.4.9.7 1.5.7h23.5l.6-.1.2-.1s.2 0 .3-.2l.4-.5.3-.3L98 24.1c0-.4 0-.8-.2-1.2zM63.5 3.6h20.3l-5.6 20.2-.8-.2h-12l3-12.3c0-.5 0-1-.4-1.5-.3-.5-.8-.7-1.4-.7h-4.8l1.7-5.5zM53 15.6l.7-2.9h10.7l-2.7 11H51l2-8.2zm-12.6-12h.3l8.6 11.9-2 8.1h-5.5l1.5-8.8c0-.5 0-1-.4-1.4-.4-.4-.9-.7-1.4-.7h-3.7l2.6-9zm-19 0h15.2L34 12.7H18.4l2.9-9zm-4 12.8h22l-1.5 8.8c0 .5.1 1 .4 1.4.4.4.9.7 1.4.7h37.7l-8.5 30.9h-16l6.5-21.3c.2-.6 0-1.2-.2-1.6-.4-.5-1-.8-1.5-.8h-9c-.8 0-1.5.6-1.7 1.3l-4 13.3h-6l2.6-12.4c0-.5 0-1-.4-1.5-.3-.4-.9-.7-1.4-.7h-7.6a1.8 1.8 0 00-1.2 1l-.1.4-2.4 7.7h-8l1-3.9c.2-.8 0-1.6-.5-2.3-.5-.7-1.3-1-2.1-1H11l6.3-20zm8.1 30.9l-1.1 3.6h-7.6l1-3.6h7.7zM9.9 40h5.8l-1 3.9v1l-.4.8-1.4 5.5c-.2.8 0 1.6.5 2.3.5.7 1.3 1 2.2 1h7.6L22 58.2H4L10 40zM16 76.4L5.5 61.8h17l10.7 14.6H16.1zm20.4-1.7l-11.1-15 6.5-21.5h3.7L33 50.5v.8c0 .3.1.5.3.7L42 63.8l-5.5 11zM61 76.4l-7.3-10.2c-.4-.5-1-.7-1.5-.7h-4.5l-2.1-3-7.2-9.8h5.8c.8 0 1.5-.5 1.7-1.2l4-13.3h5.3l-6.5 21.3c-.2.5 0 1.1.3 1.6.3.4.8.7 1.4.7h19L80 76.4H61zm21.7-2.5L72.2 59.6 86.6 6.9l7.7 17-11.6 50z"/></symbol><symbol viewBox="0 0 38 38" id="icon-content" xmlns="http://www.w3.org/2000/svg"><path d="M.58.58v4.1h36.84V.58H.58zm4.1 8.19a4.1 4.1 0 00-4.1 4.1v4.08a4.1 4.1 0 004.1 4.1h4.09a4.1 4.1 0 004.1-4.1v-4.09a4.1 4.1 0 00-4.1-4.1h-4.1zm12.27 0v4.1h20.47v-4.1H16.95zm-12.27 4.1h4.09v4.08h-4.1v-4.09zm12.27 4.08v4.1h14.33v-4.1H16.95zM4.68 25.14a4.1 4.1 0 00-4.1 4.1v4.08a4.1 4.1 0 004.1 4.1h4.09a4.1 4.1 0 004.1-4.1v-4.09a4.1 4.1 0 00-4.1-4.1h-4.1zm12.27 0v4.1h20.47v-4.1H16.95zm-12.27 4.1h4.09v4.08h-4.1v-4.09zm12.27 4.08v4.1h14.33v-4.1H16.95z"/></symbol><symbol viewBox="0 0 103 83" id="icon-creative-tools" xmlns="http://www.w3.org/2000/svg"><path fill-rule="evenodd" d="M97.06 71.14v-49.4a5.94 5.94 0 00-5.94-5.93H43.58V5.93A5.94 5.94 0 0037.63 0H5.94A5.94 5.94 0 000 5.93v23.71a5.94 5.94 0 005.94 5.93h7.93v35.57H7.92v5.93A5.94 5.94 0 0013.87 83h83.19a5.94 5.94 0 005.94-5.93v-5.93h-5.94zM25.75 35.57h11.88a5.94 5.94 0 005.95-5.93v-1.97h41.6v35.57H25.74V35.57zM3.96 29.64V5.93c0-1.1.89-1.98 1.98-1.98h31.7c1.09 0 1.98.89 1.98 1.98v23.71c0 1.1-.9 1.98-1.99 1.98H5.94c-1.1 0-1.98-.89-1.98-1.98zm13.87 5.93h3.96V67.2h67.34V27.67a3.96 3.96 0 00-3.96-3.96h-41.6v-3.95h47.55c1.09 0 1.98.89 1.98 1.98v49.4H17.83V35.57zm81.2 41.5c0 1.1-.88 1.98-1.97 1.98h-83.2c-1.09 0-1.98-.89-1.98-1.98V75.1h87.16v1.97zM7.94 23.71h27.72v3.96H7.92V23.7zm27.72-7.9H7.92v3.95h27.73v-3.95zM7.92 7.9h27.73v3.95H7.92V7.9zm73.3 25.69v9.88l-11.9-11.86h9.91c1.1 0 1.98.88 1.98 1.98z" clip-rule="evenodd"/></symbol><symbol viewBox="0 0 24 24" id="icon-date" xmlns="http://www.w3.org/2000/svg"><path fill-rule="evenodd" d="M1 1h4.89v4.89H1V1zm0 8.56h4.89v4.88H1V9.56zM14.44 1H9.56v4.89h4.88V1zM9.56 9.56h4.88v4.88H9.56V9.56zM23 1h-4.89v4.89H23V1zm-4.89 8.56H23v4.88h-4.89V9.56zM5.9 18.1H1V23h4.89v-4.89zm3.67 0h4.88V23H9.56v-4.89zm13.44 0h-4.89V23H23v-4.89z" clip-rule="evenodd"/></symbol><symbol viewBox="0 0 30 30" id="icon-facebook" xmlns="http://www.w3.org/2000/svg"><path d="M15 0a15 15 0 100 30 15 15 0 000-30zm3.7 15.5h-2.4v8.7h-3.6v-8.7H11v-3h1.7v-2c0-1.5.7-3.7 3.6-3.7H19v3h-2c-.3 0-.7.2-.7.8v1.9H19l-.3 3z"/></symbol><symbol viewBox="0 0 26 18" id="icon-family-management" xmlns="http://www.w3.org/2000/svg"><circle cx="6.27" cy="5.12" r="2.84"/><path fill-rule="evenodd" d="M5.03 8.63a4.26 4.26 0 00-4.26 4.26c0 .78.63 1.42 1.42 1.42h3.1a6 6 0 014.27-5.15 4.24 4.24 0 00-2.06-.53H5.03z" clip-rule="evenodd"/><path d="M18.92 4.9a.29.29 0 00-.28.25l-.12 1.1c-.53.2-1.01.47-1.43.83l-1.02-.44a.27.27 0 00-.35.11l-1.03 1.78a.28.28 0 00.08.36l.88.65a4.46 4.46 0 000 1.67l-.88.65a.28.28 0 00-.07.37L15.72 14c.07.12.22.17.35.11l1.02-.44c.42.36.9.64 1.43.83l.12 1.1c.02.14.14.25.28.25h2.05c.14 0 .26-.1.27-.25l.13-1.1c.53-.19 1.01-.47 1.43-.83l1.02.45c.13.05.28 0 .35-.12l1.03-1.77a.28.28 0 00-.08-.37l-.88-.65a4.35 4.35 0 000-1.66l.88-.66a.28.28 0 00.07-.36l-1.02-1.78a.28.28 0 00-.35-.11l-1.02.44c-.42-.36-.9-.64-1.43-.82l-.13-1.1a.28.28 0 00-.27-.25h-2.05zm1.02 3.56a1.91 1.91 0 110 3.83 1.91 1.91 0 010-3.83z"/><path fill-rule="evenodd" d="M17.7 5.76a4 4 0 10-3.89 2.87c0-.16.03-.36.08-.45l1.19-2.06c.13-.14.32-.25.66-.14l.97.42c.33-.29.64-.48 1-.64zm-2.88 3.61a4.95 4.95 0 000 1.83l-.93.72c-.13.1-.17.42-.09.56l1.2 2.06c.07.15.4.3.55.23l1.14-.48c.49.42.79.56 1.4.77l.16 1.35c.02.16.3.28.47.28h2.38a2 2 0 01-1.5.68H8.11a2 2 0 01-2-2 6 6 0 016.01-6h2.7z" clip-rule="evenodd"/></symbol><symbol viewBox="0 0 24 24" id="icon-forum" xmlns="http://www.w3.org/2000/svg"><path fill-rule="evenodd" d="M22.8 4.8h-2.4v10.8H4.8V18c0 .7.5 1.2 1.2 1.2h13.2L24 24V6c0-.7-.5-1.2-1.2-1.2zM18 12V1.2c0-.7-.5-1.2-1.2-1.2H1.2C.5 0 0 .5 0 1.2V18l4.8-4.8h12c.7 0 1.2-.5 1.2-1.2z" clip-rule="evenodd"/></symbol><symbol viewBox="0 0 30 30" id="icon-instagram" xmlns="http://www.w3.org/2000/svg"><path d="M15 18a3 3 0 000-6 3 3 0 000 6zm6.56-6.67v-2.9h-.38l-2.52.01.01 2.9 2.89-.01z"/><path d="M15 0C6.73 0 0 6.73 0 15s6.73 15 15 15 15-6.73 15-15S23.27 0 15 0zm8.53 13.25v6.98a3.3 3.3 0 01-3.3 3.3H9.77a3.3 3.3 0 01-3.3-3.3V9.77a3.3 3.3 0 013.3-3.3h10.46a3.3 3.3 0 013.3 3.3v3.48z"/><path d="M19.67 15a4.67 4.67 0 11-9-1.75H8.14v6.98c0 .9.73 1.64 1.63 1.64h10.47c.9 0 1.64-.74 1.64-1.64v-6.98h-2.55c.22.54.35 1.13.35 1.75z"/></symbol><symbol viewBox="0 0 512 512" id="icon-linkedin" xmlns="http://www.w3.org/2000/svg"><path d="M256 0a256 256 0 100 512 256 256 0 000-512zm-74.4 387h-62.3V199.4h62.3zm-31.2-213.2h-.4c-20.9 0-34.4-14.4-34.4-32.4 0-18.4 14-32.4 35.3-32.4 21.3 0 34.4 14 34.8 32.4 0 18-13.5 32.4-35.3 32.4zm256 213.2h-62.3V286.7c0-25.3-9-42.5-31.6-42.5-17.2 0-27.5 11.6-32 22.8-1.6 4-2 9.6-2 15.2V387H216s.8-170 0-187.6h62.4V226a61.9 61.9 0 0156.1-31c41 0 71.8 26.8 71.8 84.4zm0 0"/></symbol><symbol viewBox="0 0 44 40" id="icon-material" xmlns="http://www.w3.org/2000/svg"><path d="M4.7.5C2.3.5.3 2.5.3 4.8v30.4c0 2.3 2 4.3 4.4 4.3h34.6c2.4 0 4.4-2 4.4-4.3V4.8c0-2.3-2-4.3-4.4-4.3H4.7zm0 4.3h34.6v30.4H4.7V4.8zm10.8 6.5v17.4L30.7 20l-15.2-8.7z"/></symbol><symbol viewBox="0 0 39 39" id="icon-plan" xmlns="http://www.w3.org/2000/svg"><path d="M8.4.58V6.9h3.16V.58H8.4zm18.96 0V6.9h3.16V.58h-3.16zM2.08 5.32C1.21 5.32.5 6.03.5 6.9v4.74c0 .87.71 1.58 1.58 1.58V38.5h34.76V13.22c.87 0 1.58-.7 1.58-1.58V6.9c0-.87-.71-1.58-1.58-1.58H32.1v3.16h-6.32V5.32H13.14v3.16H6.82V5.32H2.08zm3.16 7.9h28.44v22.12H5.24V13.22zm3.16 3.16v3.16h3.16v-3.16H8.4zm6.32 0v3.16h3.16v-3.16h-3.16zm6.32 0v3.16h3.16v-3.16h-3.16zm6.32 0v3.16h3.16v-3.16h-3.16zM8.4 22.7v3.16h3.16V22.7H8.4zm6.32 0v3.16h3.16V22.7h-3.16zm6.32 0v3.16h3.16V22.7h-3.16zm6.32 0v3.16h3.16V22.7h-3.16zM8.4 29.02v3.16h3.16v-3.16H8.4zm6.32 0v3.16h3.16v-3.16h-3.16zm6.32 0v3.16h3.16v-3.16h-3.16zm6.32 0v3.16h3.16v-3.16h-3.16z"/></symbol><symbol viewBox="0 0 14 14" id="icon-question" xmlns="http://www.w3.org/2000/svg"><path fill-rule="evenodd" d="M7 14A7 7 0 117 0a7 7 0 010 14zm1.4-9.1c0 .2-.15.56-.3.7L7 6.7c-.4.41-.7 1.13-.7 1.7v.7h1.4v-.7c0-.2.15-.56.3-.7l1.1-1.1c.4-.41.7-1.13.7-1.7a2.8 2.8 0 10-5.6 0h1.4a1.4 1.4 0 112.8 0zm-2.1 7v-1.4h1.4v1.4H6.3z" clip-rule="evenodd"/></symbol><symbol viewBox="0 0 23 24" id="icon-scheduling" xmlns="http://www.w3.org/2000/svg"><path d="M1.77.65C.79.65 0 1.44 0 2.42v15.92c0 .98.8 1.77 1.77 1.77h9.45A6.2 6.2 0 0023 17.46a6.2 6.2 0 00-3.54-5.59V2.42c0-.98-.79-1.77-1.77-1.77H1.77zm0 1.77h15.92v3.54H1.77V2.42zM6.19 8.6a.88.88 0 110 1.77.88.88 0 010-1.77zm3.54 0a.88.88 0 110 1.77.88.88 0 010-1.77zm3.54 0a.88.88 0 110 1.77.88.88 0 010-1.77zm3.54 0a.88.88 0 110 1.77.88.88 0 010-1.77zM2.65 12.15a.88.88 0 110 1.77.88.88 0 010-1.77zm3.54 0a.88.88 0 110 1.77.88.88 0 010-1.77zm3.54 0a.88.88 0 110 1.77.88.88 0 010-1.77zm7.08.88a4.41 4.41 0 014.42 4.43 4.41 4.41 0 01-4.42 4.42 4.41 4.41 0 01-4.43-4.42 4.41 4.41 0 014.43-4.43zm-.02.88c-.48 0-.87.4-.87.9v3.01l1.58 1.58a.88.88 0 101.25-1.25l-1.06-1.06V14.8a.88.88 0 00-.9-.9zM2.65 15.69a.88.88 0 110 1.77.88.88 0 010-1.77zm3.54 0a.88.88 0 110 1.77.88.88 0 010-1.77zm3.54 0a.88.88 0 110 1.77.88.88 0 010-1.77z"/></symbol><symbol viewBox="0 0 16 16" id="icon-search" xmlns="http://www.w3.org/2000/svg"><path fill-rule="evenodd" d="M6.875 13.25a6.375 6.375 0 115.007-2.429l3.398 3.399a.75.75 0 01-1.06 1.06l-3.399-3.398a6.348 6.348 0 01-3.946 1.368zm3.4-2.88a4.875 4.875 0 11.095-.095.734.734 0 00-.096.095z" clip-rule="evenodd"/></symbol><symbol viewBox="0 0 90 91" id="icon-secure-complient" xmlns="http://www.w3.org/2000/svg"><path fill-rule="evenodd" d="M85.92 21.35L68.65 4.08a13.95 13.95 0 00-19.71 0l-14.4 14.39a13.96 13.96 0 000 19.71l1.66 1.66L2.9 73.15A9.81 9.81 0 000 80.13a9.8 9.8 0 002.9 6.98A9.8 9.8 0 009.86 90a9.81 9.81 0 006.98-2.9l2.88-2.88-2.45-2.45-2.88 2.88a6.56 6.56 0 01-9.06 0 6.37 6.37 0 010-9.06l33.31-33.31 3.31 3.3-30.44 30.44 2.45 2.45L44.4 48.03l3.3 3.31-10.28 10.29 2.44 2.45 10.3-10.29 1.65 1.65a13.9 13.9 0 009.86 4.08 13.9 13.9 0 009.85-4.08l14.4-14.39a13.96 13.96 0 000-19.71zM83.48 38.6L69.08 53a10.5 10.5 0 01-14.81 0L37 35.74a10.5 10.5 0 010-14.83L51.39 6.53a10.45 10.45 0 0114.82 0l17.26 17.26a10.5 10.5 0 010 14.82zM37.43 72.72l-5.76-5.76 2.45-2.44 5.75 5.75-2.44 2.45zm-11.51 0l5.75 5.76 2.45-2.45-5.76-5.76-2.44 2.45zm-5.76 5.76l5.76 5.75 2.44-2.45-5.75-5.75-2.45 2.45zM54.7 9.83a5.8 5.8 0 018.2 0L80.17 27.1a5.8 5.8 0 010 8.2L65.78 49.7a5.76 5.76 0 01-8.2 0L40.3 32.43a5.77 5.77 0 010-8.2L54.7 9.82zm8.63 37.42l14.39-14.4c.91-.9.91-2.39 0-3.3L60.45 12.28a2.33 2.33 0 00-3.3 0l-14.4 14.39a2.33 2.33 0 000 3.3l17.27 17.28c.9.88 2.43.88 3.31 0z" clip-rule="evenodd"/></symbol><symbol viewBox="0 0 24 20" id="icon-staff-management" xmlns="http://www.w3.org/2000/svg"><circle cx="6.63" cy="8.64" r="3.36"/><path d="M.13 17.82a5.04 5.04 0 015.03-5.04H8.1a5.04 5.04 0 015.04 5.04c0 .93-.76 1.68-1.68 1.68H1.8c-.92 0-1.68-.75-1.68-1.68z"/><path fill-rule="evenodd" d="M8.63 2.5v2.2c-.6-.31-1.28-.5-2-.5V1.5a1 1 0 011-1h15.25a1 1 0 011 1v11.75a1 1 0 01-1 1H13.4a6.16 6.16 0 00-2.42-2h10.9V2.5H8.63z" clip-rule="evenodd"/><path d="M14.48 10.44h4.63v2.16h-4.63z"/></symbol><symbol viewBox="0 0 20 25" id="icon-student-progress" xmlns="http://www.w3.org/2000/svg"><path fill-rule="evenodd" d="M12.5 0h-10A2.5 2.5 0 00.01 2.5L0 22.5A2.5 2.5 0 002.49 25H17.5a2.5 2.5 0 002.5-2.5v-15L12.5 0zM15 20H5v-2.5h10V20zm0-5H5v-2.5h10V15zm-3.75-6.25V1.87l6.88 6.88h-6.88z" clip-rule="evenodd"/></symbol><symbol viewBox="0 0 135 135" id="icon-support" xmlns="http://www.w3.org/2000/svg"><path fill-rule="evenodd" d="M67.38 13.52c-21.64 0-35.56 17.06-35.56 41.74V76.9a4.64 4.64 0 01-4.63 4.64H21a17 17 0 01-17-17v-6.19a17 17 0 0117-17h2.96c4.68-22.08 20.7-37.1 43.41-37.1 22.72 0 38.74 15.02 43.42 37.1h2.96a17 17 0 0117 17v6.18a17 17 0 01-17 17h-1.91c-1.67 16.56-9.16 26.77-24.38 33.02a17 17 0 11-2.29-9.1c12.91-5.7 17.76-14.64 17.76-31.64V55.26c0-24.68-13.92-41.74-35.56-41.74zm3.09 108.2a7.73 7.73 0 110-15.45 7.73 7.73 0 010 15.46zm41.73-71.1h1.55a7.73 7.73 0 017.73 7.73v6.18a7.73 7.73 0 01-7.73 7.73h-1.55V50.62zm-89.65 0v21.64H21a7.73 7.73 0 01-7.73-7.73v-6.18A7.73 7.73 0 0121 50.62h1.55z" clip-rule="evenodd"/><path d="M31.82 64.53h1.5-1.5zm0 12.37h-1.5 1.5zm-7.86-35.55v1.5h1.22l.25-1.2-1.47-.3zm86.83 0l-1.47.3.26 1.2h1.21v-1.5zm1.05 40.19v-1.5h-1.36l-.14 1.35 1.5.15zm-24.38 33.01l-.57-1.38-.9.37-.03.97 1.5.04zm-2.29-9.1l-1.3.76.68 1.16 1.23-.55-.61-1.37zm27.03-54.83v-1.5h-1.5v1.5h1.5zm0 21.64h-1.5v1.5h1.5v-1.5zm-89.65 0v1.5h1.5v-1.5h-1.5zm0-21.64h1.5v-1.5h-1.5v1.5zm10.77 4.64c0-12.07 3.4-22.14 9.31-29.16 5.89-7 14.35-11.08 24.74-11.08v-3c-11.24 0-20.55 4.45-27.03 12.15-6.46 7.68-10.02 18.48-10.02 31.09h3zm0 9.27v-9.27h-3v9.27h3zm-3 0V76.9h3V64.53h-3zm0 12.37c0 1.73-1.4 3.14-3.13 3.14v3a6.14 6.14 0 006.13-6.14h-3zm-3.13 3.14H21v3h6.19v-3zm-6.19 0a15.5 15.5 0 01-15.5-15.5h-3A18.5 18.5 0 0021 83.03v-3zM5.5 64.54v-6.19h-3v6.18h3zm0-6.19A15.5 15.5 0 0121 42.85v-3a18.5 18.5 0 00-18.5 18.5h3zM21 42.85h2.96v-3H21v3zm46.38-40.1c-23.53 0-40.08 15.62-44.89 38.29l2.94.62C29.98 20.18 45.47 5.75 67.38 5.75v-3zm44.88 38.29C107.45 18.37 90.9 2.75 67.37 2.75v3c21.91 0 37.4 14.43 41.95 35.9l2.94-.61zm1.49-1.2h-2.96v3h2.96v-3zm18.5 18.51a18.5 18.5 0 00-18.5-18.5v3a15.5 15.5 0 0115.5 15.5h3zm0 6.18v-6.18h-3v6.18h3zm-18.5 18.5a18.5 18.5 0 0018.5-18.5h-3a15.5 15.5 0 01-15.5 15.5v3zm-1.91 0h1.9v-3h-1.9v3zm-23.8 32.91c7.8-3.2 13.72-7.47 17.9-13.14 4.18-5.68 6.53-12.64 7.39-21.11l-2.99-.3c-.81 8.08-3.03 14.5-6.82 19.63-3.78 5.13-9.2 9.1-16.63 12.15l1.14 2.77zM70.46 132.5a18.5 18.5 0 0018.49-17.9l-3-.1a15.5 15.5 0 01-15.5 15v3zM51.97 114a18.5 18.5 0 0018.5 18.5v-3a15.5 15.5 0 01-15.5-15.5h-3zm18.5-18.5a18.5 18.5 0 00-18.5 18.5h3a15.5 15.5 0 0115.5-15.5v-3zm16 9.2a18.5 18.5 0 00-16-9.2v3a15.5 15.5 0 0113.4 7.7l2.6-1.5zm14.96-30.9c0 8.4-1.2 14.59-3.85 19.34-2.63 4.72-6.77 8.19-13.02 10.94l1.22 2.75c6.67-2.95 11.4-6.8 14.42-12.23 3-5.39 4.23-12.17 4.23-20.8h-3zm0-18.54V73.8h3V55.26h-3zM67.37 15.02c10.4 0 18.86 4.09 24.75 11.08 5.9 7.02 9.3 17.1 9.3 29.16h3c0-12.61-3.55-23.41-10-31.09-6.49-7.7-15.8-12.15-27.05-12.15v3zM61.24 114c0 5.1 4.13 9.23 9.23 9.23v-3a6.23 6.23 0 01-6.23-6.23h-3zm9.23-9.23a9.23 9.23 0 00-9.23 9.23h3a6.23 6.23 0 016.23-6.23v-3zM79.7 114c0-5.1-4.14-9.23-9.23-9.23v3A6.23 6.23 0 0176.7 114h3zm-9.23 9.23c5.1 0 9.23-4.14 9.23-9.23h-3a6.23 6.23 0 01-6.23 6.23v3zm43.28-74.1h-1.55v3h1.55v-3zm9.23 9.22c0-5.1-4.14-9.23-9.23-9.23v3a6.23 6.23 0 016.23 6.23h3zm0 6.18v-6.18h-3v6.18h3zm-9.23 9.23c5.1 0 9.23-4.13 9.23-9.23h-3a6.23 6.23 0 01-6.23 6.23v3zm-1.55 0h1.55v-3h-1.55v3zm-1.5-23.14v21.64h3V50.62h-3zM24.05 72.26V50.62h-3v21.64h3zM21 73.76h1.55v-3H21v3zm-9.23-9.23c0 5.1 4.14 9.23 9.23 9.23v-3a6.23 6.23 0 01-6.23-6.23h-3zm0-6.18v6.18h3v-6.18h-3zM21 49.12a9.23 9.23 0 00-9.23 9.23h3A6.23 6.23 0 0121 52.12v-3zm1.55 0H21v3h1.55v-3z"/></symbol><symbol viewBox="0 0 93 86" id="icon-text-based-coding" xmlns="http://www.w3.org/2000/svg"><path fill-rule="evenodd" d="M76.904 50.258V14.333c0-2.963-2.407-5.375-5.365-5.375H44.638a1.76 1.76 0 01-1.388-.67l-5.007-6.267A5.339 5.339 0 0034.045 0H5.375C2.41 0 0 2.415 0 5.384V64.5c0 2.963 2.407 5.375 5.365 5.375h44.803C51.068 78.915 58.705 86 67.962 86h7.153C84.977 86 93 77.963 93 68.083c0-9.273-7.072-16.924-16.096-17.825zm-16.686 1.7h-8.353v3.584h3.347a17.875 17.875 0 00-5.044 10.75H17.885V19.708h55.442v30.459h-5.365c-2.776 0-5.398.655-7.745 1.791zm-24.77-47.7l3.755 4.7h-10.66c-.545 0-1.05-.243-1.389-.67l-3.76-4.705h10.651c.551 0 1.06.246 1.402.676zM3.576 5.385a1.8 1.8 0 011.797-1.8H17.95c.55 0 1.06.245 1.402.675l5.008 6.267a5.319 5.319 0 004.183 2.016H71.54a1.79 1.79 0 011.788 1.791v1.792H3.577V5.384zm0 59.116V19.708h10.73v46.584h-8.94A1.79 1.79 0 013.577 64.5zm71.538 17.917h-7.153c-7.89 0-14.308-6.43-14.308-14.334 0-7.903 6.419-14.333 14.307-14.333h7.154c7.89 0 14.308 6.43 14.308 14.333 0 7.903-6.419 14.334-14.308 14.334zM8.942 29.562A2.685 2.685 0 006.26 32.25a2.685 2.685 0 002.682 2.688 2.685 2.685 0 002.683-2.688 2.685 2.685 0 00-2.683-2.688zm0 10.75A2.685 2.685 0 006.26 43a2.685 2.685 0 002.682 2.688A2.685 2.685 0 0011.625 43a2.685 2.685 0 00-2.683-2.688zM6.26 53.75a2.685 2.685 0 012.682-2.688 2.685 2.685 0 012.683 2.688 2.685 2.685 0 01-2.683 2.688A2.685 2.685 0 016.26 53.75zm42.028-23.292H30.404v3.584h17.884v-3.584zm3.577 0H69.75v3.584H51.865v-3.584zm17.885 7.167H59.02v3.583h10.73v-3.583zm-25.038 0h10.73v3.583h-10.73v-3.583zm25.038 7.167H59.02v3.583h10.73v-3.583zm-25.038 0h10.73v3.583h-10.73v-3.583zm3.576 7.166H30.404v3.584h17.884v-3.584zM80.481 64.5c0-2.963-2.407-5.375-5.366-5.375h-1.788v3.583h1.788a1.79 1.79 0 011.789 1.792c0 1.376.519 2.632 1.37 3.583a5.358 5.358 0 00-1.37 3.584 1.79 1.79 0 01-1.789 1.791h-1.788v3.584h1.788c2.959 0 5.366-2.412 5.366-5.375a1.79 1.79 0 011.788-1.792h1.789v-3.583h-1.789a1.79 1.79 0 01-1.788-1.792zm-19.673 1.792a1.79 1.79 0 001.788-1.792c0-2.963 2.407-5.375 5.366-5.375h1.788v3.583h-1.788a1.79 1.79 0 00-1.789 1.792 5.357 5.357 0 01-1.37 3.583 5.358 5.358 0 011.37 3.584 1.79 1.79 0 001.788 1.791h1.789v3.584h-1.788c-2.959 0-5.366-2.412-5.366-5.375a1.79 1.79 0 00-1.788-1.792h-1.789v-3.583h1.789z" clip-rule="evenodd"/></symbol><symbol viewBox="0 0 30 30" id="icon-twitter" xmlns="http://www.w3.org/2000/svg"><path d="M15 0C6.73 0 0 6.73 0 15s6.73 15 15 15 15-6.73 15-15S23.27 0 15 0zm6.7 11.57v.45c0 4.56-3.47 9.82-9.82 9.82a9.77 9.77 0 01-5.3-1.55 7 7 0 005.12-1.43 3.46 3.46 0 01-3.23-2.4 3.49 3.49 0 001.56-.06 3.45 3.45 0 01-2.77-3.43c.47.26 1 .42 1.57.43a3.45 3.45 0 01-1.07-4.6 9.8 9.8 0 007.11 3.6 3.45 3.45 0 015.89-3.15 6.9 6.9 0 002.19-.84c-.26.81-.8 1.49-1.52 1.92.7-.09 1.37-.27 1.98-.55-.46.7-1.04 1.3-1.72 1.79z"/></symbol><symbol viewBox="0 0 24 26" id="icon-user-management" xmlns="http://www.w3.org/2000/svg"><path d="M10.71 25.14V11.61C6.77 10.06 4.7 9.56 0 9.2v13.4c3.45.28 6.94 1.05 10.71 2.53zm2.58 0V11.61C17.23 10.06 19.3 9.56 24 9.2v13.4a37.12 37.12 0 00-10.71 2.53z"/><circle cx="12" cy="5.25" r="4.39"/></symbol><symbol viewBox="0 0 30 30" id="icon-youtube" xmlns="http://www.w3.org/2000/svg"><path d="M12.27 18.29l6.73-3.5-6.73-3.5v7z"/><path d="M15 0a15 15 0 100 30 15 15 0 000-30zm10.22 20a2.68 2.68 0 01-2.29 2.09c-2.63.3-5.28.3-7.93.3-2.65 0-5.3 0-7.93-.3A2.67 2.67 0 014.77 20c-.36-1.6-.36-3.36-.36-5.01s0-3.4.37-5a2.67 2.67 0 012.3-2.09c2.62-.3 5.28-.3 7.92-.3 2.65 0 5.3 0 7.93.3 1.11.13 2.04.96 2.3 2.08.36 1.6.36 3.36.36 5.01s0 3.4-.37 5z"/></symbol></svg>