<?xml version="1.0" encoding="utf-8"?><svg xmlns="http://www.w3.org/2000/svg" xmlns:xlink="http://www.w3.org/1999/xlink"><symbol fill="none" viewBox="0 0 64 65" id="icon-arrow_back" xmlns="http://www.w3.org/2000/svg"><circle cx="32" cy="32.5" r="31" stroke="url(#apaint0_linear)" stroke-width="2"/><path stroke="url(#apaint1_linear)" stroke-width="2" d="M36.6 23l-16.3 9.5L36.6 42V23z"/><defs><linearGradient id="apaint0_linear" x1="0" x2="75.7" y1=".5" y2="20.9" gradientUnits="userSpaceOnUse"><stop stop-color="#C0A3FF"/><stop offset="1" stop-color="#844AFE"/></linearGradient><linearGradient id="apaint1_linear" x1="18.3" x2="26.5" y1="19.6" y2="50.2" gradientUnits="userSpaceOnUse"><stop stop-color="#C0A3FF"/><stop offset="1" stop-color="#844AFE"/></linearGradient></defs></symbol><symbol fill="none" viewBox="0 0 64 65" id="icon-arrow_front" xmlns="http://www.w3.org/2000/svg"><circle cx="32" cy="32.52" r="31" stroke="url(#bpaint0_linear)" stroke-width="2"/><path stroke="url(#bpaint1_linear)" stroke-width="2" d="M26.55 23.07l16.36 9.45-16.36 9.44V23.07z"/><defs><linearGradient id="bpaint0_linear" x1="0" x2="75.74" y1=".52" y2="20.92" gradientUnits="userSpaceOnUse"><stop stop-color="#C0A3FF"/><stop offset="1" stop-color="#844AFE"/></linearGradient><linearGradient id="bpaint1_linear" x1="44.91" x2="36.68" y1="19.61" y2="50.16" gradientUnits="userSpaceOnUse"><stop stop-color="#C0A3FF"/><stop offset="1" stop-color="#844AFE"/></linearGradient></defs></symbol><symbol fill="none" viewBox="0 0 49 50" id="icon-email" xmlns="http://www.w3.org/2000/svg"><path fill="#E4D8FF" d="M24.3 38.74h6.63v10.3H24.3v-10.3z"/><path fill="#8032ED" d="M30.2 39.2v9.85h-5.9V39.2h5.9zm.73-.46h-7.37v11.04h7.37V38.74z"/><path fill="#A57AFF" d="M.37 39.84V19.6a9.95 9.95 0 019.94-9.94h27.98a9.95 9.95 0 019.94 9.94v20.25H.37z"/><path fill="#8032ED" d="M38.3 10.02c5.27 0 9.56 4.3 9.56 9.57v19.88H.74V19.6c0-5.28 4.3-9.57 9.57-9.57h27.98zm0-.74h-28C4.65 9.28 0 13.92 0 19.6v20.62h48.6V19.59c0-5.67-4.64-10.3-10.3-10.3z"/><path fill="#E4D8FF" d="M.37 39.84V19.37a9.95 9.95 0 0119.88.22v20.25H.37z"/><path fill="#8032ED" d="M10.3 10.02c5.29 0 9.58 4.3 9.58 9.57v19.88H.74v-20.1c0-5.07 4.38-9.35 9.57-9.35zm0-.74C4.65 9.28 0 13.92 0 19.38V40.2h20.62V19.59c0-5.67-4.64-10.3-10.31-10.3z"/><path fill="#F78F8F" d="M26.88.81h.73v15.47h-.73V.8z"/><path fill="#FF9800" d="M27.25 1.18v14.73V1.18zm.73-.73h-1.47v16.2h1.47V.45z"/><path fill="#FF9800" d="M27.25 15.54a1.84 1.84 0 100 3.68 1.84 1.84 0 000-3.68z"/><path fill="#fff" d="M27.25 15.9a1.47 1.47 0 110 2.96 1.47 1.47 0 010-2.95zm0-.73a2.2 2.2 0 100 4.42 2.2 2.2 0 000-4.42z"/><path fill="#FFB74D" d="M26.88.81h8.1v5.16h-8.1V.8z"/><path fill="#FF9800" d="M34.6 1.18V5.6h-7.35V1.18h7.36zm.75-.73H26.5v5.89h8.84V.44z"/><path fill="#E4D8FF" d="M4.79 21.43h11.04v.74H4.8v-.74z"/><path fill="#8032ED" d="M16.2 21.06H4.42v1.48H16.2v-1.48z"/></symbol><symbol fill="none" viewBox="0 0 50 49" id="icon-location" xmlns="http://www.w3.org/2000/svg"><path fill="#E4D8FF" d="M48.12 24.3a23.1 23.1 0 01-23.08 23.09A23.1 23.1 0 011.95 24.3 22.96 22.96 0 0125.04 1.21 22.96 22.96 0 0148.12 24.3z"/><path fill="#A57AFF" d="M33.7 32.75c.52.26 1.04.26 1.3.78.79.79.79 2.1 1.05 2.89.26 1.05.53 2.1 1.05 3.15.27 1.3.79 2.62 1.05 3.67.17-.13.37-.26.57-.39a23 23 0 009.4-18.55c0-6.8-2.88-12.85-7.48-17.05a2.29 2.29 0 00-1.7.05c-.79.26-1.31 1.3-1.84 1.83l-1.57 2.36c-.26.27-.53.8-.26 1.05 0 .27.26.27.52.27.53.26.79.26 1.31.52.27 0 .53.26.27.53 0 0 0 .26-.27.26-1.31 1.31-2.62 2.36-3.93 3.67-.26.26-.53.79-.53 1.05s.27.26.27.52c0 .27-.27.27-.53.53-.52.26-1.05.52-1.31.79-.26.52 0 1.3-.26 1.83-.26 1.31-1.05 2.36-1.58 3.68-.52.78-.78 1.57-1.3 2.36 0 1.05-.27 1.83.25 2.62 1.32 1.84 3.68.79 5.51 1.58zm-.5-30.06a23.3 23.3 0 00-9.57-1.42 6.88 6.88 0 00-.7 1.3c-.25 1.32.8 1.05 1.84 1.32 0 0 .27 2.1.27 2.36.26 1.31-.53 2.1-.53 3.4 0 .8 0 2.1.53 2.63h.26c.26 0 .52-.26 1.05-.52.78-.53 1.57-1.32 2.36-1.84a14.9 14.9 0 002.1-1.84 4.72 4.72 0 001.57-2.36c.26-.52 1.16-2.07.9-2.86l-.07-.17zM2.49 25.39a11.99 11.99 0 003.93 4.2c1.05.8 3.15.8 4.2 2.1.79 1.05.52 2.36.52 3.67 0 1.58 1.05 2.89 1.58 4.2.26.79.52 1.84.78 2.62 0 .27.27 1.84.27 2.1.08.05.15.14.21.26a23 23 0 004.44 1.85c.02 0 .05-.01.07 0 .26 0 1.3-1.58 1.3-1.84.8-.8 1.32-1.84 2.1-2.37a5.48 5.48 0 001.58-1.05c.53-.52.79-1.57 1.05-2.36.26-.52.53-1.57.26-2.36-.16-.5-.26-.78-.78-1.05-1.58-.52-3.15-.52-4.46-1.83-.27-.53-.27-1.05-.53-1.58-.52-.52-1.83-.78-2.62-1.05h-5.25c-.79-.26-1.31-1.3-1.84-2.1 0-.26 0-.78-.52-.78-.52-.26-1.05.26-1.57 0-.27-.26-.27-.53-.27-.79 0-.79.53-1.57 1.05-2.1.79-.52 1.58.26 2.36.26.27 0 .27 0 .53.27.79.26 1.05 1.3 1.05 2.1v.52c0 .26.26.26.52.26.26-1.3.26-2.62.53-3.93 0-1.58 1.57-3.15 2.88-3.67.53-.26.79.26 1.31 0 1.58-.53 5.51-2.1 4.73-4.2-.53-1.84-2.1-3.67-4.2-3.41-.53.26-.79.53-1.31.79-.79.52-2.36 2.1-3.15 2.1-1.31-.27-1.31-2.1-1.05-2.89.26-1.05 2.62-4.46 4.2-3.93l1.05 1.05c.52.26 1.3.26 2.1.26.26 0 .52 0 .78-.26.26-.27.26-.27.26-.53 0-.79-.78-1.57-1.3-2.1a5.7 5.7 0 00-2.1-1.3c-1.68-.51-5.22.08-8.11 1.06a23 23 0 00-7.1 16.72v.33c.2.26.37.52.52.77z"/><path fill="#8032ED" d="M25.04 1.82A22.36 22.36 0 0147.5 24.3a22.5 22.5 0 01-22.47 22.48A22.5 22.5 0 012.56 24.3 22.36 22.36 0 0125.04 1.82zm0-.6A22.96 22.96 0 001.95 24.3a23.1 23.1 0 0023.09 23.09A23.1 23.1 0 0048.12 24.3 22.96 22.96 0 0025.04 1.21z"/><path fill="#FF9800" d="M39.01 28.09c-1.4-1.65-8.81-10.7-8.81-17.76a8.82 8.82 0 0117.62 0c0 7.11-7.4 16.12-8.81 17.76z"/><path fill="#fff" d="M39 1.82c4.7 0 8.51 3.82 8.51 8.5 0 6.69-6.68 15.12-8.5 17.3-1.82-2.19-8.5-10.66-8.5-17.3 0-4.68 3.8-8.5 8.5-8.5zm0-.6a9.11 9.11 0 00-9.1 9.1c0 7.97 9.1 18.23 9.1 18.23s9.12-10.2 9.12-18.22a9.11 9.11 0 00-9.11-9.12z"/><path fill="#F2FAFF" d="M39 14.28a3.95 3.95 0 11.02-7.91 3.95 3.95 0 01-.01 7.9z"/><path fill="#FF9800" d="M39 6.68a3.64 3.64 0 110 7.3 3.64 3.64 0 010-7.3zm0-.6a4.26 4.26 0 10.02 8.5 4.26 4.26 0 00-.01-8.5z"/></symbol><symbol fill="none" viewBox="0 0 46 46" id="icon-phone" xmlns="http://www.w3.org/2000/svg"><path fill="#E4D8FF" d="M35.77 45.7c-.78 0-1.56-.18-2.28-.48A63.67 63.67 0 0114.1 32.14 62.96 62.96 0 011.02 12.75a5.83 5.83 0 011.26-6.48l4.5-4.5A3.82 3.82 0 019.48.63c1.02 0 1.98.42 2.7 1.14l5.88 5.88a3.88 3.88 0 010 5.46l-6 6 .06.18c0 .06 1.8 4.8 5.94 8.89a28.83 28.83 0 008.89 5.94l.18.06 6-6a3.82 3.82 0 012.7-1.14c1.02 0 1.98.41 2.7 1.14l5.88 5.88a3.82 3.82 0 011.14 2.7c0 1.02-.42 1.98-1.14 2.7l-4.5 4.5a5.91 5.91 0 01-4.14 1.74z"/><path fill="#8032ED" d="M9.48.99c.96 0 1.86.36 2.52 1.02l5.88 5.88a3.59 3.59 0 010 5.04L12 18.81l-.3.3.12.36c.06.18 1.8 4.86 6 9a27.5 27.5 0 009 6l.37.13.3-.3 5.88-5.88a3.54 3.54 0 012.52-1.03c.96 0 1.86.37 2.52 1.03l5.88 5.88a3.59 3.59 0 010 5.04l-4.5 4.5a6.12 6.12 0 01-4.02 1.56c-.78 0-1.5-.18-2.16-.48A63.44 63.44 0 0114.34 31.9 64.17 64.17 0 011.32 12.63c-.9-2.1-.42-4.5 1.2-6.18l4.5-4.5c.6-.6 1.5-.96 2.46-.96zm0-.6c-1.08 0-2.1.42-2.94 1.2l-4.5 4.5a6.17 6.17 0 00-1.32 6.84 66.5 66.5 0 0013.14 19.45 62.87 62.87 0 0019.5 13.14 6.19 6.19 0 006.78-1.38l4.5-4.5a4.17 4.17 0 000-5.88L38.78 28a4.18 4.18 0 00-5.88 0L27 33.88s-4.69-1.74-8.77-5.88c-4.14-4.15-5.88-8.77-5.88-8.77l5.88-5.88a4.17 4.17 0 000-5.88L12.42 1.6A4.29 4.29 0 009.48.39z"/><path fill="#8032ED" d="M6.35 2.13l.42-.43 2.17 2.17-.43.42-2.16-2.16zm4.32 4.31L11.1 6l7.04 7.05-.42.42-7.05-7.04zm22.39 22.11l.42-.43 2.17 2.17-.43.42-2.16-2.16zm4.32 4.31l.43-.43 7.04 7.05-.42.42-7.05-7.04z"/></symbol><symbol fill="none" viewBox="0 0 93 86" id="icon-text-based-coding" xmlns="http://www.w3.org/2000/svg"><path fill="#000" fill-rule="evenodd" d="M76.904 50.258V14.333c0-2.963-2.407-5.375-5.365-5.375H44.638a1.76 1.76 0 01-1.388-.67l-5.007-6.267A5.339 5.339 0 0034.045 0H5.375C2.41 0 0 2.415 0 5.384V64.5c0 2.963 2.407 5.375 5.365 5.375h44.803C51.068 78.915 58.705 86 67.962 86h7.153C84.977 86 93 77.963 93 68.083c0-9.273-7.072-16.924-16.096-17.825zm-16.686 1.7h-8.353v3.584h3.347a17.875 17.875 0 00-5.044 10.75H17.885V19.708h55.442v30.459h-5.365c-2.776 0-5.398.655-7.745 1.791zm-24.77-47.7l3.755 4.7h-10.66c-.545 0-1.05-.243-1.389-.67l-3.76-4.705h10.651c.551 0 1.06.246 1.402.676zM3.576 5.385a1.8 1.8 0 011.797-1.8H17.95c.55 0 1.06.245 1.402.675l5.008 6.267a5.319 5.319 0 004.183 2.016H71.54a1.79 1.79 0 011.788 1.791v1.792H3.577V5.384zm0 59.116V19.708h10.73v46.584h-8.94A1.79 1.79 0 013.577 64.5zm71.538 17.917h-7.153c-7.89 0-14.308-6.43-14.308-14.334 0-7.903 6.419-14.333 14.307-14.333h7.154c7.89 0 14.308 6.43 14.308 14.333 0 7.903-6.419 14.334-14.308 14.334zM8.942 29.562A2.685 2.685 0 006.26 32.25a2.685 2.685 0 002.682 2.688 2.685 2.685 0 002.683-2.688 2.685 2.685 0 00-2.683-2.688zm0 10.75A2.685 2.685 0 006.26 43a2.685 2.685 0 002.682 2.688A2.685 2.685 0 0011.625 43a2.685 2.685 0 00-2.683-2.688zM6.26 53.75a2.685 2.685 0 012.682-2.688 2.685 2.685 0 012.683 2.688 2.685 2.685 0 01-2.683 2.688A2.685 2.685 0 016.26 53.75zm42.028-23.292H30.404v3.584h17.884v-3.584zm3.577 0H69.75v3.584H51.865v-3.584zm17.885 7.167H59.02v3.583h10.73v-3.583zm-25.038 0h10.73v3.583h-10.73v-3.583zm25.038 7.167H59.02v3.583h10.73v-3.583zm-25.038 0h10.73v3.583h-10.73v-3.583zm3.576 7.166H30.404v3.584h17.884v-3.584zM80.481 64.5c0-2.963-2.407-5.375-5.366-5.375h-1.788v3.583h1.788a1.79 1.79 0 011.789 1.792c0 1.376.519 2.632 1.37 3.583a5.358 5.358 0 00-1.37 3.584 1.79 1.79 0 01-1.789 1.791h-1.788v3.584h1.788c2.959 0 5.366-2.412 5.366-5.375a1.79 1.79 0 011.788-1.792h1.789v-3.583h-1.789a1.79 1.79 0 01-1.788-1.792zm-19.673 1.792a1.79 1.79 0 001.788-1.792c0-2.963 2.407-5.375 5.366-5.375h1.788v3.583h-1.788a1.79 1.79 0 00-1.789 1.792 5.357 5.357 0 01-1.37 3.583 5.358 5.358 0 011.37 3.584 1.79 1.79 0 001.788 1.791h1.789v3.584h-1.788c-2.959 0-5.366-2.412-5.366-5.375a1.79 1.79 0 00-1.788-1.792h-1.789v-3.583h1.789z" clip-rule="evenodd"/></symbol></svg>