<?xml version="1.0" encoding="utf-8"?><svg xmlns="http://www.w3.org/2000/svg" xmlns:xlink="http://www.w3.org/1999/xlink"><symbol fill="none" viewBox="0 0 49 50" id="icon-email" xmlns="http://www.w3.org/2000/svg"><path fill="#E4D8FF" d="M24.3 38.74h6.63v10.3H24.3v-10.3z"/><path fill="#8032ED" d="M30.2 39.2v9.85h-5.9V39.2h5.9zm.73-.46h-7.37v11.04h7.37V38.74z"/><path fill="#A57AFF" d="M.37 39.84V19.6a9.95 9.95 0 019.94-9.94h27.98a9.95 9.95 0 019.94 9.94v20.25H.37z"/><path fill="#8032ED" d="M38.3 10.02c5.27 0 9.56 4.3 9.56 9.57v19.88H.74V19.6c0-5.28 4.3-9.57 9.57-9.57h27.98zm0-.74h-28C4.65 9.28 0 13.92 0 19.6v20.62h48.6V19.59c0-5.67-4.64-10.3-10.3-10.3z"/><path fill="#E4D8FF" d="M.37 39.84V19.37a9.95 9.95 0 0119.88.22v20.25H.37z"/><path fill="#8032ED" d="M10.3 10.02c5.29 0 9.58 4.3 9.58 9.57v19.88H.74v-20.1c0-5.07 4.38-9.35 9.57-9.35zm0-.74C4.65 9.28 0 13.92 0 19.38V40.2h20.62V19.59c0-5.67-4.64-10.3-10.31-10.3z"/><path fill="#F78F8F" d="M26.88.81h.73v15.47h-.73V.8z"/><path fill="#FF9800" d="M27.25 1.18v14.73V1.18zm.73-.73h-1.47v16.2h1.47V.45z"/><path fill="#FF9800" d="M27.25 15.54a1.84 1.84 0 100 3.68 1.84 1.84 0 000-3.68z"/><path fill="#fff" d="M27.25 15.9a1.47 1.47 0 110 2.96 1.47 1.47 0 010-2.95zm0-.73a2.2 2.2 0 100 4.42 2.2 2.2 0 000-4.42z"/><path fill="#FFB74D" d="M26.88.81h8.1v5.16h-8.1V.8z"/><path fill="#FF9800" d="M34.6 1.18V5.6h-7.35V1.18h7.36zm.75-.73H26.5v5.89h8.84V.44z"/><path fill="#E4D8FF" d="M4.79 21.43h11.04v.74H4.8v-.74z"/><path fill="#8032ED" d="M16.2 21.06H4.42v1.48H16.2v-1.48z"/></symbol><symbol fill="none" viewBox="0 0 50 49" id="icon-location" xmlns="http://www.w3.org/2000/svg"><path fill="#E4D8FF" d="M48.12 24.3a23.1 23.1 0 01-23.08 23.09A23.1 23.1 0 011.95 24.3 22.96 22.96 0 0125.04 1.21 22.96 22.96 0 0148.12 24.3z"/><path fill="#A57AFF" d="M33.7 32.75c.52.26 1.04.26 1.3.78.79.79.79 2.1 1.05 2.89.26 1.05.53 2.1 1.05 3.15.27 1.3.79 2.62 1.05 3.67.17-.13.37-.26.57-.39a23 23 0 009.4-18.55c0-6.8-2.88-12.85-7.48-17.05a2.29 2.29 0 00-1.7.05c-.79.26-1.31 1.3-1.84 1.83l-1.57 2.36c-.26.27-.53.8-.26 1.05 0 .27.26.27.52.27.53.26.79.26 1.31.52.27 0 .53.26.27.53 0 0 0 .26-.27.26-1.31 1.31-2.62 2.36-3.93 3.67-.26.26-.53.79-.53 1.05s.27.26.27.52c0 .27-.27.27-.53.53-.52.26-1.05.52-1.31.79-.26.52 0 1.3-.26 1.83-.26 1.31-1.05 2.36-1.58 3.68-.52.78-.78 1.57-1.3 2.36 0 1.05-.27 1.83.25 2.62 1.32 1.84 3.68.79 5.51 1.58zm-.5-30.06a23.3 23.3 0 00-9.57-1.42 6.88 6.88 0 00-.7 1.3c-.25 1.32.8 1.05 1.84 1.32 0 0 .27 2.1.27 2.36.26 1.31-.53 2.1-.53 3.4 0 .8 0 2.1.53 2.63h.26c.26 0 .52-.26 1.05-.52.78-.53 1.57-1.32 2.36-1.84a14.9 14.9 0 002.1-1.84 4.72 4.72 0 001.57-2.36c.26-.52 1.16-2.07.9-2.86l-.07-.17zM2.49 25.39a11.99 11.99 0 003.93 4.2c1.05.8 3.15.8 4.2 2.1.79 1.05.52 2.36.52 3.67 0 1.58 1.05 2.89 1.58 4.2.26.79.52 1.84.78 2.62 0 .27.27 1.84.27 2.1.08.05.15.14.21.26a23 23 0 004.44 1.85c.02 0 .05-.01.07 0 .26 0 1.3-1.58 1.3-1.84.8-.8 1.32-1.84 2.1-2.37a5.48 5.48 0 001.58-1.05c.53-.52.79-1.57 1.05-2.36.26-.52.53-1.57.26-2.36-.16-.5-.26-.78-.78-1.05-1.58-.52-3.15-.52-4.46-1.83-.27-.53-.27-1.05-.53-1.58-.52-.52-1.83-.78-2.62-1.05h-5.25c-.79-.26-1.31-1.3-1.84-2.1 0-.26 0-.78-.52-.78-.52-.26-1.05.26-1.57 0-.27-.26-.27-.53-.27-.79 0-.79.53-1.57 1.05-2.1.79-.52 1.58.26 2.36.26.27 0 .27 0 .53.27.79.26 1.05 1.3 1.05 2.1v.52c0 .26.26.26.52.26.26-1.3.26-2.62.53-3.93 0-1.58 1.57-3.15 2.88-3.67.53-.26.79.26 1.31 0 1.58-.53 5.51-2.1 4.73-4.2-.53-1.84-2.1-3.67-4.2-3.41-.53.26-.79.53-1.31.79-.79.52-2.36 2.1-3.15 2.1-1.31-.27-1.31-2.1-1.05-2.89.26-1.05 2.62-4.46 4.2-3.93l1.05 1.05c.52.26 1.3.26 2.1.26.26 0 .52 0 .78-.26.26-.27.26-.27.26-.53 0-.79-.78-1.57-1.3-2.1a5.7 5.7 0 00-2.1-1.3c-1.68-.51-5.22.08-8.11 1.06a23 23 0 00-7.1 16.72v.33c.2.26.37.52.52.77z"/><path fill="#8032ED" d="M25.04 1.82A22.36 22.36 0 0147.5 24.3a22.5 22.5 0 01-22.47 22.48A22.5 22.5 0 012.56 24.3 22.36 22.36 0 0125.04 1.82zm0-.6A22.96 22.96 0 001.95 24.3a23.1 23.1 0 0023.09 23.09A23.1 23.1 0 0048.12 24.3 22.96 22.96 0 0025.04 1.21z"/><path fill="#FF9800" d="M39.01 28.09c-1.4-1.65-8.81-10.7-8.81-17.76a8.82 8.82 0 0117.62 0c0 7.11-7.4 16.12-8.81 17.76z"/><path fill="#fff" d="M39 1.82c4.7 0 8.51 3.82 8.51 8.5 0 6.69-6.68 15.12-8.5 17.3-1.82-2.19-8.5-10.66-8.5-17.3 0-4.68 3.8-8.5 8.5-8.5zm0-.6a9.11 9.11 0 00-9.1 9.1c0 7.97 9.1 18.23 9.1 18.23s9.12-10.2 9.12-18.22a9.11 9.11 0 00-9.11-9.12z"/><path fill="#F2FAFF" d="M39 14.28a3.95 3.95 0 11.02-7.91 3.95 3.95 0 01-.01 7.9z"/><path fill="#FF9800" d="M39 6.68a3.64 3.64 0 110 7.3 3.64 3.64 0 010-7.3zm0-.6a4.26 4.26 0 10.02 8.5 4.26 4.26 0 00-.01-8.5z"/></symbol><symbol fill="none" viewBox="0 0 46 46" id="icon-phone" xmlns="http://www.w3.org/2000/svg"><path fill="#E4D8FF" d="M35.77 45.7c-.78 0-1.56-.18-2.28-.48A63.67 63.67 0 0114.1 32.14 62.96 62.96 0 011.02 12.75a5.83 5.83 0 011.26-6.48l4.5-4.5A3.82 3.82 0 019.48.63c1.02 0 1.98.42 2.7 1.14l5.88 5.88a3.88 3.88 0 010 5.46l-6 6 .06.18c0 .06 1.8 4.8 5.94 8.89a28.83 28.83 0 008.89 5.94l.18.06 6-6a3.82 3.82 0 012.7-1.14c1.02 0 1.98.41 2.7 1.14l5.88 5.88a3.82 3.82 0 011.14 2.7c0 1.02-.42 1.98-1.14 2.7l-4.5 4.5a5.91 5.91 0 01-4.14 1.74z"/><path fill="#8032ED" d="M9.48.99c.96 0 1.86.36 2.52 1.02l5.88 5.88a3.59 3.59 0 010 5.04L12 18.81l-.3.3.12.36c.06.18 1.8 4.86 6 9a27.5 27.5 0 009 6l.37.13.3-.3 5.88-5.88a3.54 3.54 0 012.52-1.03c.96 0 1.86.37 2.52 1.03l5.88 5.88a3.59 3.59 0 010 5.04l-4.5 4.5a6.12 6.12 0 01-4.02 1.56c-.78 0-1.5-.18-2.16-.48A63.44 63.44 0 0114.34 31.9 64.17 64.17 0 011.32 12.63c-.9-2.1-.42-4.5 1.2-6.18l4.5-4.5c.6-.6 1.5-.96 2.46-.96zm0-.6c-1.08 0-2.1.42-2.94 1.2l-4.5 4.5a6.17 6.17 0 00-1.32 6.84 66.5 66.5 0 0013.14 19.45 62.87 62.87 0 0019.5 13.14 6.19 6.19 0 006.78-1.38l4.5-4.5a4.17 4.17 0 000-5.88L38.78 28a4.18 4.18 0 00-5.88 0L27 33.88s-4.69-1.74-8.77-5.88c-4.14-4.15-5.88-8.77-5.88-8.77l5.88-5.88a4.17 4.17 0 000-5.88L12.42 1.6A4.29 4.29 0 009.48.39z"/><path fill="#8032ED" d="M6.35 2.13l.42-.43 2.17 2.17-.43.42-2.16-2.16zm4.32 4.31L11.1 6l7.04 7.05-.42.42-7.05-7.04zm22.39 22.11l.42-.43 2.17 2.17-.43.42-2.16-2.16zm4.32 4.31l.43-.43 7.04 7.05-.42.42-7.05-7.04z"/></symbol><symbol fill="none" viewBox="0 0 376 255" id="logo-arduino" xmlns="http://www.w3.org/2000/svg"><path fill="#0F96A0" fill-rule="evenodd" d="M0 90.1c0 92 126.8 126.2 189.4 32.6C254.4 219.7 376 179 376 90S254.9-42 189.4 57.5C127.4-40.8 0-1.9 0 90.1zm33.3 0c0-66.3 94-87.3 137.8 0-44.6 84-137.8 66.4-137.8 0zm174.4 0c39.4-89 136-64.5 135.7.2-.3 64.6-97.4 84.7-135.7-.2z" clip-rule="evenodd"/><path fill="#0F96A0" fill-rule="evenodd" d="M68.6 99.2h55.8V80.8H68.6v18.4zm202.5-.3h-18.4V79.4h18.4V61h19.6v18.4H309v19.5h-18.4v18.3H271V99z" clip-rule="evenodd"/><path fill="#0F96A0" d="M358 17.3V9.1h-2.3V7.4h6.1v1.7h-2.3v8.2H358zm4.8 0V7.4h2.3l1.4 6.8 1.4-6.8h2.3v10h-1.4v-8l-1.5 7.8h-1.5l-1.5-7.8v7.8h-1.5z"/><path fill="#0F96A0" fill-rule="evenodd" d="M159.3 228.6c.1 18-9.2 26.8-27.2 26.2h-15.4v-52.4h15.4c18-.5 27.3 8.2 27.2 26.2zm-12.9 0c.1-10.3-5.3-15.2-16.2-14.7v29.5c10.9.5 16.3-4.4 16.2-14.8zm43.1 26.2c-14.8 0-20.6-4.9-21.2-17.3v-35.1h13.5v34.5c-.3 5.5 2.3 7.9 7.7 7.9 5.3 0 7.8-2.4 7.5-7.9v-34.5h13.5v35c-.6 12.5-6.2 17.4-21 17.4zm51.2-52.4H221v11.2h13v30h-13v11.2h39.3v-11.2h-13v-30h13v-11.2h-19.6zm58.3 26.2l-14.5-26.2h-14.4v52.4h12.7v-31.5l3 5.5 14.4 26.2h14.4v-52.4h-12.7V234l-3-5.5zm44.2-15.3c-7.6 0-8.2 6.7-8.2 15.3 0 8.6.6 15.3 8.2 15.3 7.5 0 8.1-6.7 8.1-15.3 0-8.6-.6-15.3-8.1-15.3zm0 41.5c-15.2 0-22.2-8.3-22.2-26.2s7-26.2 22.2-26.2c15.1 0 22 8.3 22 26.2s-6.9 26.2-22 26.2zm-284.2 0l-17.7-52.4h-14L9.5 254.8h15.2l2.8-11h14.2l3.3 11h14zm-20-21.3h-9l4.4-16.4 4.5 16.4zm27.3-31.1v52.4h13v-16.5H85l9.5 16.5h15.4l-12-19.3c13.8-5.9 14.2-33.1-11-33.1H66.4zm13.2 25.8V214h6.3c12 .2 8 14.4.2 14.2h-6.5z" clip-rule="evenodd"/></symbol><symbol fill="none" viewBox="0 0 290 326" id="logo-c" xmlns="http://www.w3.org/2000/svg"><path fill="#A179DC" d="M290 95.8c0-5.4-1.2-10.3-3.6-14.4-2.3-4.1-5.8-7.6-10.5-10.3L160.1 4.4a28.4 28.4 0 00-30.8.3C113.9 13.7 37 57.8 14 71A26.8 26.8 0 000 95.8v134.4c0 5.3 1.1 10 3.4 14.2 2.3 4.2 5.9 7.7 10.6 10.5 23 13.3 100 57.3 115.3 66.4a28.4 28.4 0 0030.8.3L276 255c4.7-2.8 8.3-6.3 10.6-10.5a29 29 0 003.4-14.2V95.8z"/><path fill="#280068" d="M145.4 162.6l-142 81.8c2.3 4.2 5.9 7.7 10.6 10.5 23 13.3 100 57.3 115.3 66.4a28.4 28.4 0 0030.8.3L276 255c4.7-2.8 8.3-6.3 10.6-10.5l-141.2-81.8z"/><path fill="#390091" d="M290 95.8c0-5.4-1.2-10.3-3.6-14.4l-141 81.2 141.2 81.8a29 29 0 003.4-14.2V95.8z"/><path fill="#fff" d="M229 132v15.3h15.4V132h7.6v15.3h15.3v7.6H252v15.3h15.3v7.7H252V193h-7.6v-15H229v15h-7.7v-15H206v-7.7h15.3V155H206v-7.6h15.3V132h7.7zm15.4 23H229v15.2h15.3V155z"/><path fill="#fff" d="M145.8 55.2c39.8 0 74.6 21.6 93.3 53.8l-.2-.3-46.9 27a53.6 53.6 0 00-45.6-26.4h-.6a53.7 53.7 0 1046.7 80l-.2.4 46.9 27.2a107.8 107.8 0 01-92.2 54h-1.2a107.7 107.7 0 110-215.7z"/></symbol><symbol fill="none" viewBox="0 0 220 311" id="logo-css" xmlns="http://www.w3.org/2000/svg"><path fill="#4B58A1" d="M109.9 311L20 286 0 61.1h220L200 286l-90.1 25z"/><path fill="#4D64AB" d="M182.8 271.7L200 79.5h-90V292l72.8-20.2z"/><path fill="#EFEFF0" d="M110 234.6h-.1l-30.7-8.3-2-22H49.6l3.9 43.3 56.4 15.7h.1v-28.7zM41 107l2.4 27.6H110V107H41zm4.9 55.8l2.5 27.6H110V163H45.9z"/><path fill="#252422" d="M165.2 0v12.1h-19.4v2.5h19.4v28h-33.4V29.7h19.4v-2.5h-19.4V0h33.4zm-40 0H91.8v27.3h19.4v2.5H91.8v12.7h33.4v-28h-19.4v-2.4h19.4V0zm-40 0H51.7v42H85V28H65.7V14h19.4V0z"/><path fill="#FEFEFE" d="M174 163l4.9-56h-69v27.7h38.8l-2.5 28.2H110v27.6h34l-3.3 35.8-30.7 8.3v28.7l56.5-15.7.4-4.7 6.5-72.6.6-7.4z"/></symbol><symbol fill="none" viewBox="0 0 220 311" id="logo-html" xmlns="http://www.w3.org/2000/svg"><path fill="#DF4724" d="M20 286L0 61.1h220L200 286l-90.1 25L20 286z"/><path fill="#EA5E29" d="M110 291.9l72.8-20.2 17.1-192.2H110V292z"/><path fill="#EFEFF0" d="M110 163H73.5L71 134.6h39V107H41l.6 7.4 6.8 76H110V163zm0 71.6h-.1l-30.7-8.3-2-22H49.6l3.9 43.3 56.4 15.7h.1v-28.7z"/><path fill="#252422" d="M20.5 0h14v13.8h12.8V0h14v42h-14V27.8H34.5v14h-14V0zm59.2 14H67.4V0H106v14H93.7v28h-14V14zm32.4-14h14.6l9 14.7 9-14.7h14.6v42h-14V21.1L135.7 36h-.2l-9.7-15v21h-13.7V0zm54.1 0h14v28H200v14h-33.7V0z"/><path fill="#FEFEFE" d="M109.9 163v27.5h34l-3.3 35.8-30.7 8.3v28.7l56.5-15.7.4-4.6 6.5-72.7.6-7.4h-64zm0-56v27.7h66.5l.6-6.2 1.2-14 .7-7.4h-69z"/></symbol><symbol fill="none" viewBox="0 0 216 401" id="logo-java" xmlns="http://www.w3.org/2000/svg"><path fill="#EA232D" d="M135.5 1a31.4 31.4 0 016.6 26.5 60 60 0 01-14.4 27.3 133 133 0 01-18 17.2C102 78 94.6 84.6 90 93c-4 7-5 15.5-2.2 23 4.4 13 14.8 22.5 20.5 34.7a278.1 278.1 0 01-18.1-17.3 83 83 0 01-15.4-21.2 25.4 25.4 0 01-1.8-18c2-6.1 6.3-11 10.6-15.5 12-12 27-21 38.7-33.2 6.6-6.7 12-14.8 13.8-24 1.6-6.9.8-13.9-.6-20.6z"/><path stroke="#EA232D" stroke-miterlimit="10" stroke-width=".9" d="M135.5 1a31.4 31.4 0 016.6 26.5 60 60 0 01-14.4 27.3 133 133 0 01-18 17.2C102 78 94.6 84.6 90 93c-4 7-5 15.5-2.2 23 4.4 13 14.8 22.5 20.5 34.7a278.1 278.1 0 01-18.1-17.3 83 83 0 01-15.4-21.2 25.4 25.4 0 01-1.8-18c2-6.1 6.3-11 10.6-15.5 12-12 27-21 38.7-33.2 6.6-6.7 12-14.8 13.8-24 1.6-6.9.8-13.9-.6-20.6z"/><path fill="#EA232D" d="M125.7 77c12.9-9.6 28-15.7 43.4-20-12.2 7.6-24.8 14.7-35.3 24.6a32.8 32.8 0 00-9 13c-1.3 3.8-.8 8 .7 11.6 2.8 6.4 7.6 11.6 11.2 17.5 3 5 3.6 11.4 1.2 16.8a44.5 44.5 0 01-17.6 18.3c-1 .5-1.8 1.5-2.9 1.7a23.2 23.2 0 008.4-17c-.1-5-2.9-9.3-6-12.9-6.7-7.8-12.2-17.8-11-28.4 1-10.6 8.7-19.2 16.9-25.3z"/><path stroke="#EA232D" stroke-miterlimit="10" stroke-width=".9" d="M125.7 77c12.9-9.6 28-15.7 43.4-20-12.2 7.6-24.8 14.7-35.3 24.6a32.8 32.8 0 00-9 13c-1.3 3.8-.8 8 .7 11.6 2.8 6.4 7.6 11.6 11.2 17.5 3 5 3.6 11.4 1.2 16.8a44.5 44.5 0 01-17.6 18.3c-1 .5-1.8 1.5-2.9 1.7a23.2 23.2 0 008.4-17c-.1-5-2.9-9.3-6-12.9-6.7-7.8-12.2-17.8-11-28.4 1-10.6 8.7-19.2 16.9-25.3v0z"/><path fill="#3471C1" d="M171.5 154c2.8-3.4 7.3-4.3 11.3-4.8 7.1-1 14.6.8 20 5.7 4.4 4 6.8 10 5.9 16-1 6.8-5.6 12.6-10.8 17-9.4 7.4-21 11.8-32.6 14.8.7-.8 1.4-1.4 2.3-2a79.7 79.7 0 0024-18c4-4.8 7-11 5.7-17.4-1.3-7.3-8.5-12.6-15.7-13-3.5-.4-6.8 1-10 1.6z"/><path stroke="#3471C1" stroke-miterlimit="10" stroke-width=".9" d="M171.5 154c2.8-3.4 7.3-4.3 11.3-4.8 7.1-1 14.6.8 20 5.7 4.4 4 6.8 10 5.9 16-1 6.8-5.6 12.6-10.8 17-9.4 7.4-21 11.8-32.6 14.8.7-.8 1.4-1.4 2.3-2a79.7 79.7 0 0024-18c4-4.8 7-11 5.7-17.4-1.3-7.3-8.5-12.6-15.7-13-3.5-.4-6.8 1-10 1.6v0z"/><path fill="#3471C1" d="M37.6 160a96 96 0 0139-8.4c-7.8 2.2-15.8 4.1-23.2 7.6-1.7 1-3.7 1.8-4.7 3.6-.5 1.4 1 2.3 2 2.8 4.5 1.9 9.5 2.1 14.4 2.6 17 1.1 34.2.5 51.2-.6 16.8-1 33.4-3.3 50-6-3.6 1.7-7.4 3.5-10.8 5.7-1.7 1.2-3.8 1.5-5.8 2-20.4 4.5-41.3 6-62 6.2-8.1.1-16.1 0-24.1-.6-9-.6-18-1.2-26.7-3.6-2.5-.7-5.2-1.5-7.2-3.3-1-.8-1-2.4-.1-3.3 2.2-2.3 5.3-3.4 8-4.7z"/><path stroke="#3471C1" stroke-miterlimit="10" stroke-width=".9" d="M37.6 160a96 96 0 0139-8.4c-7.8 2.2-15.8 4.1-23.2 7.6-1.7 1-3.7 1.8-4.7 3.6-.5 1.4 1 2.3 2 2.8 4.5 1.9 9.5 2.1 14.4 2.6 17 1.1 34.2.5 51.2-.6 16.8-1 33.4-3.3 50-6-3.6 1.7-7.4 3.5-10.8 5.7-1.7 1.2-3.8 1.5-5.8 2-20.4 4.5-41.3 6-62 6.2-8.1.1-16.1 0-24.1-.6-9-.6-18-1.2-26.7-3.6-2.5-.7-5.2-1.5-7.2-3.3-1-.8-1-2.4-.1-3.3 2.2-2.3 5.3-3.4 8-4.7z"/><path fill="#3471C1" d="M53.3 188.5a40 40 0 0111.7-5.8c-1.3 1.6-3.2 3.2-3.3 5.4 0 1.4 1 2.4 2.2 3.1 2.2 1.1 4.7 1.5 7.1 1.9a226.6 226.6 0 0073.9-3.4c3.2 3 7 5 11 6.8-14.1 4.2-28.6 6.6-43 7.7-13.8 1-27.7.9-41.4-1.3-5.4-1-11-2.2-15.9-4.7-2-1-4.2-2.5-4.8-4.8-.4-2 1-3.8 2.5-5z"/><path stroke="#3471C1" stroke-miterlimit="10" stroke-width=".9" d="M53.3 188.5a40 40 0 0111.7-5.8c-1.3 1.6-3.2 3.2-3.3 5.4 0 1.4 1 2.4 2.2 3.1 2.2 1.1 4.7 1.5 7.1 1.9a226.6 226.6 0 0073.9-3.4c3.2 3 7 5 11 6.8-14.1 4.2-28.6 6.6-43 7.7-13.8 1-27.7.9-41.4-1.3-5.4-1-11-2.2-15.9-4.7-2-1-4.2-2.5-4.8-4.8-.4-2 1-3.8 2.5-5z"/><path fill="#3471C1" d="M61 217.5c3.1-2.4 6.9-3.7 10.6-4.8-1.2 1.2-3.3 2.6-2.4 4.5 1.8 2.3 5.2 2.6 7.8 3.2 11.3 1.4 22.7 2.3 34 1.5 8.5-.6 16.9-2.1 25.2-3.6a124 124 0 0015 7.4c-8 3.5-16.4 5.8-24.9 7.4-14.2 2.5-29 2.8-43.3.6a60.5 60.5 0 01-18.5-5.8c-2.2-1.2-4.5-2.7-5.5-5.2-.7-2 .5-4 2-5.2z"/><path stroke="#3471C1" stroke-miterlimit="10" stroke-width=".9" d="M61 217.5c3.1-2.4 6.9-3.7 10.6-4.8-1.2 1.2-3.3 2.6-2.4 4.5 1.8 2.3 5.2 2.6 7.8 3.2 11.3 1.4 22.7 2.3 34 1.5 8.5-.6 16.9-2.1 25.2-3.6a124 124 0 0015 7.4c-8 3.5-16.4 5.8-24.9 7.4-14.2 2.5-29 2.8-43.3.6a60.5 60.5 0 01-18.5-5.8c-2.2-1.2-4.5-2.7-5.5-5.2-.7-2 .5-4 2-5.2z"/><path fill="#3471C1" d="M24 236.4a66 66 0 0119-4c2.6 0 5.2.1 7.5 1.5a57 57 0 00-22.4 5.9c-1.5.9-3.2 1.9-3.8 3.7 0 2 2.3 2.7 3.8 3.3 9.7 3.6 20 4.8 30.1 5.8 30.2 2.6 60.6 2 90.8-.8 11.4-1.3 22.9-2.6 34-5.7 3.4-1.2 7.4-2.4 9.8-5.5 1.4-1.9.4-4.2-1-5.8 2.3 1.3 5.5 2.9 5 6-.8 3.1-4 4.8-6.8 6.3-8.5 4.3-17.9 6.5-27.2 8.5a372 372 0 01-82.5 5.7c-20.8-.7-41.6-2.7-62.1-6.3-3.7-.8-7.8-1.6-10.5-4.4-1.7-2-.2-4.8 1.5-6.3 4.2-3.8 9.6-6 14.9-8z"/><path stroke="#3471C1" stroke-miterlimit="10" stroke-width=".9" d="M24 236.4a66 66 0 0119-4c2.6 0 5.2.1 7.5 1.5a57 57 0 00-22.4 5.9c-1.5.9-3.2 1.9-3.8 3.7 0 2 2.3 2.7 3.8 3.3 9.7 3.6 20 4.8 30.1 5.8 30.2 2.6 60.6 2 90.8-.8 11.4-1.3 22.9-2.6 34-5.7 3.4-1.2 7.4-2.4 9.8-5.5 1.4-1.9.4-4.2-1-5.8 2.3 1.3 5.5 2.9 5 6-.8 3.1-4 4.8-6.8 6.3-8.5 4.3-17.9 6.5-27.2 8.5a372 372 0 01-82.5 5.7c-20.8-.7-41.6-2.7-62.1-6.3-3.7-.8-7.8-1.6-10.5-4.4-1.7-2-.2-4.8 1.5-6.3 4.2-3.8 9.6-6 14.9-8v0z"/><path fill="#3471C1" d="M190.1 259.2c6.7-2.4 14-4.8 19-10.1-1 5.7-6 9.7-10.9 12.3-9.4 5-20 7.2-30.5 9.1a386.2 386.2 0 01-113.5-.3c-3.6-1-7.5-1.6-10.6-3.8 13.4 2.3 27.1 3.2 40.8 3.8 22.4.6 45-.2 67.3-3 12.9-1.8 25.9-4 38.4-8z"/><path stroke="#3471C1" stroke-miterlimit="10" stroke-width=".9" d="M190.1 259.2c6.7-2.4 14-4.8 19-10.1-1 5.7-6 9.7-10.9 12.3-9.4 5-20 7.2-30.5 9.1a386.2 386.2 0 01-113.5-.3c-3.6-1-7.5-1.6-10.6-3.8 13.4 2.3 27.1 3.2 40.8 3.8 22.4.6 45-.2 67.3-3 12.9-1.8 25.9-4 38.4-8v0z"/><path fill="#EA232D" d="M14.5 358v-65.6l13.7.1V366c-.2 6.9-.3 14-3.7 20.2A32.8 32.8 0 017.4 400c-2.2-2.4-4.2-5-6.4-7.3 5.6-3.3 11.2-8 12.5-14.7 1.3-6.6.9-13.3 1-20z"/><path stroke="#EA232D" stroke-miterlimit="10" stroke-width=".9" d="M14.5 358v-65.6l13.7.1V366c-.2 6.9-.3 14-3.7 20.2A32.8 32.8 0 017.4 400c-2.2-2.4-4.2-5-6.4-7.3 5.6-3.3 11.2-8 12.5-14.7 1.3-6.6.9-13.3 1-20z"/><path fill="#EA232D" d="M57.3 349.6c-3 1-5.7 3-6.5 6.1-.9 3.4-.6 7.4 1.6 10.3 2.1 2.8 6 3.5 9.3 3a25 25 0 0012.3-6v-15c-5.6 0-11.3-.2-16.7 1.6zm-16.5-31c9-3.8 19-5.8 28.8-4.7 5 .6 10.3 2.5 13.6 6.5 2.7 3.5 3.7 8 3.6 12.3v44.7h-10l-1-6.7c-3.8 3-7.8 5.8-12.6 7a27.2 27.2 0 01-16.6-.8c-4-1.6-7.2-5.3-8.4-9.6a20.2 20.2 0 013.6-18.4c4-4.6 10-6.9 15.8-8 5.4-1 10.9-1 16.4-1-.1-4.2.7-8.8-1.7-12.5-2-3-5.5-4-8.7-4.2a51.3 51.3 0 00-21 3.5l-1.8-8z"/><path stroke="#EA232D" stroke-miterlimit="10" stroke-width=".9" d="M57.3 349.6c-3 1-5.7 3-6.5 6.1-.9 3.4-.6 7.4 1.6 10.3 2.1 2.8 6 3.5 9.3 3a25 25 0 0012.3-6v-15c-5.6 0-11.3-.2-16.7 1.6zm-16.5-31c9-3.8 19-5.8 28.8-4.7 5 .6 10.3 2.5 13.6 6.5 2.7 3.5 3.7 8 3.6 12.3v44.7h-10l-1-6.7c-3.8 3-7.8 5.8-12.6 7a27.2 27.2 0 01-16.6-.8c-4-1.6-7.2-5.3-8.4-9.6a20.2 20.2 0 013.6-18.4c4-4.6 10-6.9 15.8-8 5.4-1 10.9-1 16.4-1-.1-4.2.7-8.8-1.7-12.5-2-3-5.5-4-8.7-4.2a51.3 51.3 0 00-21 3.5l-1.8-8z"/><path fill="#EA232D" d="M174.3 349.7c-2.8 1-5.4 3-6.3 6-1 3.4-.7 7.4 1.5 10.3 2.2 2.9 6 3.5 9.5 3 4.6-.6 8.8-3.1 12.2-6.2v-14.7c-5.7 0-11.5-.3-17 1.6zm-16.4-31c9-3.9 19-6 29-4.8 4.9.6 10 2.4 13.2 6.3 3 3.6 4 8.5 4 13.2-.1 14.7 0 29.3-.2 44h-10l-1-6.7c-4.7 4-10.3 7.2-16.6 7.8-5.8.5-12.3-.2-16.8-4.4-4.8-4.4-5.6-11.5-4.4-17.6a18.7 18.7 0 0110.4-12.6c8-3.9 17-4 25.7-4-.2-4 .6-8.4-1.5-12-1.6-3-5-4.3-8.2-4.7-7.4-.8-14.8 1-21.7 3.5l-1.9-8z"/><path stroke="#EA232D" stroke-miterlimit="10" stroke-width=".9" d="M158 318.7c9-3.9 19-6 28.8-4.8 5 .6 10 2.4 13.3 6.3 3 3.6 4 8.5 4 13.2-.1 14.7 0 29.3-.2 44h-10l-1-6.7c-4.7 4-10.3 7.2-16.6 7.8-5.8.5-12.3-.2-16.8-4.4-4.8-4.4-5.6-11.5-4.4-17.6a18.7 18.7 0 0110.4-12.6c8-3.9 17-4 25.7-4-.2-4 .6-8.4-1.5-12-1.6-3-5-4.3-8.2-4.7-7.4-.8-14.8 1-21.7 3.5l-1.9-8m16.3 31c-2.7 1-5.3 3-6.2 6-1 3.4-.7 7.4 1.5 10.3 2.2 2.9 6 3.5 9.5 3 4.6-.6 8.8-3.1 12.2-6.2v-14.7c-5.7 0-11.5-.3-17 1.6z"/><path fill="#EA232D" d="M94.4 314.7h14l8.1 26.3c1.6 5.4 3.6 10.8 4.8 16.3.6 2.4 1.1 5 1.8 7.4 5.8-16.2 10.2-33 12.4-50h13.6c-3.9 21.6-10.1 42.8-19.4 62.7h-16l-19.3-62.7z"/><path stroke="#EA232D" stroke-miterlimit="10" stroke-width=".9" d="M94.4 314.7h14l8.1 26.3c1.6 5.4 3.6 10.8 4.8 16.3.6 2.4 1.1 5 1.8 7.4 5.8-16.2 10.2-33 12.4-50h13.6c-3.9 21.6-10.1 42.8-19.4 62.7h-16l-19.3-62.7z"/><path fill="#EA232D" d="M206.7 313.5H205v-.6h4v.6h-1.7v4.8h-.7v-4.8z"/><path stroke="#EA232D" stroke-miterlimit="10" stroke-width=".9" d="M206.7 313.5H205v-.6h4v.6h-1.7v4.8h-.7v-4.8z"/><path fill="#EA232D" d="M214.2 316l-.1-2.4-.7 2-1 2.6h-.5l-.9-2.5a25 25 0 01-.6-2.1v2.4l-.2 2.3h-.7l.4-5.4h.9l.9 2.6.5 1.8.6-1.8 1-2.6h.9l.3 5.4h-.7l-.1-2.4z"/><path stroke="#EA232D" stroke-miterlimit="10" stroke-width=".9" d="M214.2 316l-.1-2.4h0l-.7 2-1 2.6h-.5l-.9-2.5a25 25 0 01-.6-2.1h0v2.4l-.2 2.3h-.7l.4-5.4h.9l.9 2.6.5 1.8h0l.6-1.8 1-2.6h.9l.3 5.4h-.7l-.1-2.4z"/></symbol><symbol fill="none" viewBox="0 0 225 308" id="logo-js" xmlns="http://www.w3.org/2000/svg"><path fill="#E3BD22" d="M21.8 282.2L1 52.7h224l-20.6 229.4-91.6 25.9-91-25.8zm165.7-12.5L205 73.1h-91.7l.7 216.8 73.6-20.2zM104.6 102H82.3l-.2 117.7-43.3-11.8.1 26.9 65.7 17.7V102z"/><path fill="#fff" d="M97.3 250.3c-3-1-17.2-4.8-31.7-8.7l-26.3-7.1v-13.3c0-13 0-13.2 1.4-12.7l21.3 6 20 5.4.2-58.7.1-58.7h21.9v74.7c0 59.3-.2 74.6-.8 74.6-.5 0-3.3-.8-6.1-1.5z"/><path fill="#FDD700" d="M113.2 73h91.7l-17.4 196.6-74.3 20.3v-217zm69.6 163.7l6-73.5-44.5 5v-39.3l47.5-.2 2-26.8-71.8.3 1 97.7 43.3-7.5-.6 21.8-43.7 11.6.4 26.6 60.4-15.7z"/><path fill="#fff" fill-rule="evenodd" d="M189.3 163l-6 73.6-60.4 15.8-.4-26.7 43.7-11.6.6-21.8-43.4 7.5-1-97.6 71.8-.4-2 26.8-47.4.2v39.3l44.5-5z" clip-rule="evenodd"/><path fill="#231F20" fill-rule="evenodd" d="M95.3 0H106v38H78.5V27.4h17L95.3 0zm16.2 0h35.4v9.8h-25.6v4.6H147V38h-35.4v-9.8H137v-4.6h-25.6V0z" clip-rule="evenodd"/></symbol><symbol fill="none" viewBox="0 0 308 308" id="logo-lua" xmlns="http://www.w3.org/2000/svg"><path fill="#00007D" d="M271.8 154.02C271.8 88.98 219 36.2 153.96 36.2S36.15 88.98 36.15 154.02c0 65.04 52.79 117.82 117.82 117.82 65.04 0 117.82-52.78 117.82-117.82z"/><path fill="#fff" d="M237.3 105.2a34.52 34.52 0 00-34.51-34.5 34.52 34.52 0 000 69.02 34.52 34.52 0 0034.5-34.51z"/><path fill="#00007D" d="M306.3 36.2a34.52 34.52 0 00-34.5-34.5 34.52 34.52 0 00-34.52 34.5 34.52 34.52 0 0034.51 34.5 34.52 34.52 0 0034.51-34.5z"/><path fill="#fff" d="M73.64 136.84h10.3v67h38.16v9.06H73.64v-76.06zm67.05 20.61v36.81c0 2.84.44 5.15 1.31 6.94 1.61 3.32 4.62 4.97 9.03 4.97 6.31 0 10.62-2.9 12.9-8.7 1.25-3.1 1.87-7.36 1.87-12.78v-27.24h9.32v55.45h-8.8l.1-8.18a18.76 18.76 0 01-4.42 5.34c-3.49 2.9-7.72 4.35-12.7 4.35-7.76 0-13.04-2.65-15.85-7.93-1.53-2.83-2.29-6.6-2.29-11.33v-37.7h9.53zm79.37 21.89c2.14-.27 3.57-1.17 4.3-2.68.41-.83.62-2.03.62-3.59 0-3.19-1.13-5.5-3.38-6.94-2.26-1.44-5.5-2.16-9.7-2.16-4.85 0-8.3 1.32-10.33 3.96-1.13 1.46-1.87 3.63-2.22 6.5h-8.7c.17-6.85 2.39-11.62 6.65-14.3 4.25-2.68 9.2-4.03 14.81-4.03 6.52 0 11.81 1.25 15.88 3.73 4.03 2.49 6.05 6.35 6.05 11.6v31.95c0 .97.2 1.74.6 2.33.4.58 1.23.88 2.5.88a22.32 22.32 0 003.05-.31v6.88c-1.44.42-2.54.68-3.3.78-.76.1-1.8.16-3.1.16-3.22 0-5.55-1.14-7-3.42-.76-1.2-1.3-2.92-1.6-5.13-1.9 2.49-4.63 4.64-8.18 6.47a25.32 25.32 0 01-11.76 2.75c-5.14 0-9.34-1.56-12.6-4.68a15.54 15.54 0 01-4.9-11.72c0-5.13 1.6-9.11 4.82-11.94 3.2-2.83 7.42-4.57 12.63-5.22l14.86-1.87zm-19.62 25.18a10.96 10.96 0 006.99 2.33c3.28 0 6.45-.76 9.53-2.28 5.17-2.51 7.76-6.63 7.76-12.35v-7.5c-1.14.73-2.6 1.34-4.4 1.82-1.78.49-3.54.83-5.26 1.04l-5.63.72c-3.38.45-5.92 1.16-7.62 2.12-2.88 1.62-4.32 4.2-4.32 7.75 0 2.68.98 4.8 2.95 6.35z"/><path fill="#929292" d="M159.45 308l-.12-3.54c4.37-.15 8.77-.5 13.09-1.02l.43 3.5c-4.42.55-8.93.9-13.4 1.06zm-13.44-.11c-4.46-.23-8.96-.66-13.37-1.27l.48-3.5c4.32.6 8.71 1.01 13.07 1.24l-.18 3.53zm40.1-3.15l-.74-3.46c4.27-.9 8.54-2.01 12.7-3.29l1.04 3.38c-4.26 1.3-8.64 2.44-13 3.37zm-66.69-.55c-4.35-1-8.7-2.2-12.95-3.58l1.09-3.36c4.14 1.34 8.4 2.52 12.65 3.5l-.79 3.44zm92.36-7.31l-1.33-3.28c4.04-1.63 8.06-3.47 11.94-5.46l1.6 3.15a154.5 154.5 0 01-12.21 5.59zm-117.91-.98c-4.1-1.74-8.19-3.69-12.13-5.79L83.4 287c3.85 2.05 7.84 3.96 11.85 5.66l-1.38 3.25zm141.81-11.24l-1.87-3c3.7-2.31 7.33-4.82 10.81-7.45l2.13 2.82a155.53 155.53 0 01-11.06 7.63zm-165.52-1.38a155.47 155.47 0 01-10.95-7.8l2.18-2.8c3.44 2.7 7.04 5.26 10.7 7.64l-1.93 2.96zm186.95-14.8l-2.36-2.63c3.24-2.92 6.39-6.02 9.36-9.2l2.59 2.4a156.03 156.03 0 01-9.59 9.43zM49 266.74a156.13 156.13 0 01-9.42-9.57l2.62-2.37a152.2 152.2 0 009.21 9.36l-2.4 2.58zm226.44-17.9l-2.78-2.18c2.69-3.44 5.25-7.03 7.63-10.69l2.97 1.93a155.5 155.5 0 01-7.82 10.94zM31 246.8a155.1 155.1 0 01-7.63-11.06l3-1.88c2.31 3.69 4.82 7.32 7.45 10.8L31 246.81zm259.08-20.49l-3.12-1.66c2.05-3.85 3.96-7.84 5.67-11.85l3.25 1.38c-1.75 4.11-3.7 8.2-5.8 12.13zm-273.34-2.26a154.2 154.2 0 01-5.6-12.21l3.28-1.33a150.8 150.8 0 005.46 11.93l-3.14 1.61zm283.85-22.46l-3.36-1.1c1.34-4.14 2.52-8.4 3.5-12.65l3.45.8c-1 4.35-2.21 8.7-3.59 12.95zM6.64 199.18c-1.3-4.27-2.44-8.64-3.37-13l3.46-.74c.9 4.26 2.01 8.54 3.3 12.7l-3.39 1.04zm299.97-23.75l-3.5-.49c.6-4.3 1.02-8.7 1.25-13.07l3.53.18a155.5 155.5 0 01-1.28 13.38zM1.05 172.92c-.54-4.42-.9-8.93-1.05-13.4l3.53-.12c.16 4.36.5 8.77 1.03 13.09l-3.5.43zm303.42-24.18c-.16-4.36-.5-8.76-1.03-13.1l3.5-.42c.55 4.43.9 8.94 1.06 13.4l-3.53.12zM3.63 146.26L.1 146.1c.23-4.47.65-8.97 1.26-13.38l3.5.48c-.6 4.31-1 8.71-1.23 13.07zm297.64-23.57c-.9-4.27-2.01-8.54-3.29-12.72l3.38-1.03a154.6 154.6 0 013.37 13.02l-3.46.73zM7.23 120.28l-3.44-.79c1-4.35 2.2-8.7 3.57-12.95l3.36 1.08c-1.34 4.15-2.52 8.4-3.49 12.66zM293.6 97.59a151.57 151.57 0 00-5.45-11.95l3.15-1.6c2.02 3.97 3.9 8.09 5.57 12.23l-3.27 1.32zM15.3 95.32l-3.25-1.38c1.74-4.11 3.69-8.2 5.79-12.14l3.12 1.66a150.53 150.53 0 00-5.66 11.86zm12.32-23.18l-2.96-1.92c2.43-3.75 5.05-7.43 7.8-10.95l2.79 2.18a152 152 0 00-7.63 10.7zm16.15-20.69l-2.58-2.4c3.04-3.27 6.26-6.44 9.57-9.44l2.37 2.63a152.32 152.32 0 00-9.36 9.21zm19.48-17.58l-2.13-2.82c3.56-2.7 7.28-5.27 11.05-7.64l1.88 3a151.6 151.6 0 00-10.8 7.46zM236 27.73l-.19-.13 1.92-2.96.19.12-1.92 2.97zm-11.51-6.78a151.14 151.14 0 00-11.87-5.63l1.38-3.26c4.11 1.74 8.2 3.68 12.14 5.77l-1.65 3.12zM85.48 19.91l-1.62-3.14a153.9 153.9 0 0112.22-5.6l1.33 3.27a150.55 150.55 0 00-11.93 5.47zm114.83-9.17a151.1 151.1 0 00-12.66-3.5l.8-3.44c4.34 1 8.7 2.2 12.95 3.57l-1.09 3.37zm-90.53-.7l-1.04-3.38a153.7 153.7 0 0113-3.38l.75 3.46c-4.27.91-8.55 2.02-12.71 3.3zm64.95-5.17c-4.32-.6-8.72-1.02-13.07-1.24l.18-3.53c4.46.23 8.96.65 13.38 1.27l-.49 3.5zm-39.3-.3l-.43-3.5c4.42-.55 8.93-.91 13.4-1.07l.12 3.53c-4.37.16-8.77.5-13.09 1.04z"/></symbol><symbol fill="none" viewBox="0 0 281 309" id="logo-minecraft" xmlns="http://www.w3.org/2000/svg"><g clip-path="url(#kclip0)"><path fill="#97C767" d="M131 305a4817 4817 0 00-117-54l-13-6V46h1L116 8l25-8 45 15 70 23 25 8v199l-18 8a136671 136671 0 00-123 56l-9-4z"/><path fill="#88B858" d="M121 300A22616 22616 0 002 245l-1-71V74l1-28 28-9a53013 53013 0 0187-29l24-8 8 3 7 2-3 1-3 2 3 1 4 1 3-1 4-1 16 5 17 6-4 1-3 1 4 2 4 1 3-1 4-1 24 7 22 8-2 1a188 188 0 00-11 5l8 3 3-1 4-2 5-2 3-1 9 3 10 3 1 100v99l-40 18a28879 28879 0 00-101 46l-19-9zm-15-175v-6h-2l-13-7-2-1v12l8 4 9 4v-6zm-17-20v-6l-2-1-4-2-3-1v12l4 2 4 2 1-6zm37-6l5-2 5-3 4-1-7-4-2-1-4 2-5 2-10-4 4-2 5-2-9-4-5 2-5 2 3 1 6 3-5 2-4 2 19 9 5-2zM27 89v-6l-2-1-4-2-2-1v12l4 2 4 2v-6zm149-3l4-2 5-3 3-1-4-2-6-2-17 8 10 4 5-2zm36-9l4-2-5-2-4-1-4 2-4 2 9 3 4-2zm-102-4l2-1-4-2-4-2 1-1a999 999 0 0116-7l-8-3a383 383 0 00-28 11l5 2 9 4 4 2 2-1 5-2zm83-3l4-2-5-2-5-2-4 2-4 2a1101 1101 0 0110 3l4-1zm36 0l4-3-5-1-4-2-4 2-4 2 9 3 4-1zm-83-4l4-2-5-2-4-2 5-2 3-2-8-3c-9-3-9-3-13-2l-4 2 8 4 9 3-4 2-5 2 9 3 5-1zm64-4l4-2 4-2 3-1-4-2-4-1-4 1-4 2-9 4 9 3 5-2zM64 55l5-2-4-2-3-1-5 1-4 2 7 3 4-1zm108 0l4-2-4-2-4-1-4 1-4 2 8 4 4-2zm71 0l3-1c2-1 1-1-4-3l-4-1-3 1-3 2 1 1a277 277 0 017 2l3-1zM43 50l10-4-4-1-4-2-5 2a1928 1928 0 01-13 5l7 3 9-3zm46-4l8-3-4-2-3-1-4 1a297 297 0 00-13 6 213 213 0 017 2l9-3zm66 2l10-4v-2l-4-1a1379 1379 0 00-11-5l8-3 7-3-3-1-4-2-8 3-8 3 3 2 4 2-4 1-4 2 5 1 3 2-4 2-3 1 8 4 5-2zm-44-10a1068 1068 0 0112-5l-7-2-5 1-7 3c-5 2-5 1-1 3l4 2 4-2zm93-3l3-2-4-1-4-2-3 2-4 1 8 3 4-1zm-48-13l-1-1-3-1-3-1-3 1c-11 4-12 4-11 5l3 1 3 1 7-2 8-3zm25 2l-4-1-4-1-3 1-3 1 4 2 3 1 3-1 4-2zm-77-1c5-2 5-2 2-3l-4-1-5 1c-4 1-4 2-1 2l2 1h6zm20-2l8-2-4-2-3-1-3 1a70 70 0 00-6 2l-7 2 7 3 8-3z"/><path fill="#B7835A" d="M121 300A22616 22616 0 002 245l-1-81V83l4 2c5 2 5 3 5-4l-1-6-3-2-4-2V46h1l10-3a3600 3600 0 0168-20l3 1 4-1 4-2-3-1-3-1 51-18 4-1 8 3 7 2-3 1-4 2 4 1 4 1 3-1 4-1 16 5a903 903 0 0114 7c-5 1-5 1 0 3l4 1 3-1 4-1a312 312 0 0146 15 144 144 0 01-14 6l5 2 4 2-4 1-4 2-9-4 4-1 2-2-5-2-3-1-8 3-7 3 3 1 5 3 6 2a511 511 0 0114 5 102 102 0 0014-6c2-1 1-1-3-3l-4-1c-1-1 1-1 3-2l4-2 4 2 10 3 5 1 4-1 4-2v199l-40 18a29633 29633 0 00-101 46l-19-9zm-15-175v-6l-4-2-5-2v-12l-2-2a466 466 0 01-13-6h-2v24l4 2 5 3 16 7 1-6zm30-22a6113 6113 0 0115-6l-20-9-5 2-5 2-1-1-5-2-3-1 5-2 4-2-9-4-8-5h1l8-3 4 2 5 2 5 2 4 2 5-2 5-2-9-4-5-2-5-2-4 2-5 2-4-2-5-2 9-4 9-4-8-3-7 3-10 3-2 1-4-2-5-2a60 60 0 00-8-3l5-2 4-2-4-2-3-1a520 520 0 0117-7l-8-3-5 1a1129 1129 0 01-13 5l4 2 4 2-4 1-4 2 2 2 4 2-4 2a17355 17355 0 00-14 5c0 1 7 4 8 3a60 60 0 009-3l9 4-5 2-4 2h1a235 235 0 017 3l5-2 5-1 8 4-4 2-5 2 9 4 9 4-5 2-4 2a236 236 0 0029 14l5-3zM30 84a496 496 0 0114 6V79l-3-2-5-2a193 193 0 01-15-7l-2-1v25l4 1 4 2V83l3 1zm49-2l-4-2-4-2v13l4 1 4 2 1-6v-6h-1zm106 8l4-2-4-2-4-2 4-2 4-2-5-3-5-1-9 4-9 4a165 165 0 0019 8l5-2zm-98-4l-1-1v1h1zm125-8l4-3-9-3-9 4 10 3 4-1zm-20-8l6-2a116 116 0 0116-8l4-1 4-2-4-2c-5-2-5-2-6-1a28079 28079 0 01-33 14l9 4 4-2zm38 0l3-3-5-1-4-2-4 2-4 2 9 3 5-1zm-84-4l4-2-4-2-4-2 4-2 4-1-4-2-5-2 9-3 17-7-9-3-8-4a146 146 0 0116-6l-8-3-16 6 3 2 4 2-4 1-4 2 2 1 6 2-8 3-7 3c-2 1-2 1-7-1l-4-2-3 2-4 2 7 3 9 4-4 2-4 1 4 2 4 2 9 4 5-2zM45 62l5-2-4-1-4-2-4 1c-6 2-6 2-4 3a512 512 0 017 3l4-2zm20-7l4-2-4-2-3-1-5 1-5 2 4 2 3 2h1l5-2zm-33-1l21-8-3-1-4-2 9-3 9-3-3-2-4-1-9 3a1652 1652 0 01-19 6l3 2 3 1-9 4-10 3 8 4 8-3zm140 2a126 126 0 014-3l-4-2-4-1-5 1-4 2 2 1 4 2h7zm17-8l4-2-4-1-4-2 4-2 3-1-4-2-5-1-3 1-4 2 4 1 4 2-4 2-3 1 8 4 4-2zm-69-7l2-1v-1l-2-1-3-1h-1l4-2 4-2-4-1-4-2-4 2-8 3c-6 2-6 1-1 3 13 5 12 5 13 4l4-1zm84-6l4-2-5-1c-4-2-4-2-8 0a116 116 0 01-3 1l8 3 4-1zm-17-6l3-2-4-1-4-2-8-2-8 3 17 5 4-1zm-77-3l13-4c11-4 11-3 5-5l-3-1-4 1-4 2-4-2-4-1-8 2-8 3 4 2a840 840 0 0113 3zm39-2l8-3-4-1-4-1-8 2-8 3 2 1a374 374 0 016 2l8-3z"/><path fill="#72B147" d="M130 304a1938 1938 0 00-55-25l-13-6v-12l-3-2-5-1v5l-1 6a989 989 0 01-21-10l-4-2-1-6v-6l-4-2-4-2v12l-6-2-8-4-3-2-1-16 1-83a104 104 0 018 3v-24l-4-2-4-2-1-19V83l4 2c5 2 5 3 5-4l-1-6-3-2-4-2V46h1l10-3a3599 3599 0 0168-20l3 1 4-1 4-2-3-1-3-1 51-18 4-1 8 3 7 2-3 1-4 2 4 1 4 1 3-1 4-1 16 5a900 900 0 0114 7c-5 1-5 1 0 3l4 1 3-1 4-1a312 312 0 0146 15 144 144 0 01-14 6l5 2 4 2-4 1-4 2-9-4 4-1 2-2-5-2-3-1-8 3-7 3 3 1 5 3 6 2a508 508 0 0114 5 102 102 0 0014-6c2-1 1-1-3-3l-4-1c-1-1 1-1 3-2l4-2 4 2 10 3 5 1 4-1 4-2v199l-43 19a143251 143251 0 01-98 45l-10-5zm-7-34v-6l-4-2-4-2v12l4 2 4 2v-6zm18-4v-6l-3-2a926 926 0 01-14-6v12l8 4 8 4 1-6zm-44-8v-6l-4-2-4-2v12l8 4v-6zm-61-16v-6l-3-1-5-2h-1v12l4 2 5 1v-6zm96-5v-6l-1-1-4-2-3-1v12l4 2 4 2v-6zm-70-7v-6l-3-2-4-2h-1v12l4 2 4 2v-6zm35-9v-6l-8-4-8-4h-1v12l8 4 9 4v-6zm26-7l-17-7v12l9 4 8 4v-13zm-70-1v-6l-4-2-4-2v13l4 1 4 2v-6zm9-8v-6l-2-1-4-2-2-1v12l4 2 4 2v-6zm-17-8v-6l-8-4-9-4v12l17 8v-6zm96-18v-7l-4-1-4-2-1 6v6l4 2 4 2 1-6zm-35-4v-6l-9-4-8-4v12l17 8v-6zm-26-12v-6l-9-4-8-4v12l2 1a576 576 0 0115 7v-6zm-44-8v-6l-8-3-9-4v12l3 1a480 480 0 0114 6v-6zm8-8v-6l-3-2-4-2-1 6v6l4 2 4 2v-6zm62-22v-6l-4-2-5-2v-12l-2-2a466 466 0 01-13-6h-2v24l4 2 5 2 16 8 1-6zm-70-7v-6l-4-2-4-2-1 6v6l4 2 5 2v-6zm100-15a5728 5728 0 0115-6l-20-9-5 2-5 2-1-1-5-2-3-1 5-2 4-2-9-4-8-5h1l8-3 4 2 5 2 5 2 4 2 5-2 5-2-9-4-5-2-5-2-4 2-5 2-4-2-5-2 9-4 9-4-8-3-7 3-10 3-2 1-4-2-5-2a60 60 0 00-8-3l5-2 4-2-4-2-3-1a520 520 0 0117-7l-8-3-5 1a1120 1120 0 01-13 5l4 2 4 2-4 1-4 2 2 2 4 2-4 2a16584 16584 0 00-14 5c0 1 7 4 8 3a60 60 0 009-3l9 4-5 2-4 2h1a235 235 0 017 3l5-2 5-1 8 4-4 2-5 2 9 4 9 4-5 2-4 2a238 238 0 0029 14l5-3zM30 84a496 496 0 0114 6V79l-3-2-5-2a193 193 0 01-15-7l-2-1v25l4 1 4 2V83l3 1zm49-2l-4-2-4-2v13l4 1 4 2 1-6v-6h-1zm106 8l4-2-4-2-4-2 4-2 4-2-5-3-5-1-9 4-9 4a165 165 0 0019 8l5-2zm-98-4l-1-1v1h1zm125-8l4-3-9-3-9 4 10 3 4-1zm-20-8l6-2a116 116 0 0116-8l4-1 4-2-4-2c-5-2-5-2-6-1l-7 2a196 196 0 00-19 9l-7 3 9 4 4-2zm38 0l3-3-5-1-4-2-4 2-4 2 9 3 5-1zm-84-4l4-2-4-2-4-2 4-2 4-1-4-2-5-2 9-3 17-7-9-3-8-4a145 145 0 0116-6l-8-3-16 6 3 2 4 2-4 1-4 2 2 1 6 2-8 3-7 3c-2 1-2 1-7-1l-4-2-3 2-4 2 7 3 9 4-4 2-4 1 4 2 4 2 9 4 5-2zM45 62l5-2-4-1-4-2-4 1c-6 2-6 2-4 3a512 512 0 017 3l4-2zm20-7l4-2-4-2-3-1-5 1-5 2 4 2 3 2h1l5-2zm-33-1l21-8-3-1-4-2 9-3 9-3-3-2-4-1-9 3a1653 1653 0 01-19 6l3 2 3 1-9 4-10 3 8 4 8-3zm140 2a126 126 0 014-3l-4-2-4-1-5 1-4 2 2 1 4 2h7zm17-8l4-2-4-1-4-2 4-2 3-1-4-2-5-1-3 1-4 2 4 1 4 2-4 2-3 1 8 4 4-2zm-69-7l2-1v-1l-2-1-3-1h-1l4-2 4-2-4-1-4-2-4 2-8 3c-6 2-6 1-1 3 13 5 12 5 13 4l4-1zm84-6l4-2-5-1c-4-2-4-2-8 0a116 116 0 01-3 1l8 3 4-1zm-17-6l3-2-4-1-4-2-8-2-8 3 17 5 4-1zm-77-3l13-4c11-4 11-3 5-5l-3-1-4 1-4 2-4-2-4-1-8 2-8 3 4 2a841 841 0 0113 3zm39-2l8-3-4-1-4-1-8 2-8 3 2 1a374 374 0 016 2l8-3z"/><path fill="#946A49" d="M130 304a1929 1929 0 00-55-25l-13-6v-12l-3-2-5-1v5l-1 6a974 974 0 01-21-10l-4-2-1-6v-6l-4-2-4-2v12l-6-2-8-4-3-2-1-16 1-83a103 103 0 018 3v-24l-4-2-4-2-1-19c0-13 0-19 1-18a306 306 0 018 3v-6l1-6 4 2 4 2v13l5 2 3 1v-6l1-6 8 4 9 4V78l-9-3-8-4v-7l-1-6h-1l-1-1a304 304 0 0128-10l-1-1-4-2-2-1 9-3 9-3-3-2-4-2 4-1 4-2-3-1-3-1 5-2 4-2 4 2 3 1 4-1 9-3 4-1 4 1 4 1a250 250 0 01-26 9l4 2 3 1-12 5-15 5 3 2 3 2-4 1-4 2 4 2 4 2-5 1-5 2-4-2-4-1-5 1-5 2 6 3 7 3v12l4 2 4 2v-6l1-6-3-1-3-1 5-2 5-2 4 2 4 2-4 2-5 1 1 1 3 1 1 1 1 7v5l4 2a78 78 0 019 5l4 2v12h-2a124 124 0 01-6-3l-1 6v6l9 3 8 4 1 7v6l4 2 4 1v-6c0-6-1-6 5-3l4 2v-25l-6-3-9-4-2-2V87l2 1h2l4-2 5-2 5 2 4 2-4 2-5 2 7 4a576 576 0 0022 10l5-3 5-2 4 2c6 3 5 3 11 0l4-2-3-2a400 400 0 01-15-7l-24-10-5-2 4-2 5-2 4 2 5 1c1 1 3 0 6-1l4-2 4 2 5 2 11-5a127 127 0 017-3l-4-2-4-2 2-1 5-2 2-1-4-2-5-2 4-1 4-2 4 2 5 1 5-2 4-1 5 1 4 2-4 2-8 4-5 2 2 1a177 177 0 008 3l-4 2-23 10 14 6 5 2 6-2a1723 1723 0 0147-23l-3-1-5-2 3-2 4-2-5-2-4-1 4-2 3-2 5 2 5 2 5-2 4-2 4 2 5 1 4-1 3-2-3-1a81 81 0 01-11-4l-4-2 3-1 4-2 9 3 10 4 4-2 4-2v199l-43 19a136671 136671 0 01-98 45l-10-5zm-7-34v-6l-4-2-4-2v12l4 2 4 2v-6zm18-4v-6l-3-2a926 926 0 01-14-6v12l8 4 8 4 1-6zm-44-8v-6l-4-2-4-2v12l8 4v-6zm-61-16v-6l-3-1-5-2h-1v12l4 2 5 1v-6zm96-5v-6l-1-1-4-2-3-1v12l4 2 4 2v-6zm-70-7v-6l-3-2-4-2h-1v12l4 2 4 2v-6zm35-9v-6l-8-4-8-4h-1v12l8 4 9 4v-6zm26-7l-17-7v12l9 4 8 4v-13zm-70-1v-6l-4-2-4-2v13l4 1 4 2v-6zm9-8v-6l-2-1-4-2-2-1v12l4 2 4 2v-6zm-17-8v-6l-8-4-9-4v12l17 8v-6zm96-18v-7l-4-1-4-2-1 6v6l4 2 4 2 1-6zm-35-4v-6l-9-4-8-4v12l17 8v-6zm-26-12v-6l-9-4-8-4v12l2 1a576 576 0 0115 7v-6zm-44-8v-6l-8-3-9-4v12l3 1a488 488 0 0114 6v-6zm8-8v-6l-3-2-4-2-1 6v6l4 2 4 2v-6zm79-26v-6l-1-1-5-2-2-1v12l4 2 4 1v-5zm-87-3v-6l-4-2-4-2-1 6v6l4 2 5 2v-6zm105-2v-6h-1l-5-2-3-2 1 7v6l4 2 4 2v-7zm-97-13l-7-3-1 6 1 6 4 2 4 2v-6l-1-7zm18 2v-6l-4-2-4-2v12l4 2 4 2v-6zm35-15h-1 1zM72 78l-5-2-2-1 5-1 5-2-4-2-4-2 10-4 3 2 4 1-1 2h-3l-5 3 4 2 4 2-7 3h-2l-2-1zm16 0l-4-2 5-2 5-2 4 2 4 2-9 3-5-1zm114-8l-4-2 4-2 4-2 5 2 4 2-8 4-5-2zm-75 0l-4-3 4-1 4-2 5 2 4 2-8 3-5-1zm19 0l-4-2 4-2 5-2 4 2 4 2-8 3-5-1zm-55-8l-4-2 4-1 5-2 4 2 4 1-9 4-4-2zm31-2l-8-3a153 153 0 01-16-7l5-2 20-8-2-1-3-2h-2l3-1a969 969 0 005-3l-4-1-4-2-7 3-10 4 4 1 3 2-4 1-4 2-4-2-5-1-7-4 26-9 9-3 4 2 4 1 3-1 4-2 5 2 4 1 8-2a180 180 0 008-4l-12-4-3-1-4 1-4 1-5-1-8-3-4-1-8 3-8 2-3-1-3-1 20-7 19-7 4 2 4 1 3-1 4-1 3 1 4 1-4 1-3 2 4 1 4 1 3-1 4-1 4 1 4 2-3 1-3 1 3 1 3 2-3 1-3 2 3 1 3 1-1 1-6 3-6 2-10 3c-8 3-8 3-12 2l-4-2-4 2-4 1 8 3 5-1 3-2 2 1a112 112 0 006 3 395 395 0 01-16 6l4 2 3 1-4 2-4 2-4-2-5-2-4 2-4 2a427 427 0 0016 7l-9 3zm38-45l4-2-4-1-3-1-4 1-3 1 6 3 4-1zm-24-3l4-2-3-1-4-1-3 1-3 1 6 3 3-1zM64 58l-4-1 5-2 4-2-3-2-3-1 4-2 4-2 1 1a89 89 0 006 3l-4 1-4 2 3 2 4 2-9 3-4-2zm86-1l-4-2-4-2 8-3 9-4 4 2 4 2-4 1-4 2-4 2-4 2h-1zm50-2l-5-2 4-2 3-1a116 116 0 00-9-4l-4-1-4-2 3-1 4-2 5 1 5 2 3-2 4-2-5-1-3-1 2-1 3-2 2-1 4-1 3-2-4-1-4-2-3 2-4 1a217 217 0 01-18-6l4-1 3-2 5 2 4 1 4-1 4-1 8 2 9 3-3 2-4 1 5 2 5 1 3-1 3-1 10 3 8 3-7 3-7 3-4-2-5-1-8 3-7 3 4 2 4 2a90 90 0 01-13 5l-3 1-4-1zM83 51l-3-1 5-2 4-2 3 2 4 2-8 3-5-2zm89 1l-4-2 8-3 9 3-8 3-5-1zm61-4l-4-2h2l3-2c2-1 3-1 7 1l4 1-3 2-4 1-5-1zm-70-7a649 649 0 00-10-6h2l1-1 5-2 5-2 4 2 4 1-3 2-4 2 4 1 4 2-4 1-4 2-4-2zM34 38l-3-1 9-3 10-3 6 2-18 7-4-2zm145-3l-4-2 8-2 8 3-7 2-5-1z"/><path fill="#64A43A" d="M135 306l-8-3-4-2v-6l1-6 3 2 14 6v-37l-3-2-14-6-1-7 1-5 3 1c6 3 5 3 5-4l1-6 4 2 4 1v-12l-4-2-4-1-1 5v6l-4-1-4-2v-13l-9-4-9-4v25l5 2 4 2v13l4 2 4 2v12l-4-2-4-2v12l4 2 4 3v12l-5-2a1621 1621 0 01-12-6v12l-9-4-8-4v-6l-1-6-7-4a310 310 0 00-27-12l-1 6v5l-5-1-3-2v-12l-4-2-4-2-1-6v-7l-4-2-5-2v13l-4-2-4-2v6l-1 6-4-2-4-2v-25l2 1 4 2 3 1v-12l4 2 4 2v-6l1-6 8 4v12l3 1 14 7 1 6v6l4 2 13 6v-12l-4-2-4-2v-12l3 1 4 2h1v-24l-8-4-9-4-1 6v6-1l-5-2-3-1v-13l-9-4-8-3v12l-1 12-3-1c-6-3-5-3-5 4v6l-5-2-4-2v12l-5-2-3-1v-25a127 127 0 018 3v-12l4 2 5 2v-25l-5-2-4-2v-37l-4-2-4-2v-12l3 1c6 3 5 3 5-4v-6l-4-2-4-2-1-6v-6l3 1 6 2v-6l1-6 4 2 4 2v12l4 2 4 2v-6l1-6 8 4 9 4V78l-9-3-8-4v-7l-1-6h-1l-1-1a303 303 0 0128-10l-1-1-4-2-2-1 9-3 9-3-3-2-4-2 4-1 4-2-3-1-3-1 5-2 4-2 4 2 3 1 4-1 9-3 4-1 4 1 4 1a250 250 0 01-26 9l4 2 3 1-12 5-15 5 3 2 3 2-4 1-4 2 4 2 4 2-5 1-5 2-4-2-4-1-5 1-5 2 6 3 7 3v12l4 2 4 2v-6l1-6-3-1-3-1 5-2 5-2 4 2 4 2-4 2-5 1 1 1 3 1 1 1 1 7v5l4 2a78 78 0 019 5l4 2v12h-2a123 123 0 01-6-3l-1 6v6l9 3 8 4 1 7v6l4 2 4 1v-11l3 1 4 2 2 1v-25l-6-3-9-4-2-2V87l2 1h2l4-2 5-2 5 2 4 2-4 2-5 2 7 4a570 570 0 0022 10l5-3 5-2 4 2c6 3 5 3 11 0l4-2-3-2a404 404 0 01-15-7l-24-10-5-2 4-2 5-2 4 2 5 1c1 1 3 0 6-1l4-2 4 2 5 2 11-5a125 125 0 017-3l-4-2-4-2 2-1 5-2 2-1-4-2-5-2 4-1 4-2 4 2 5 1 5-2 4-1 5 1 4 2-4 2-8 4-5 2 2 1a174 174 0 008 3l-4 2-23 10 14 6 5 2 6-2a1720 1720 0 0147-23l-3-1-5-2 3-2 4-2-5-2-4-1 4-2 3-2 5 2 5 2 5-2 4-2 4 2 5 1 4-1 3-2-3-1a81 81 0 01-11-4l-4-2 3-1 4-2 9 3 10 4 4-2 4-2v199l-8 4a2702 2702 0 00-110 50l-21 9-1 1-6-3zm-38-48v-6l-4-2-4-2v12l4 2 4 2v-6zm0-31v-13l-8-3-9-4v25l8 3 9 4v-12zm44-36v-19l-4-1-4-2c-1-1-1 2-1 12v12a99 99 0 01-8-4l-1 7 1 6 8 4 9 4v-19zm-44 5v-6l5 2 4 2v-9a291 291 0 00-1-16l-14-7-2-1v25l-4-2c-6-3-5-3-5 4v6l8 4 9 4v-6zm26-13v-6l-4-2-4-2v12l4 2 4 2v-6zm-69-13v-13l-4-2-5-2v-12l4 2 4 2 1-12-1-13-8-4v12c0 11 0 13-1 12l-4-2-4-1v-25l-4-2-13-6v25l9 4 8 4v12l-5-2a1039 1039 0 01-12-6v13l4 2 4 2v12l5 2 4 2v-6l1-6 4 2 4 2v12l4 2 5 2v-12zm26-8v-5l-9-4-8-4-1 6v6l5 2 4 2v13l4 2 4 2 1-7v-13zm43-4v-6l-2-1-4-2-2-1v13l4 1 4 2v-6zm0-37v-6l-1-1-5-2-2-1v12l4 2 4 1v-5zm18-5v-6h-1l-5-2-3-2 1 7v6l4 2 4 2v-7zm-97-13l-7-3-1 6 1 6 4 2 4 2v-6l-1-7zm18 2v-6l-4-2-4-2v12l4 2 4 2v-6zm35-15h-1 1zM58 221l-4-2v-12l1 1 5 2 2 1v12l-4-2zM72 78l-5-2-2-1 5-1 5-2-4-2-4-2 10-4 3 2 4 1-1 2h-3l-5 3 4 2 4 2-7 3h-2l-2-1zm16 0l-4-2 5-2 5-2 4 2 4 2-9 3-5-1zm114-8l-4-2 4-2 4-2 5 2 4 2-8 4-5-2zm-75 0l-4-3 4-1 4-2 5 2 4 2-8 3-5-1zm19 0l-4-2 4-2 5-2 4 2 4 2-8 3-5-1zm-55-8l-4-2 4-1 5-2 4 2 4 1-9 4-4-2zm31-2l-8-3a153 153 0 01-16-7l5-2 20-8-2-1-3-2h-2l3-1a969 969 0 005-3l-4-1-4-2-7 3-10 4 4 1 3 2-4 1-4 2-4-2-5-1-7-4 26-9 9-3 4 2 4 1 3-1 4-2 5 2 4 1 8-2a180 180 0 008-4l-12-4-3-1-4 1-4 1-5-1-8-3-4-1-8 3-8 2-3-1-3-1 20-7 19-7 4 2 4 1 3-1 4-1 3 1 4 1-4 1-3 2 4 1 4 1 3-1 4-1 4 1 4 2-3 1-3 1 3 1 3 2-3 1-3 2 3 1 3 1-1 1-6 3-6 2-10 3c-8 3-8 3-12 2l-4-2-4 2-4 1 8 3 5-1 3-2 2 1a111 111 0 006 3 391 391 0 01-16 6l4 2 3 1-4 2-4 2-4-2-5-2-4 2-4 2a427 427 0 0016 7l-9 3zm38-45l4-2-4-1-3-1-4 1-3 1 6 3 4-1zm-24-3l4-2-3-1-4-1-3 1-3 1 6 3 3-1zM64 58l-4-1 5-2 4-2-3-2-3-1 4-2 4-2 1 1a89 89 0 006 3l-4 1-4 2 3 2 4 2-9 3-4-2zm86-1l-4-2-4-2 8-3 9-4 4 2 4 2-4 1-4 2-4 2-4 2h-1zm50-2l-5-2 4-2 3-1a117 117 0 00-9-4l-4-1-4-2 3-1 4-2 5 1 5 2 3-2 4-2-5-1-3-1 2-1 3-2 2-1 4-1 3-2-4-1-4-2-3 2-4 1a217 217 0 01-18-6l4-1 3-2 5 2 4 1 4-1 4-1 8 2 9 3-3 2-4 1 5 2 5 1 3-1 3-1 10 3 8 3-7 3-7 3-4-2-5-1-8 3-7 3 4 2 4 2a90 90 0 01-13 5l-3 1-4-1zM83 51l-3-1 5-2 4-2 3 2 4 2-8 3-5-2zm89 1l-4-2 8-3 9 3-8 3-5-1zm61-4l-4-2h2l3-2c2-1 3-1 7 1l4 1-3 2-4 1-5-1zm-70-7a649 649 0 00-10-6h2l1-1 5-2 5-2 4 2 4 1-3 2-4 2 4 1 4 2-4 1-4 2-4-2zM34 38l-3-1 9-3 10-3 6 2-18 7-4-2zm145-3l-4-2 8-2 8 3-7 2-5-1z"/><path fill="#5A9A30" d="M135 306l-8-3-4-2v-6l1-6 3 2 14 6v-37l-3-2-14-6-1-7 1-5 3 1c6 3 5 3 5-4l1-6 4 2 4 1v-12l-4-2-4-1-1 5v6l-4-1-4-2v-13l-9-4-9-4v25l5 2 4 2v13l4 2 4 2v12l-4-2-4-2v12l4 2 4 3v12l-5-2a1754 1754 0 01-12-6v12l-9-4-8-4v-6l-1-6-7-4a310 310 0 00-27-12l-1 6v5l-5-1-3-2v-12l-4-2-4-2-1-6v-7l-4-2-5-2v13l-4-2-4-2v6l-1 6-4-2-4-2v-25l2 1 4 2 3 1v-12l4 2 4 2v-6l1-6 8 4v12l3 1 14 7 1 6v6l4 2 13 6v-12l-4-2-4-2v-12l3 1 4 2h1v-24l-8-4-9-4-1 6v6-1l-5-2-3-1v-13l-9-4-8-3v12l-1 12-3-1c-6-3-5-3-5 4v6l-5-2-4-2v12l-5-2-3-1v-25a127 127 0 018 3v-12l4 2 5 2v-25l-5-2-4-2v-37l-4-2-4-2v-12l3 1c6 3 5 3 5-4v-6l-4-2-4-2-1-6 1-6 4 2 4 1V75l4 2 4 2v6l1 6 4 2a76 76 0 0010 5l3 1v13l-5-2-12-6v25l9 4 8 4v12l-5-2a1041 1041 0 01-12-6v13l4 2 4 2v12l5 2 4 2v-6l1-6 4 2 4 2v12l2 1 5 2 2 1v-25l-4-2-5-2v-12l4 2 4 2 1-12-1-13-8-4v12c0 11 0 13-1 12l-4-2-4-1v-6l1-19 4 2 4 2a528 528 0 000-37l4 1 4 2 1-6v-5l4 2 4 1v12l-4-1-4-2v25l4 1 4 2v-6c0-7 0-7 6-4l3 2v13l2 1 4 2c2 0 5 1 7 3l5 2v12l4 2 4 2v-12l5 2 4 1v-12h1l9 4a250 250 0 0024 12h1v-25l3-2a242 242 0 0115-6 886 886 0 0111-6l-4-2-5-2-10-4-5 2-5 2-5-2-5-2 10-4 4-2 5-2 6-2 5-3 5-2 4-1 4 2 5 1-3 1a190 190 0 00-15 8 462 462 0 0119 8l7-3a809 809 0 0146-22 94 94 0 01-8-3l2-1a341 341 0 006-3l5 2 4 2 9-4a1231 1231 0 0030-14v199l-8 4a2702 2702 0 00-110 50l-21 9-1 1-6-3zm-38-48v-6l-4-2-4-2v12l4 2 4 2v-6zm0-31v-13l-8-3-9-4v25l8 3 9 4v-12zm44-36v-19l-4-1-4-2c-1-1-1 2-1 12v12a99 99 0 01-8-4l-1 7 1 6 8 4 9 4v-19zm-44 5v-6l5 2 4 2v-9a291 291 0 00-1-16l-14-7-2-1v25l-4-2c-6-3-5-3-5 4v6l8 4 9 4v-6zm26-13v-6l-4-2-4-2v12l4 2 4 2v-6zm-43-21v-5l-9-4-8-4-1 6v6l5 2 4 2v13l4 2 4 2 1-7v-13zm43-4v-6l-2-1-4-2-2-1v13l4 1 4 2v-6zm-65 63l-4-2v-12l1 1 5 2 2 1v12l-4-2zm70-104l-4-2-1-6v-7l3 2 4 2h2v13l-4-2zm-53-12l-4-2v-6l1-6 4 2 4 2v6l-1 6-4-2zM52 70l-3-2 5-2 4-2 4 2 3 2-9 3-4-1zm151 0l-5-2 4-2 4-2 4 2 5 2-8 3-4-1zm-29-4l-5-2 17-7 5 2 5 1-2 1a265 265 0 01-14 6l-2 1-4-2zM28 58l-3-2 9-2c1-1 7 2 7 3l-9 3-4-2zm36 0l-4-1 10-3 2 1 4 1 2 1-5 1-5 2-4-2zm47-3l-4-2 2-1 5-2 8 3c1 1-7 4-8 4l-3-2zm35 0l-3-2 4-2 3-1 3 1 4 2-3 2-4 1-4-1zm26-4c-4-1-4-1 1-3l3-2 4 2 5 2-2 1-4 1-2 1-5-2zm31-1l-9-4 8-3 9-3 11-5 3-1 5 1 5 2 8 2c1 1-6 4-7 4l-5-2-4-2-8 4-8 3 5 2c4 2 4 2-1 4l-3 1-9-3zm-83-5l-4-2 4-2 4-1 4 1 3 2-7 3-4-1zm-34-7a913 913 0 01-1-2l13-5 10-3 4 1c3 1 3 1 2 2l-7 2a417 417 0 01-21 5zm-25-3l-3-2 4-1 4-1 3 1 3 1c1 0 1 1-3 2l-4 1-4-1zm60-3c-5-2-5-2-1-3l4-1 5-2 4-1 3 1 4 1-16 6-3-1zm-58-3l-4-2 5-1 4-1 3 1 3 1-4 2-4 1-3-1zm128-2l-7-3 3-1 3-1 4 1c4 2 5 2 9 0l3-1 5 1 3 2-3 1-3 1-5 1-4 2-8-3zM88 26l-3-1 4-2 4-1 3 1c4 1 4 1-2 3l-3 1-3-1zm65 0l-3-2 3-1 4-2-3-1-4-1 4-2 3-1 3 1 4 2-3 1-3 1 3 2 4 1-8 3-4-1zm-16-11l-3-2 7-3 8-2 3 1 3 1-3 2-6 2-5 2-4-1zm24-3l-3-2 3-1 3-1 4 1 3 1-7 3-3-1zm-32-5l-3-2 4-1 4-1 3 1 4 1-8 3-4-1z"/><path fill="#5A5952" d="M135 306l-8-3-4-2v-6l1-6 3 2 14 6v-37l-3-2-14-6-1-7 1-5 3 1c6 3 5 3 5-4l1-6 4 2 4 1v-12l-4-2-4-1-1 5v6l-4-1-4-2v-13l-9-4-9-4v25l5 2 4 2v13l4 2 4 2v12l-4-2-4-2v12l4 2 4 3v12l-5-2a1809 1809 0 01-12-6v12l-9-4-8-4v-6l-1-6-7-4a310 310 0 00-27-12l-1 6v5l-5-1-3-2v-12l-4-2-4-2-1-6v-7l-4-2-5-2v13l-4-2-4-2v6l-1 6-4-2-4-2v-25l2 1 4 2 3 1v-12l4 2 4 2v-6l1-6 8 4v12l3 1 14 7 1 6v6l4 2 13 6v-12l-4-2-4-2v-12l3 1 4 2h1v-24l-8-4-9-4-1 6v6-1l-5-2-3-1v-13l-9-4-8-3v12l-1 12-3-1c-6-3-5-3-5 4v6l-5-2-4-2v12l-5-2-3-1v-25a125 125 0 018 3v-12l4 2 5 2v-25l-5-2-4-2v-37l-4-2-4-2v-12l3 1c6 3 5 3 5-4v-6l-4-2-4-2-1-6 1-6 4 2 4 1V75l5 2 4 2v12l4 3a1459 1459 0 0013 5v13l-5-2-12-6v25l9 4 8 4v12l-5-2a1047 1047 0 01-12-6v13l4 2 4 2v12l5 2 4 2v-6l1-6 4 2 4 2v12l2 1 5 2 2 1v-25l-4-2-5-2v-12l4 2 4 2 1-12-1-13-8-4v12c0 11 0 13-1 12l-4-2-4-1v-6l1-19 3 2 5 2a259 259 0 000-37l4 2 5 2v25l4 1 4 2v-6l1-6 4 2 4 2v25l4 2 4 2 1-6v-6l5 2 4 2v12l4 2 4 2 1-6v-6l4 2 4 1v-12l5 2 4 2v12l3 2a940 940 0 0114 6v-12l5 2 4 2v-25l4-2a1160 1160 0 0073-33l62-28 1-1v199l-8 4a2678 2678 0 00-110 50l-21 9-1 1-6-3zm-38-48v-6l-4-2-4-2v12l4 2 4 2v-6zm0-31v-13l-8-3-9-4v25l8 3 9 4v-12zm44-36v-19l-4-1-4-2c-1-1-1 2-1 12v12a99 99 0 01-8-4l-1 7 1 6 8 4 9 4v-19zm-44 5v-6l5 2 4 2v-9a291 291 0 00-1-16l-14-7-2-1v25l-4-2c-6-3-5-3-5 4v6l8 4 9 4v-6zm26-13v-6l-4-2-4-2v12l4 2 4 2v-6zm-43-21v-5l-9-4-8-4-1 6v6l5 2 4 2v13l4 2 4 2 1-7v-13zm43-4v-6l-2-1-4-2-2-1v13l4 1 4 2v-6zm-65 63l-4-2v-12l1 1 5 2 2 1v12l-4-2zM183 62l-4-2 3-1c4-2 4-2 6-1a102 102 0 006 2h1l-1 1a155 155 0 00-7 3l-4-2z"/><path fill="#765338" d="M135 306l-8-3-4-2v-6l1-6 3 2 14 6v-37l-3-2-14-6-1-7 1-5 3 1c6 3 5 3 5-4l1-6 4 2 4 1v-12l-4-2-4-1-1 5v6l-4-1-4-2v-13l-9-4-9-4v25l5 2 4 2v13l4 2 4 2v12l-4-2-4-2v12l4 2 4 3v12l-5-2a1859 1859 0 01-12-6v12l-9-4-8-4v-6l-1-6-7-4a308 308 0 00-27-12l-1 6v5l-5-1-3-2v-12l-4-2-4-2-1-6v-7l-4-2-5-2v13l-4-2-4-2v6l-1 6-4-2-4-2v-25l2 1 4 2 3 1v-12l4 2 4 2v-6l1-6 8 4v12l3 1 14 7 1 6v6l4 2 13 6v-12l-4-2-4-2v-12l2 1a6906 6906 0 0132 14v-25l-8-3-9-4v6l-1 6-4-2-4-2v-12l-8-4-9-4-1 6v6-1l-5-2-3-1v-13l-9-4-8-3v12l-1 12-3-1c-6-3-5-3-5 4v6l-5-2-4-2v12l-5-2-3-1v-25a125 125 0 018 3v-12l4 2 5 2v-25l-5-2-4-2v-37l-4-2-4-2v-12l3 1c6 3 5 3 5-4v-6l-4-2-4-2-1-6 1-6 4 2 4 1V75l5 2 4 2v6l-1 6-3-1c-5-3-5-3-5 4v6l4 2 5 2V92l5 2a2389 2389 0 0012 5v13l-5-2-12-6v25l9 4 8 4v12l-5-2a1043 1043 0 01-12-6v13l4 2 4 2v12l5 2 4 2v-6l1-6 4 2 4 2v12l2 1 5 2 2 1v-25l-4-2-5-2v-12l4 2 4 2 1-12-1-13-8-4v12c0 11 0 13-1 12l-4-2-4-1v-6l1-19 3 2 5 2a259 259 0 000-37l4 2 5 2v25l4 1 4 2v-6l1-6 4 2 4 2v25l4 2 4 2 1-6v-6l5 2 4 2v12l4 2 4 2 1-6v-6l4 2 4 1v-12l5 2 4 2v12l3 2a926 926 0 0114 6v-12l2 1 4 2 3 1v-25l4-2a1156 1156 0 0073-33l62-28 1-1v199l-26 12-39 18-14 6v-12l-5 2-4 2v12l-12 5a14111 14111 0 00-38 18l-2 1-6-3zm-38-48v-6l-4-2-4-2v12l4 2 4 2v-6zm44-67v-19l-4-1-4-2c-1-1-1 2-1 12v12a98 98 0 01-8-4l-1 7 1 6 8 4 9 4v-19zm-44 5v-6l5 2 4 2v-9a291 291 0 00-1-16l-14-7-2-1v25l-4-2c-6-3-5-3-5 4v6l8 4 9 4v-6zm173-8l2-1v-12l-5 2-3 1v13l1-1 5-2zm-147-5v-6l-4-2-4-2v12l4 2 4 2v-6zm-43-21v-5l-9-4-8-4-1 6v6l5 2 4 2v13l4 2 4 2 1-7v-13zm100 17l4-2v-12l-2 1-4 2-2 1v12l4-2zm-57-21v-6l-2-1-4-2-2-1v13l4 1 4 2v-6zm-17-8v-6l-4-2-5-2v12l4 2 5 2v-6zm-48 71l-4-2v-12l1 1 5 2 2 1v12l-4-2zM183 62l-4-2 3-1c4-2 4-2 6-1a102 102 0 006 2h1l-1 1a155 155 0 00-7 3l-4-2z"/><path fill="#496E2E" d="M136 307l-4-2v-6l1-6 4 2 4 2v12l-5-2zm5-48v-50l4-1 4-2v-25a68 68 0 00-8 4v-75l4-2a1158 1158 0 0073-33l62-28 1-1v63l-4 1-4 2v12l4-2 4-1v37l-1 38-8 4-8 3v12l3-1 9-4 5-2v37l-9 4a6528 6528 0 00-58 26l-12 6v-12l-5 2-4 2v12l-3 1a2687 2687 0 00-22 10c-1 1-1-1-1-5v-6l-5 2-3 2v6l-1 6a115 115 0 01-15 7l-2 1v-50zm31 23l3-1v-12l-7 3-1 6 1 6 4-2zm27-37l3-1v-12l-5 2-4 1v13l2-1 4-2zm34-3l4-2v-12l-4 2-4 2v12l4-2zm-43-5l3-2v-12l-4 2-4 2v6c-1 7-1 7 5 4zm-14-6l8-4v-12l-5 2a2224 2224 0 01-11 6l-1 11 9-3zm83-1l4-2v-12l-3 2-5 2v12l4-2zm-61-9l4-2v-12l-5 2-4 2v6l1 5 4-1zm31-14l8-4v-12l-5 2-9 4-3 2v11l9-3zm-58-11c5-3 5-2 5-9v-5l-9 3-8 4v12l4-1 8-4zm99-8l2-1v-12l-5 2-3 1v13l1-1 5-2zm-15-6l8-4v-12l-3 2-9 4-5 2v12l9-4zm-75-3l4-2v-12l-2 1-4 2-2 1v12l4-2zm27-12l9-4 3-2 1-6-1-6-8 4-9 4v12l5-2zm-35-9l4-2v-12l-1 1-5 2-3 1v12h1l4-2zm65-5l9-4v-12l-9 4-8 4v12l8-4zM101 279l-4-2v-25l5 2 4 2v25l-5-2zm-34-16l-4-2-1-7v-5l5 1 4 2v13l-4-2zm17-5l-4-2v-12l5 2 4 2v6l-1 6-4-2zm53-1l-5-2v-6l1-6 4 2 4 2v12l-4-2zm-88-2l-4-2v-13l-4-2-5-2v-12l5 2 4 2v12l3 2 4 2h2v6l-1 7-4-2zm61-10l-4-1v-13l5 2 4 2v6l-1 6-4-2zm-87-2l-4-2v-12l5 1 3 2v13l-4-2zm52-26l-4-2v-12h2l4 2 3 1v13l-5-2zm53-1l-4-2v-12l4 2 4 2v12l-4-2zm-114-2l-4-2v-12l4 1 5 2v6l-1 6-4-1zm43-18l-8-4-4-1v-12a166 166 0 0117 7v-6l1-6 4 2 4 2v12h-1a135 135 0 01-8-4v12l-5-2zm27-12l-4-2v-12l5 1 4 2v6l-1 7-4-2zm-61-3l-4-2v-13l4 2 4 2v12l-4-1zm78-14l-4-2v-6l1-6 4 2 4 2v11l-5-1zm27-1l-4-1v-13l-5-2-4-2v-12l-4-2-5-2v12l-4-2c-6-3-5-3-5 4v6a181 181 0 01-17-7v11l-8-3a540 540 0 00-16-7l-2-1v-13l8 4 9 4v-12l-8-4a737 737 0 01-18-8v12l-5-2-3-1-1-7 1-6 3 2 5 2V79l5 2 4 2v24l4 2 4 2v-6l1-6 4 2 4 2v25l4 2 4 2 1-6v-6l7 3 1 1v6l1 6 4 2 4 2v-6l1-6 4 2 4 2v-7l1-6 4 2 4 2v12l3 2a956 956 0 0114 6v-12l5 2 4 2v12a75 75 0 01-8-3l-1 12v12l-4-2zM14 139l-4-2v-12c0-11 0-13 1-12l4 2 4 1v13l-1 12-4-2zm22-27l-9-4-8-4V92l4 2a248 248 0 0011 4l2 2v12zM6 98l-4-2V84l1 1 4 1 3 2v12l-4-2zm8-9l-4-2V75l5 2 4 2v6l-1 6-4-2zm169-27l-4-2 3-1c4-2 4-2 6-1a102 102 0 006 2h1l-1 1a155 155 0 00-7 3l-4-2z"/><path fill="#5B422D" d="M136 307l-4-2v-6l1-6 4 2 4 2v12l-5-2zm5-48v-50l4-1 4-2v-25a68 68 0 00-8 4v-38l4-2 5-2v-12l4-2 4-2 1 6v6l4-2 4-2v-6l1-6 3-2 9-3 4-3v-12a187 187 0 00-16 7l-1 1V98l9-3 9-4v11l5-2 3-2v-6l1-6 4-2 4-2 1 6v6a84 84 0 008-4l4-1 4-2 1 6v6l-5 2-4 2v12l2-1a1029 1029 0 0015-7l1 6v6l4-2 4-1v-13l4-2 5-2V74l-3 2a96 96 0 01-11 5l-3 1V70l3-1a1997 1997 0 0040-18l1-1v12l4-2 4-1v50l-4 1-4 2v12l4-2 4-1v37l-1 38-8 4-8 3v12l3-1 9-4 5-2v37l-9 4a6700 6700 0 00-58 26l-12 6v-12l-5 2-4 2v12l-3 1a2594 2594 0 00-22 10c-1 1-1-1-1-5v-6l-5 2-3 2v6l-1 6a115 115 0 01-15 7l-2 1v-50zm31 23l3-1v-12l-7 3-1 6 1 6 4-2zm27-37l3-1v-12l-5 2-4 1v13l2-1 4-2zm34-3l4-2v-12l-4 2-4 2v12l4-2zm-43-5l3-2v-12l-4 2-4 2v6c-1 7-1 7 5 4zm-14-6l8-4v-12l-5 2a2224 2224 0 01-11 6l-1 11 9-3zm83-1l4-2v-12l-3 2-5 2v12l4-2zm-61-9l4-2v-12l-5 2-4 2v6l1 5 4-1zm31-14l8-4v-12l-5 2-9 4-3 2v11l9-3zm-58-11c5-3 5-2 5-9v-5l-9 3-8 4v12l4-1 8-4zm99-8l2-1v-12l-5 2-3 1v13l1-1 5-2zm-15-6l8-4v-12l-3 2-9 4-5 2v12l9-4zm-75-3l4-2v-12l-2 1-4 2-2 1v12l4-2zm27-12l9-4 3-2 1-6-1-6-8 4-9 4v12l5-2zm-35-9l4-2v-12l-1 1-5 2-3 1v12h1l4-2zm65-5l9-4v-12l-9 4-8 4v12l8-4zm-56-12l3-1v-12l-4 2-4 2v12l1-1 4-2zm17-20l4-2v-12l-4 2-4 2v12l4-2zm62-41l3-1V67l-4 2-4 2v5l1 6 4-2zM101 279l-4-2v-25l5 2 4 2v25l-5-2zm-34-16l-4-2-1-7v-5l5 1 4 2v13l-4-2zm17-5l-4-2v-12l5 2 4 2v6l-1 6-4-2zm53-1l-5-2v-6l1-6 4 2 4 2v12l-4-2zm-88-2l-4-2v-13l-4-2-5-2v-12l5 2 4 2v12l3 2 4 2h2v6l-1 7-4-2zm61-10l-4-1v-13l5 2 4 2v6l-1 6-4-2zm-87-2l-4-2v-12l5 1 3 2v13l-4-2zm52-26l-4-2v-12h2l4 2 3 1v13l-5-2zm53-1l-4-2v-12l4 2 4 2v12l-4-2zm-114-2l-4-2v-12l4 1 5 2v6l-1 6-4-1zm43-18l-8-4-4-1v-12a166 166 0 0117 7v-6l1-6 4 2 4 2v12h-1a138 138 0 01-8-4v12l-5-2zm27-12l-4-2v-12l5 1 4 2v6l-1 7-4-2zm-61-3l-4-2v-13l4 2 4 2v12l-4-1zm78-14l-4-2v-6l1-6 4 2 4 2v11l-5-1zm27-1l-4-1v-13l-5-2-4-2v-12a436 436 0 0117 8v-6l1-6 4 1 4 2v12a79 79 0 01-8-3l-1 12v12l-4-2zm-56-13a321 321 0 00-15-6l-3-2v-13l8 4 9 4v-12l-8-4a786 786 0 01-17-7l-1-1V79h1l4 2 3 2v24l4 2 5 2h1V99l4 2 4 2v25l4 2c6 3 5 3 5-4v-6l4 2 5 2v12l4 2 4 2v12a182 182 0 01-17-7v11l-8-3zm30-11l-5-2v-6l1-6 4 2 4 2v-6l1-6 4 1 4 2v6c0 7 0 7-5 4l-4-1v12l-4-2zm-88-3l-4-2v-12c0-11 0-13 1-12l4 2 4 1v13l-1 12-4-2zm26-13l-3-1-1-7v-6l3 1 4 2 2 1v6l-1 6-4-2zm-4-14l-9-4-8-4V92l5 2 8 4 4 1v7a74 74 0 010 6zM6 98l-4-2V84l1 1 4 1 3 2v12l-4-2zm8-9l-4-2V75l4 2 5 2v6l-1 6-4-2z"/><path fill="#3B6121" d="M150 292v-12l-5 2-4 2v-25l4-1c5-3 5-2 5-9v-6l4-2 4-2v-25l-1 1-5 2-2 1v-19l-1-18-3 1c-5 3-5 3-5-4v-6l4-1c5-3 5-2 5-9l-1-6-4 2-4 2v-7l1-6 4-2 4-2v-12l4-2 4-2v6l1 6 8-3v-7l1-6 3-2 9-3 4-3v-12a187 187 0 00-16 7l-1 1V98l9-3 9-4v11l5-2 3-2v-6l1-6 4-2 4-2 1 6v6a85 85 0 008-4l4-1 4-2 1 6v6l-5 2-4 2v12l2-1a1029 1029 0 0015-7l1 6v6l4-2 4-1v-13l5-2 4-2V74l-3 2a96 96 0 01-11 5l-3 1V70l3-1a1999 1999 0 0040-18l1-1v12a59 59 0 008-3v49l-5 2-4 2v25l-4 2-4 2v12l4-2a156 156 0 0110-4l3-1v12l-4 2-4 2-1 6v6l-4 2-4 2v-6l-1-6-9 4-8 4v24l4-1 5-2v6c0 7-1 6 5 4l3-2v13l-4 2-4 1v13l1-1a445 445 0 008-3v12h1a357 357 0 0016-7v12l-9 4-9 4v-12l-8 4-9 4v12l-9 4-8 3v-5l-1-6a395 395 0 00-31 14l-4 1v13l-4 2-4 1-1-5v-6l-4 2-4 2v-7c0-7 1-6-5-4l-4 2v13l-4 2-5 2v12l-4 2-4 1v-12zm4-14l4-2v-12l-4 2-4 2v12l4-2zm11-18h2v-12l-4 1-4 2v13l2-2 4-2zm36-4l7-3 3-1v-12h-1l-4 2-4 2v-13l-4 2-4 2-1-6v-6l5-2 4-2v12a195 195 0 0017-8l12-5 6-3v-3a715 715 0 010-21l-9 3-8 4v7l-1 6-4 2-4 2v-12l-4 1-9 4-5 2v13l-4 2-4 2v-6l-1-6-17 7v25l4-2 5-2v12l5-2 9-4 3-1v12l2-1 6-3zm34-15l2-1v-6l-1-6-4 2-3 2v12l2-1 4-2zm-62-34l3-1v-13l4-1 5-2v12l4-2 4-2v-25l-4 2-4 2v-6l-1-6-4 2-4 1v-24h-1l-16 8v25l8-4 9-4-1 12a171 171 0 01-16 8v12l4-1 4-2v12l2-1 4-2zm57-26l7-3v-6c0-7 0-6 6-9l3-2v-24l-9 4-8 4v25l-5 2-4 2v12l2-1 8-4zm-13-6l3-1v-13l-1-12-16 8-1 6v6l5-2 4-2v12h2l4-2zm-27-13l3-1v-25l-4 2-4 2v25l1-1 4-2zm-36-8l4-2v-12l-8 4v12l4-2zm105-11l4-2v-12h-1l-4 2-3 2v12l4-2zm-78-2l3-1v-12l-4 2-4 2v12l1-1 4-2zm61-15l4-2v-12l-2 1-4 2-3 1v6l1 6 4-2zm-44-5l4-2v-12l-4 2-4 2v12l4-2zm62-3l3-2v-12l-4 2-4 2v12l5-2zm0-38l3-1V67l-4 2-4 2v5l1 6 4-2zm3 117l1-6 4-2 4-2v-13h2l4-2 3-2v25l-8 4-9 4-1-6z"/><path fill="#4F3624" d="M150 292v-12l-5 2-4 2v-25l4-1c5-3 5-2 5-9v-6l4-2 4-2v-25l-1 1-5 2-2 1v-19l-1-18-3 1c-5 3-5 3-5-4v-6l4-1c5-3 5-2 5-9l-1-6-4 2-4 2v-13l4-2 4-1 1-7v-6l4-2 4-2v6l1 6a139 139 0 0016-7l1 6v6l-6 3-8 4-3 1v24a505 505 0 0017-7l-1 12a169 169 0 01-16 8v12l4-1 4-2v12l4-2 4-2 1-6v-7l4-1 5-2v12l4-2 4-2v-25l-4 2-4 2v-6l-1-6-4 2-4 1v-24l4-2 4-2v-37l5-2 4-2v12l1 12 4-2 4-2v-12l4-2 5-2a275 275 0 010 25l5-2 4-2v-13l4-1 4-2 1 5v7l4-2 4-2v-12l4-3 5-2V87l4-2 5-2v12l9-4 8-4V75l2-1 4-2 3-1v37l-5 2-4 2v25l-4 2-4 2v12l4-2a158 158 0 0110-4l3-1v12l-4 2-4 2-1 6v6l-4 2-4 2v-6l-1-6-9 4-8 4v24l4-1 5-2v6c0 7-1 6 5 4l3-2v13l-4 2-4 1v13l1-1a413 413 0 008-3v12h1a359 359 0 0016-7v12l-9 4-9 4v-12l-8 4-9 4v12l-9 4-8 3v-5l-1-6a395 395 0 00-31 14l-4 1v13l-4 2-4 1-1-5v-6l-4 2-4 2v-7c0-7 1-6-5-4l-4 2v13l-4 2-5 2v12l-4 2-4 1v-12zm4-14l4-2v-12l-4 2-4 2v12l4-2zm11-18h2v-12l-4 1-4 2v13l2-2 4-2zm36-4l7-3 3-1v-12h-1l-4 2-4 2v-13l-4 2-4 2-1-6v-6l5-2 4-2v12a195 195 0 0017-8l12-5 6-3v-3a722 722 0 010-21l-9 3-8 4v7l-1 6-4 2-4 2v-12l-4 1-9 4-5 2v13l-4 2-4 2v-6l-1-6-17 7v25l4-2 5-2v12l5-2 9-4 3-1v12l2-1 6-3zm34-15l2-1v-6l-1-6-4 2-3 2v12l2-1 4-2zm-5-60l7-3v-6c0-7 0-6 6-9l3-2v-24l-9 4-8 4v25l-5 2-4 2v12l2-1 8-4zm-13-6l3-1v-13l-1-12-16 8-1 6v6l5-2 4-2v12h2l4-2zm-27-13l3-1v-25l-4 2-4 2v25l1-1 4-2zm-36-8l4-2v-12l-8 4v12l4-2zm105-11l4-2v-12h-1l-4 2-3 2v12l4-2zm-17-17l4-2v-12l-2 1-4 2-3 1v6l1 6 4-2zm18-8l3-2v-12l-4 2-4 2v12l5-2zm3 79l1-6 4-2 4-2v-13h2l4-2 3-2v25l-8 4-9 4-1-6z"/><path fill="#362518" d="M158 282v-6l4-1 4-2 1-1v12l-4 2-5 2v-6zm26-12v-6l-4 2-4 2v-12l4-2c5-3 5-3 5 4v6l2-1 5-2 1-1v13l-4 1-4 2-1-6zm18-8v-6l4-2c6-2 5-3 5 4v6l-4 2-5 2v-6zm-52-1v-6l3-1 5-2v12l-4 2-4 1v-6zm87-14v-12l1-8 4-1 4-2v25l-9 3v-5zm35-4v-6l4-2 4-2 1 6v6l-4 1-4 2c-1 1-1 0-1-5zm-52-1v-6l1-1 5-2 2-1v12l-4 2-4 2v-6zm-61-22v-6l4-2 4-2v13l-8 3v-6zm52-12v-6l4-2 4-1 1 6v6l-4 1-4 2-1 1v-7zm-27 0v-6l3-1a323 323 0 0013-6l2-1v-13l4-1 5-2v6c0 7 1 6-5 9l-4 1v12l-6 3-11 5-1-6zm62-3v-6l4-2 4-2 1 6v6l-5 2-4 2v-6zm26-12v-6l2-1 4-2 3-1v12l-5 2-4 2v-6zm-122-12v-13l4-2 4-1v24l-1 1-4 2-3 1v-12zm70-14v-6l4-2 4-1v11l-2 2-4 2h-2v-6zm43-7l1-6 4-2 4-2v12l-4 2-4 2-1-6zm-70-6l1-6 8-4 9-4v-12l-2 1a598 598 0 00-22 10l-2 1v-37l3-2 5-2v12l1 12 4-1 4-2v-13l5-2 4-2v25l5-2 4-2v-12l4-2 4-2 1 6v6l4-2 4-2v12l5-2 4-1v11l-4 2-4 2c-1 1-1-1-1-5v-6l-9 3-8 4v13l-6 2a724 724 0 00-21 10v-7zm-52 0v-6l4-2 4-2 1 6v6l-4 2-5 2v-6zm35-4v-6l2-1 4-2 2-1v13h-1l-4 2-3 1v-6zm-17-4v-6l7-4 9-4h1v12l-8 3-9 4v-5zm-9-9v-6l1-1 5-1 2-2v13l-4 1-4 2v-6zm114-27l-1-6-4 2-4 1V95l-5 2-4 2V87l4-2 5-2v12l9-4 8-4V75l4-2 4-2 1 6v7l-5 1-4 2v25l-4 2-4 2v-6zm-27 0v-7l4-1 5-2v12l-3 1-5 2-1 1v-6z"/></g><defs><clipPath id="kclip0"><path fill="#fff" d="M1 0h280v309H1z"/></clipPath></defs></symbol><symbol viewBox="0 0 512 512" id="logo-python" xmlns="http://www.w3.org/2000/svg"><path fill="#3470a4" fill-rule="evenodd" d="M253.8 1.8c-20.7 0-40.4 1.8-57.8 5-51.2 9-60.5 27.9-60.5 62.8v46.1h121v15.4H90c-35.1 0-66 21-75.5 61.3-11.1 46-11.6 74.8 0 123 8.6 35.7 29 61.3 64.2 61.3h41.6v-55.3c0-40 34.6-75.2 75.6-75.2h120.8a61 61 0 0060.5-61.4V69.6c0-32.8-27.7-57.4-60.5-62.9-20.8-3.4-42.3-5-63-5zm-65.4 37A23 23 0 01211 62c0 12.7-10.2 23-22.7 23a22.8 22.8 0 01-22.7-23 23 23 0 0122.7-23.1z"/><path fill="#FFD430" fill-rule="evenodd" d="M392.4 131v53.8a77.6 77.6 0 01-75.6 76.7H196c-33 0-60.5 28.3-60.5 61.4v115.2c0 32.8 28.5 52 60.5 61.5 38.3 11.2 75 13.3 120.8 0 30.5-8.8 60.5-26.6 60.5-61.5v-46H256.5v-15.4h181.3c35.1 0 48.2-24.6 60.5-61.4 12.6-37.9 12-74.3 0-123-8.7-34.9-25.3-61.2-60.5-61.2h-45.4zm-68 291.8a22.8 22.8 0 0122.7 23 23 23 0 01-22.7 23 23 23 0 01-22.7-23c0-12.8 10.2-23 22.7-23z"/></symbol><symbol fill="none" viewBox="0 0 343 372" id="logo-python-text" xmlns="http://www.w3.org/2000/svg"><path fill="#656565" d="M37.4 316.4c0-15.2-4.3-22.8-13-23.1-3.5-.3-6.8.5-10 1.6-2.7.8-4.4 2-5.2 2.8v35.8a24.6 24.6 0 0014.7 4.8c9-.8 13.5-8.1 13.5-22zm10.6.5c0 7.6-1.6 13.8-5.4 19-4 5.7-9.5 8.7-16.8 8.7a29 29 0 01-16.6-5.2V372L0 368.7v-72.4c1.6-2 3.5-3.5 5.7-4.9a38.4 38.4 0 0119.8-4.9c7 0 12.8 3 16.6 8.7 4 6.2 6 13 6 21.7zm56.2 21.4c0 10.4-1 17.4-3 21.2-2.2 3.8-6 7-11.7 9.5a41 41 0 01-15.2 3l-1.6-5.7c5.7-.8 9.5-1.6 11.7-2.2 4.3-1.6 7.6-3.8 9.2-7 1.4-2.5 1.9-7.4 1.9-14.4v-2.5c-6.2 3-13 4.4-19.8 4.4a17 17 0 01-12-4.4c-3.7-3-5.7-7-5.7-11.9v-38.2l9.3-3.3v38.5c0 4.1 1.3 7.4 4 9.5 2.8 2.2 6 3.3 10.3 3.3 4.4 0 8.7-1.6 13.6-4.9v-45h9.2l-.2 50.1zm35.8 6h-3c-5.1 0-9.2-1.3-12.2-3.8-3-2.4-4.3-6-4.3-10.3V294h-6.3v-6h6.3v-15.4l9.2-3.3V288H140v5.7h-10.3v35.9c0 3.5.8 6 2.7 7.3 1.7 1 4 1.9 7.6 2.2v5.1zm56-.8h-9.3v-35.6c0-3.5-.8-6.7-2.4-9.2a9 9 0 00-8.2-4.3c-4.3 0-9.5 2.2-15.7 6.8v42.6h-9.2v-85l9.2-3v38.6c6-4.3 12.2-6.5 19.2-6.5a16 16 0 0112 4.9c3 3.2 4.6 7.3 4.6 12.2l-.3 38.5zm48.8-28.8a29 29 0 00-3.3-14.3c-2.7-4.7-6.5-7.1-12.2-7.4-10 .6-15.2 7.9-15.2 21.7 0 6.5 1 11.7 3.2 16 2.8 5.5 6.8 8.2 12.3 8.2 10-.3 15.2-8.2 15.2-24.2zm10 0a34 34 0 01-6.2 20.7c-4.6 6-11.2 9.2-19 9.2-8.2 0-14.4-3-19-9.2-4-5.5-6.3-12.3-6.3-20.7 0-7.8 2.2-14.3 6.8-19.5a22.9 22.9 0 0118.5-8.4c7.6 0 13.8 2.7 18.7 8.4 4.3 5.4 6.5 12 6.5 19.5zm53 28.8h-9.3V306c0-4-1.3-7.3-3.8-9.5a13.2 13.2 0 00-10-3.2c-4.4 0-8.7 1.6-12.5 4.3V344H263v-47.5a42.4 42.4 0 0125.8-9.2c2.1 0 4.3.3 6.2.6 3.5.8 6.5 2.4 8.7 4.6a13 13 0 013.8 9.2l.2 41.8z"/><path fill="#3470a4" d="M149.8 0c-8.7 0-17.1.9-24.4 2.2C103.7 6 99.9 14 99.9 28.8v19.6h51v6.5h-70c-14.7 0-27.7 9-31.8 25.7a96 96 0 000 51.9c3.6 15.2 12.2 25.7 27.2 25.7h17.6V135a32.5 32.5 0 0131.8-31.7h50.7a25.8 25.8 0 0025.5-26V28.4c0-13.8-11.7-24.1-25.5-26.6-9-1.3-18-2.1-26.6-1.9zm-27.7 15.5c5.2 0 9.5 4.4 9.5 9.8s-4.3 9.7-9.5 9.7a9.7 9.7 0 01-9.5-9.7c0-5.4 4-9.8 9.5-9.8z"/><path fill="#FFD430" d="M208.1 54.3v22.5c0 17.7-14.9 32.3-32 32.3h-50.7c-13.9 0-25.5 12-25.5 26v48.6c0 13.9 12 22 25.5 26.1 16 4.9 31.5 5.7 51 0 12.7-3.8 25.5-11.1 25.5-26v-19.6h-51v-6.5h76.5c14.7 0 20.4-10.3 25.5-25.8 5.4-16 5.2-31.2 0-51.8-3.5-14.7-10.6-25.8-25.5-25.8h-19.3zm-28.7 123c5.1 0 9.5 4.3 9.5 9.7 0 5.4-4.4 9.8-9.5 9.8a9.7 9.7 0 01-9.5-9.8c0-5.4 4.3-9.8 9.5-9.8z"/><path fill="#656565" d="M325.4 280h1.6v-10h3.8v-1.4h-9.2v1.4h3.8v10zm7 0h1.4v-9.2l3 9.2h1.6l3-9.2v9.2h1.6v-11.4h-1.9l-3.5 9.8-3-9.8h-2.2V280z"/><path fill="#efeeef" d="M219.8 235.6c0 7.3-30.7 13.3-68.4 13.3S83 243 83 235.6c0-7.3 30.7-13.3 68.4-13.3s68.4 6 68.4 13.3z" opacity=".4"/></symbol><symbol fill="none" viewBox="0 0 312 311" id="logo-roblox" xmlns="http://www.w3.org/2000/svg"><path fill="#DD2826" d="M64.6 0L1 247.4 248.4 311 312 63.6 64.6 0zm109.8 185.7L126 173.4l12.3-48.3 48.3 12.3-12.3 48.3z"/></symbol><symbol fill="none" viewBox="0 0 294 301" id="logo-unity" xmlns="http://www.w3.org/2000/svg"><path fill="#000" d="M294 119.3L261.9 0 142.3 32l-18 31.2-35.8.1L1 150.5l87 87.2h36l17.8 31.4L261 301l33-120.2-18.2-30.5 18.2-31zM127 68.1l92-23.4-52.3 90.9-105.9.3L127 68zm.2 165.1l-66.4-67.8h105.7l52.4 90.8-91.7-23zm117.5 9.3l-53-92 53-91.3L270 151l-25.4 91.6z"/><path fill="url(#opaint0_linear)" d="M260.5 2.3L281 77.8 259.6 4l-62.9 16.2 63.8-17.9z"/><defs><linearGradient id="opaint0_linear" x1="252" x2="233.3" y1="-6" y2="59.8" gradientUnits="userSpaceOnUse"><stop stop-color="#E9E9E9"/><stop offset="0" stop-color="#E9E9E9"/><stop offset=".6"/><stop offset="1"/></linearGradient></defs></symbol><symbol fill="none" viewBox="0 0 567 212" id="logo-unity-text" xmlns="http://www.w3.org/2000/svg"><path fill="#000" d="M206.2 84L183.6 0 99.4 22.6 87 44.5l-25.3.1L0 106l61.3 61.4h25.3L99 189.6l84 22.4 23.1-84.7-12.8-21.4L206.2 84zM88.7 48l64.7-16.5-36.7 64-74.6.2L88.7 48zm.1 116.3l-46.7-47.8h74.4l37 64-64.7-16.2zm82.7 6.5L134.2 106l37.3-64.3 17.9 64.6-17.9 64.5z"/><path fill="url(#ppaint0_linear)" d="M182.7 1.6L197 54.8l-15-52-44.2 11.4 44.9-12.6z"/><path fill="#000" d="M229.7 88h21.6v60.7s-1 14.7 29.5 0V88.1h21.4v86H286l-2.3-6.6S259 179.3 244 176c-15-3.4-14.4-16.5-14.4-18V88zm156.5 86.5h-21.6v-60.7s1-14.6-29.6 0v60.7h-21.3v-86h16.2l2.3 6.6s24.7-11.8 39.6-8.5c14.9 3.4 14.4 16.5 14.4 18v70zm29.6-99h-21.4V50.3h21.4v25.2zm0 99h-21.4V88.1h21.4v86.4zM434.5 88V66.6l21.7-3.2.2 24.8h22l-1.4 17h-20.8l.2 47.2s0 9.9 18.5 4l2.5 17S439 187 434.5 157.7V105h-13V88h13zm48.3 0h22.1l20 65.2L544.2 88H567l-39.3 121.2H507l11-34.8h-8L482.8 88z"/><defs><linearGradient id="ppaint0_linear" x1="176.6" x2="163.5" y1="-4.2" y2="42.1" gradientUnits="userSpaceOnUse"><stop stop-color="#E9E9E9"/><stop offset="0" stop-color="#E9E9E9"/><stop offset=".6"/><stop offset="1"/></linearGradient></defs></symbol><symbol fill="none" viewBox="0 0 304 306" id="logo-unreal" xmlns="http://www.w3.org/2000/svg"><path fill="#000" d="M211.4 195.2s2.2 3.3 7.6 3.3c6.2 0 16.6-4 33.2-21.8 0 0-17.7 40.4-54.1 62.1l-20-17-.6-.3-22 23.3s-49.5-4.3-70.3-34.5c0 0 3.3 1.3 6.8 1.3 4.2.2 8.7-1.4 8.7-8.4v-71c0-3.7-2.5-7.7-8-7.7-5 .2-12 3.5-21.7 13.3-20.2 21-28.5 41.1-28.5 41.1s-5.8-28.8 24.7-63.9c30.4-35 53.4-47.8 78-54.4 0 0-19.5 11.5-19.5 28.7 0 5 .7 8.4 1.8 10.8 1.5 2.9 3.7 4 5.7 4 1.6 0 3.2-.8 4.5-1.7v93.3s.6 1.5 1.8 3.3c2 2.6 5.5 5.7 11.4 5.7 9.6 0 22.2-11.2 22.2-11.2V118c0-7.6-5.7-17-11.5-20 0 0 12.4-.8 18.4 4 0 0 20.4-24.7 58-32.2 0 0-20 24-26.4 35.8-1.1.2-1.3 22.5-1.1 45 .1 21.5.5 43.2.9 44.7z"/><path fill="#000" d="M1 153C1 68.5 68.7 0 152.4 0h.5a152 152 0 01151 153c0 84.5-67.7 153-151.4 153A152.2 152.2 0 011 153zM255 49.7a142.9 142.9 0 00-102.4-43c-38.9 0-75.1 15.2-102.5 43A146.6 146.6 0 007.7 153.2c0 39 15.2 76 42.5 103.5a143.6 143.6 0 00205 0 146.6 146.6 0 0042.4-103.5c0-39-15.1-76-42.5-103.5z"/></symbol></svg>