<?xml version="1.0" encoding="UTF-8"?> <svg xmlns="http://www.w3.org/2000/svg" fill="none" viewBox="0 0 276 189"><defs></defs><rect width="269" height="181" x="4" y="4" fill="#FCFBFE" stroke="#E2DEE9" stroke-width="7" rx="6.5"></rect><rect width="21" height="21" x="55" y="55" fill="#EEEBF2" rx="5"></rect><rect width="166" height="16" x="55" y="31" fill="#EEEBF2" rx="5"></rect><rect width="21" height="21" x="55" y="80" fill="#EEEBF2" rx="5"></rect><rect width="21" height="21" x="55" y="105" fill="#EEEBF2" rx="5"></rect><rect width="21" height="21" x="55" y="130" fill="#EEEBF2" rx="5"></rect><rect width="21" height="21" x="79" y="55" fill="#05CACC" rx="5"></rect><rect width="21" height="21" x="79" y="80" fill="#EEEBF2" rx="5"></rect><rect width="21" height="21" x="79" y="105" fill="#FF5D5D" rx="5"></rect><rect width="21" height="21" x="79" y="130" fill="#EEEBF2" rx="5"></rect><rect width="21" height="21" x="103" y="55" fill="#EEEBF2" rx="5"></rect><rect width="21" height="21" x="103" y="80" fill="#EEEBF2" rx="5"></rect><rect width="21" height="21" x="103" y="105" fill="#05CACC" rx="5"></rect><rect width="21" height="21" x="103" y="130" fill="#EEEBF2" rx="5"></rect><rect width="20" height="21" x="128" y="55" fill="#FF5D5D" rx="5"></rect><rect width="20" height="21" x="128" y="80" fill="#EEEBF2" rx="5"></rect><rect width="20" height="21" x="128" y="105" fill="#EEEBF2" rx="5"></rect><rect width="20" height="21" x="128" y="130" fill="#EEEBF2" rx="5"></rect><rect width="21" height="21" x="152" y="55" fill="#EEEBF2" rx="5"></rect><rect width="21" height="21" x="152" y="80" fill="#05CACC" rx="5"></rect><rect width="21" height="21" x="152" y="105" fill="#EEEBF2" rx="5"></rect><rect width="21" height="21" x="152" y="130" fill="#05CACC" rx="5"></rect><rect width="21" height="21" x="176" y="55" fill="#EEEBF2" rx="5"></rect><rect width="21" height="21" x="176" y="80" fill="#FF5D5D" rx="5"></rect><rect width="21" height="21" x="176" y="105" fill="#EEEBF2" rx="5"></rect><rect width="21" height="21" x="176" y="130" fill="#EEEBF2" rx="5"></rect><rect width="21" height="21" x="200" y="55" fill="#EEEBF2" rx="5"></rect><rect width="21" height="21" x="200" y="80" fill="#EEEBF2" rx="5"></rect><rect width="21" height="21" x="200" y="105" fill="#EEEBF2" rx="5"></rect><rect width="21" height="21" x="200" y="130" fill="#EEEBF2" rx="5"></rect></svg> 