<?xml version="1.0" encoding="UTF-8"?> <svg xmlns="http://www.w3.org/2000/svg" fill="none" viewBox="0 0 276 188"><defs></defs><rect width="269" height="181" x="4" y="4" fill="#FCFBFE" stroke="#E2DEE9" stroke-width="7" rx="6.5"></rect><rect width="70" height="139" x="62" y="24" fill="#EEEBF2" rx="10"></rect><rect width="70" height="139" x="145" y="24" fill="#EEEBF2" rx="10"></rect><rect width="49" height="15" x="73" y="42" fill="#FCFBFE" rx="5"></rect><rect width="52" height="15" x="154" y="97" fill="#8032ED" rx="5"></rect><rect width="23" height="11" x="154" y="79" fill="#FCFBFE" rx="5"></rect><rect width="12" height="9" x="164" y="80" fill="#E2DEE9" rx="4.5"></rect><rect width="23" height="11" x="183" y="79" fill="#FCFBFE" rx="5"></rect><circle cx="180.5" cy="55.5" r="13.5" fill="#E2DEE9"></circle><circle cx="80" cy="80" r="7" fill="#E2DEE9"></circle><circle cx="80" cy="98" r="7" fill="#E2DEE9"></circle><circle cx="80" cy="116" r="7" fill="#E2DEE9"></circle><circle cx="80" cy="134" r="7" fill="#E2DEE9"></circle><circle cx="97" cy="80" r="7" fill="#E2DEE9"></circle><circle cx="97" cy="98" r="7" fill="#E2DEE9"></circle><circle cx="97" cy="116" r="7" fill="#E2DEE9"></circle><circle cx="97" cy="134" r="7" fill="#E2DEE9"></circle><circle cx="114" cy="80" r="7" fill="#E2DEE9"></circle><circle cx="114" cy="98" r="7" fill="#E2DEE9"></circle><circle cx="114" cy="116" r="7" fill="#E2DEE9"></circle><circle cx="114" cy="134" r="7" fill="#E2DEE9"></circle><rect width="12" height="9" x="193" y="80" fill="#E2DEE9" rx="4.5"></rect></svg> 