<?xml version="1.0" encoding="UTF-8"?> <svg xmlns="http://www.w3.org/2000/svg" fill="none" viewBox="0 0 276 189"><defs></defs><rect width="269" height="181" x="3.5" y="4" fill="#FCFBFE" stroke="#E2DEE9" stroke-width="7" rx="6.5"></rect><rect width="94" height="15" x="53" y="43" fill="#EEEBF2" rx="5"></rect><rect width="94" height="15" x="53" y="65" fill="#EEEBF2" rx="5"></rect><rect width="94" height="15" x="53" y="87" fill="#EEEBF2" rx="5"></rect><rect width="94" height="15" x="53" y="109" fill="#EEEBF2" rx="5"></rect><rect width="94" height="15" x="53" y="131" fill="#EEEBF2" rx="5"></rect><rect width="49" height="15" x="156" y="43" fill="#EEEBF2" rx="5"></rect><rect width="49" height="15" x="156" y="65" fill="#EEEBF2" rx="5"></rect><rect width="49" height="15" x="156" y="87" fill="#EEEBF2" rx="5"></rect><rect width="49" height="15" x="156" y="109" fill="#EEEBF2" rx="5"></rect><rect width="49" height="15" x="156" y="131" fill="#EEEBF2" rx="5"></rect><rect width="33" height="15" x="214" y="43" fill="#05CACC" rx="5"></rect><rect width="33" height="15" x="214" y="65" fill="#05CACC" rx="5"></rect><rect width="33" height="15" x="214" y="87" fill="#05CACC" rx="5"></rect><rect width="33" height="15" x="214" y="109" fill="#05CACC" rx="5"></rect><circle cx="36.5" cy="50.5" r="7.5" fill="#EEEBF2"></circle><circle cx="36.5" cy="72.5" r="7.5" fill="#EEEBF2"></circle><circle cx="36.5" cy="94.5" r="7.5" fill="#EEEBF2"></circle><circle cx="36.5" cy="116.5" r="7.5" fill="#EEEBF2"></circle><circle cx="36.5" cy="138.5" r="7.5" fill="#EEEBF2"></circle><rect width="33" height="15" x="214" y="131" fill="#05CACC" rx="5"></rect></svg> 