<?xml version="1.0" encoding="UTF-8"?> <svg xmlns="http://www.w3.org/2000/svg" fill="none" viewBox="0 0 276 189"><defs></defs><rect width="269" height="181" x="3.5" y="4.2" fill="#FCFBFE" stroke="#E2DEE9" stroke-width="7" rx="6.5"></rect><rect width="35" height="25" x="35" y="36" fill="#9E8FB2" rx="5"></rect><rect width="35" height="25" x="35" y="82" fill="#EEEBF2" rx="5"></rect><rect width="35" height="25" x="35" y="128" fill="#EEEBF2" rx="5"></rect><rect width="35" height="25" x="92" y="36" fill="#EEEBF2" rx="5"></rect><rect width="25" height="25" x="92" y="94.5" fill="#05CACC" rx="5" transform="rotate(-45 92 94.5)"></rect><rect width="35" height="25" x="92" y="128" fill="#EEEBF2" rx="5"></rect><rect width="35" height="25" x="149" y="36" fill="#EEEBF2" rx="5"></rect><rect width="35" height="25" x="149" y="82" fill="#EEEBF2" rx="5"></rect><rect width="35" height="25" x="206" y="36" fill="#EEEBF2" rx="5"></rect><rect width="35" height="25" x="206" y="82" fill="#EEEBF2" rx="5"></rect><circle cx="166" cy="140" r="13" fill="#8032ED"></circle><path stroke="#E2DEE9" stroke-width="2" d="M74 48h15M74 94h15M74 140h15M131 48h15M131 94h15M131 140h15M188 48h15M188 94h15"></path><path fill="#E2DEE9" fill-rule="evenodd" d="M245 95h1a5 5 0 005-5V53a5 5 0 00-5-5h-1v2h1a3 3 0 013 3v37a3 3 0 01-3 3h-1v2zM31 141h-1a5 5 0 01-5-5V99a5 5 0 015-5h1v2h-1a3 3 0 00-3 3v37a3 3 0 003 3h1v2z" clip-rule="evenodd"></path></svg> 